<svg xmlns="http://www.w3.org/2000/svg" viewBox="0 0 89.56 70.34"><defs><style>.cls-1{fill:#00aed4;}.cls-2{fill:#57c2e9;}.cls-3{fill:#1a1311;}</style></defs><g id="レイヤー_2" data-name="レイヤー 2"><g id="レイヤー_1-2" data-name="レイヤー 1"><g id="グループ_14350" data-name="グループ 14350"><path id="パス_48900" data-name="パス 48900" class="cls-1" d="M78,46.73c-.65-.39-1.59-1-1.92-1.19A114.5,114.5,0,0,1,61.32,34.4c-1.69-1.51-7.09-6.72-8.12-8a4,4,0,0,1-1-2.57,3.84,3.84,0,0,1,.74-2.26L51.63,23a16.63,16.63,0,0,0,1.06,23.49,16.27,16.27,0,0,0,2.89,2.12,2.89,2.89,0,0,0,1.48.25H77.43a1.12,1.12,0,0,0,1.14-1.09A1.15,1.15,0,0,0,78,46.73Z"/><path id="パス_48901" data-name="パス 48901" class="cls-1" d="M50.3,0A19,19,0,0,0,36,6.12h0A80.7,80.7,0,0,0,17.16,46.89a1.66,1.66,0,0,0,1.41,1.89,1,1,0,0,0,.24,0H30.92a1.67,1.67,0,0,0,1.64-1.35,64.8,64.8,0,0,1,8.19-22,53,53,0,0,1,6.53-9l.59-.54a7.81,7.81,0,0,1,.71-.58l.07-.05c.25-.19.51-.36.78-.53h0c.27-.17.55-.32.83-.46l.09,0,.84-.36.14-.06c.28-.1.57-.2.86-.28l.15,0c.28-.08.58-.15.89-.21l.14,0c.31-.06.63-.1.94-.13h.1c.34,0,.68-.05,1-.05A11.5,11.5,0,0,1,66.88,23.43s0,.41,0,.56,0,.45,0,.54v.31a10.55,10.55,0,0,1-1.77,5.84l-.31.43-.06.07A19.07,19.07,0,0,0,50.31,0Z"/><path id="パス_48902" data-name="パス 48902" class="cls-2" d="M50.39,15.29a3.84,3.84,0,0,1,2.78,6l-.23.29a3.82,3.82,0,0,0-.74,2.26,4.14,4.14,0,0,0,1,2.57c1,1.29,6.43,6.5,8.12,8a12.88,12.88,0,0,0,3.84-3.73,10.75,10.75,0,0,0,1.78-6.15,11.5,11.5,0,0,0-19.13-8.6l-.33.3A3.85,3.85,0,0,1,50.39,15.29Z"/></g><g id="グループ_14349" data-name="グループ 14349"><g id="グループ_14343-2" data-name="グループ 14343-2"><path id="パス_48890" data-name="パス 48890" class="cls-3" d="M35.88,70.12H34.5V61.53h3.79a2.33,2.33,0,0,1,2.33,2.33v.71a2.32,2.32,0,0,1-2.33,2.32H35.88Zm0-4.61h2.41a1,1,0,0,0,1-.94v-.71a1,1,0,0,0-1-.94H35.88Z"/></g><g id="グループ_14344" data-name="グループ 14344"><path id="パス_48891" data-name="パス 48891" class="cls-3" d="M20.23,70.34a3.08,3.08,0,0,1-3.1-3.06h0V64.39a3.09,3.09,0,0,1,6.17,0H21.92a1.71,1.71,0,0,0-3.41,0v2.88a1.71,1.71,0,0,0,3.41,0H23.3A3.09,3.09,0,0,1,20.23,70.34Z"/></g><g id="グループ_14345" data-name="グループ 14345"><path id="パス_48892" data-name="パス 48892" class="cls-3" d="M57.44,70.34a3,3,0,0,1-3-3V64.29a3,3,0,1,1,5.93,0v3.08A3,3,0,0,1,57.44,70.34Zm0-7.64a1.59,1.59,0,0,0-1.58,1.59v3.08a1.59,1.59,0,1,0,3.17,0V64.29a1.59,1.59,0,0,0-1.59-1.59Z"/></g><path id="パス_48893" data-name="パス 48893" class="cls-3" d="M15,62.91V61.53H9v8.59h6V68.74H10.38V66.39h3.34V65H10.38v-2.1Z"/><path id="パス_48894" data-name="パス 48894" class="cls-3" d="M32,62.91V61.53H26v8.59h6V68.74H27.33V66.39h3.33V65H27.32v-2.1Z"/><path id="パス_48895" data-name="パス 48895" class="cls-3" d="M48.14,61.53H42.06v1.38h2.35v7.21h1.38V62.91h2.35Z"/><path id="パス_48896" data-name="パス 48896" class="cls-3" d="M89.56,61.53H83.47v1.38h2.36v7.21h1.38V62.91h2.35Z"/><g id="グループ_14346" data-name="グループ 14346"><path id="パス_48897" data-name="パス 48897" class="cls-3" d="M64.43,70.12H63.05V61.53h1.31l3.26,5.64V61.53H69v8.59H67.69l-3.26-5.71Z"/></g><g id="グループ_14347" data-name="グループ 14347"><path id="長方形_4651" data-name="長方形 4651" class="cls-3" d="M50.51,61.53h1.38v8.59H50.51Z"/></g><g id="グループ_14348" data-name="グループ 14348"><path id="長方形_4652" data-name="長方形 4652" class="cls-3" d="M72,61.53h1.38v8.59H72Z"/></g><path id="パス_48898" data-name="パス 48898" class="cls-3" d="M6.12,63.86a2.33,2.33,0,0,0-2.33-2.33H0v8.59H1.38V66.89H3.79a1,1,0,0,1,1,1v2.28H6.12V67.84a2.28,2.28,0,0,0-.68-1.64,2.3,2.3,0,0,0,.68-1.64ZM1.38,65.51v-2.6H3.79a.94.94,0,0,1,.94.94v.71a.94.94,0,0,1-.94.94Z"/><path id="パス_48899" data-name="パス 48899" class="cls-3" d="M79.08,65.07c-1.85-.32-1.87-.89-1.88-1.17a1.05,1.05,0,0,1,.35-.85,2,2,0,0,1,1.6-.35,2.24,2.24,0,0,1,1.67,1l1.09-.85a3.59,3.59,0,0,0-2.58-1.54,3.17,3.17,0,0,0-2.71.69,2.47,2.47,0,0,0-.8,1.93c.08,2,2.29,2.35,3,2.47,1.23.22,1.91.74,1.84,1.43,0,.28-.09,1.11-1.65,1a3,3,0,0,1-2.33-1.14l-1.06.89A4.49,4.49,0,0,0,79,70.28h.23c1.67,0,2.73-.85,2.86-2.3.1-1.13-.63-2.49-3-2.91Z"/></g></g></g></svg>