<svg xmlns="http://www.w3.org/2000/svg" width="126.855" height="32">
    <defs>
        <clipPath id="clip-path">
            <path id="Rectangle" transform="translate(66 14)" style="fill:#3c64b1" d="M0 0h126.855v32H0z"/>
        </clipPath>
        <style>
            .cls-3{fill:#1a1311}.cls-4{fill:#00aed4}
        </style>
    </defs>
    <g id="img_logo_reception" transform="translate(-66 -14)" style="clip-path:url(#clip-path)">
        <g id="グループ_14343" data-name="グループ 14343" transform="translate(45.342 .066)">
            <g id="グループ_14349" data-name="グループ 14349" transform="translate(52.539 25.822)">
                <g id="グループ_14343-2" data-name="グループ 14343" transform="translate(36.586 .252)">
                    <path id="パス_48890" data-name="パス 48890" class="cls-3" d="M228.608 50.222h-1.462v-9.107h4.021a2.469 2.469 0 0 1 2.466 2.466v.751a2.469 2.469 0 0 1-2.466 2.466h-2.56zm0-4.886h2.56a1.006 1.006 0 0 0 1-1v-.751a1.006 1.006 0 0 0-1-1h-2.56z" transform="translate(-227.146 -41.115)"/>
                </g>
                <g id="グループ_14344" data-name="グループ 14344" transform="translate(18.169 .029)">
                    <path id="パス_48891" data-name="パス 48891" class="cls-3" d="M174.888 50a3.264 3.264 0 0 1-3.285-3.253V43.7a3.269 3.269 0 0 1 6.539 0h-1.462a1.807 1.807 0 0 0-3.615 0v3.048a1.807 1.807 0 0 0 3.615 0h1.462A3.257 3.257 0 0 1 174.888 50z" transform="translate(-171.603 -40.442)"/>
                </g>
                <g id="グループ_14345" data-name="グループ 14345" transform="translate(57.771 .029)">
                    <path id="パス_48892" data-name="パス 48892" class="cls-3" d="M294.177 50a3.146 3.146 0 0 1-3.143-3.142v-3.273a3.143 3.143 0 0 1 6.286 0v3.269A3.146 3.146 0 0 1 294.177 50zm0-8.092a1.683 1.683 0 0 0-1.681 1.681v3.269a1.681 1.681 0 0 0 3.362 0v-3.273a1.683 1.683 0 0 0-1.681-1.685z" transform="translate(-291.034 -40.442)"/>
                </g>
                <path id="パス_48893" data-name="パス 48893" class="cls-3" d="M151.973 42.577v-1.462h-6.364v9.107h6.364v-1.461h-4.9v-2.495h3.541V44.8h-3.541v-2.223z" transform="translate(-136.059 -40.863)"/>
                <path id="パス_48894" data-name="パス 48894" class="cls-3" d="M206.165 42.577v-1.462H199.8v9.107h6.364v-1.461h-4.9v-2.495h3.536V44.8h-3.541v-2.223z" transform="translate(-172.282 -40.863)"/>
                <path id="パス_48895" data-name="パス 48895" class="cls-3" d="M257.775 41.115h-6.451v1.462h2.494v7.646h1.462v-7.646h2.495z" transform="translate(-206.721 -40.863)"/>
                <path id="パス_48896" data-name="パス 48896" class="cls-3" d="M390.211 41.115h-6.451v1.462h2.495v7.646h1.462v-7.646h2.494z" transform="translate(-295.243 -40.863)"/>
                <g id="グループ_14346" data-name="グループ 14346" transform="translate(66.863 .252)">
                    <path id="パス_48897" data-name="パス 48897" class="cls-3" d="M319.915 50.223h-1.462v-9.108h1.384l3.457 5.978v-5.978h1.462v9.108h-1.384l-3.457-6.054z" transform="translate(-318.454 -41.115)"/>
                </g>
                <g id="グループ_14347" data-name="グループ 14347" transform="translate(53.559 .252)">
                    <path id="長方形_4651" data-name="長方形 4651" class="cls-3" d="M0 0h1.462v9.108H0z"/>
                </g>
                <g id="グループ_14348" data-name="グループ 14348" transform="translate(76.295 .252)">
                    <path id="長方形_4652" data-name="長方形 4652" class="cls-3" d="M0 0h1.462v9.108H0z"/>
                </g>
                <path id="パス_48898" data-name="パス 48898" class="cls-3" d="M123.3 43.581a2.469 2.469 0 0 0-2.466-2.466h-4.021v9.107h1.462V46.8h2.559a1.006 1.006 0 0 1 1 1v2.419h1.466V47.8a2.458 2.458 0 0 0-.716-1.736 2.458 2.458 0 0 0 .716-1.736zm-5.026 1.756v-2.76h2.559a1 1 0 0 1 1 1v.751a1.006 1.006 0 0 1-1 1z" transform="translate(-116.808 -40.863)"/>
                <path id="パス_48899" data-name="パス 48899" class="cls-3" d="M362.364 44.364c-1.956-.339-1.981-.951-1.993-1.245a1.142 1.142 0 0 1 .37-.906 2.1 2.1 0 0 1 1.7-.363 2.355 2.355 0 0 1 1.772 1.091l1.156-.9a3.814 3.814 0 0 0-2.736-1.641 3.4 3.4 0 0 0-2.877.733 2.613 2.613 0 0 0-.845 2.046c.086 2.084 2.432 2.491 3.2 2.624 1.309.227 2.023.78 1.957 1.517-.026.29-.1 1.172-1.756 1.1a3.212 3.212 0 0 1-2.47-1.21l-1.118.941a4.708 4.708 0 0 0 3.524 1.73q.123.005.242.005c1.77 0 2.9-.9 3.035-2.436.11-1.208-.665-2.65-3.161-3.086z" transform="translate(-278.51 -40.355)"/>
            </g>
            <g id="グループ_14350" data-name="グループ 14350" transform="translate(20.657 18.612)">
                <path id="パス_48900" data-name="パス 48900" class="cls-4" d="M77.088 60.47c-.3-.181-.736-.457-.892-.554a53.236 53.236 0 0 1-6.852-5.169c-.785-.7-3.288-3.115-3.768-3.71a1.9 1.9 0 0 1-.463-1.194 1.77 1.77 0 0 1 .343-1.047l-.605.639a7.713 7.713 0 0 0 1.829 11.88 1.386 1.386 0 0 0 .69.119h9.449a.517.517 0 0 0 .269-.964z" transform="translate(-48.847 -38.788)"/>
                <path id="パス_48901" data-name="パス 48901" class="cls-4" d="M36.044 18.613a8.837 8.837 0 0 0-6.629 2.836l-.007.007a37.444 37.444 0 0 0-8.743 18.908.776.776 0 0 0 .769.889h5.616a.777.777 0 0 0 .762-.629 30.038 30.038 0 0 1 3.8-10.208 24.473 24.473 0 0 1 3.028-4.184c.034-.034.264-.247.274-.255.106-.093.215-.182.328-.266l.033-.024c.118-.087.24-.169.365-.246h.006c.126-.077.256-.147.388-.213l.042-.022c.127-.062.257-.118.389-.17l.062-.025q.2-.074.4-.133l.069-.02q.2-.057.414-.1l.066-.012a5.22 5.22 0 0 1 .437-.061h.047c.156-.014.313-.022.472-.022a5.33 5.33 0 0 1 5.3 4.817c0 .02.016.194.019.262 0 .041.007.208.007.251v.144a4.9 4.9 0 0 1-.822 2.708 6.672 6.672 0 0 1-.146.2l-.025.034a8.85 8.85 0 0 0-6.719-14.466z" transform="translate(-20.657 -18.612)"/>
                <path id="パス_48902" data-name="パス 48902" d="M64.457 37.9a1.776 1.776 0 0 1 1.288 2.781l-.105.136a1.77 1.77 0 0 0-.343 1.047 1.9 1.9 0 0 0 .463 1.194c.481.6 2.984 3.013 3.768 3.71a5.989 5.989 0 0 0 1.779-1.73 4.955 4.955 0 0 0 .827-2.852 5.339 5.339 0 0 0-8.876-3.99l-.153.141a1.773 1.773 0 0 1 1.352-.437z" transform="translate(-49.03 -30.805)" style="fill:#57c2e9"/>
            </g>
        </g>
    </g>
</svg>
