<svg xmlns="http://www.w3.org/2000/svg" width="158" height="42">
    <defs>
        <clipPath id="clip-path">
            <path id="調整アポ_logo-1" transform="translate(64 79)" style="fill:#3c64b1" d="M0 0h158v42H0z"/>
        </clipPath>
        <style>
            .cls-5{fill:#070102}
        </style>
    </defs>
    <g id="img_scheduling_logo" transform="translate(-64 -79)" style="clip-path:url(#clip-path)">
        <g id="design" transform="translate(63.916 87.74)">
            <path id="パス_3003" data-name="パス 3003" d="M1.979 28.887h35.886a1.894 1.894 0 0 0 1.894-1.894V14.977h-18.5V18.6a2.164 2.164 0 0 1-2.159 2.164H.085V27a1.894 1.894 0 0 0 1.894 1.889z" transform="translate(0 -4.366)" style="fill:#00afd5"/>
            <path id="パス_3004" data-name="パス 3004" d="M.085 13.914h18.7v-3.623a2.164 2.164 0 0 1 2.164-2.164h18.81V1.894A1.894 1.894 0 0 0 37.865 0H1.979A1.894 1.894 0 0 0 .085 1.894z" style="fill:#57c3ea"/>
            <path id="パス_3005" data-name="パス 3005" class="cls-5" d="M118.2 7.725v2.07h9.217v2.587a2.251 2.251 0 0 1-2.249 2.251h-.78v-3.3h-2.07v4.522a8.179 8.179 0 0 1-2.3 5.7l-.839.873 1.492 1.434.839-.873a10.237 10.237 0 0 0 2.839-6.3h.814a4.323 4.323 0 0 0 4.318-4.318V7.718z" transform="translate(-34.434 -2.25)"/>
            <path id="長方形_961" data-name="長方形 961" class="cls-5" transform="translate(48.48 4.208)" d="M0 0h3.09v1.58H0z"/>
            <path id="長方形_962" data-name="長方形 962" class="cls-5" transform="translate(48.48 10.221)" d="M0 0h3.09v1.58H0z"/>
            <path id="長方形_963" data-name="長方形 963" class="cls-5" transform="translate(48.48 13.071)" d="M0 0h3.09v1.58H0z"/>
            <path id="長方形_964" data-name="長方形 964" class="cls-5" transform="translate(47.84 7.371)" d="M0 0h4.37v1.58H0z"/>
            <path id="パス_3006" data-name="パス 3006" class="cls-5" d="M67.707 28.249h4.061v-6.161h-4.061zm1.58-4.58h.9v3h-.9z" transform="translate(-19.713 -6.439)"/>
            <path id="パス_3007" data-name="パス 3007" class="cls-5" d="M77.981 14.826v1.58h3.611v-1.58h-1.016v-2.734h.8v-1.58h-.8v-1H79v1h-.8v1.58h.8v2.734z" transform="translate(-22.708 -2.772)"/>
            <path id="パス_3008" data-name="パス 3008" class="cls-5" d="M77.92 26.657h3.7v-5.91h-3.7zm1.58-4.33h.535v2.75H79.5z" transform="translate(-22.69 -6.048)"/>
            <path id="パス_3009" data-name="パス 3009" class="cls-5" d="M79.978 5.939h-5.162v.791c0 9.808-.484 15.482-.613 16.812h1.587c.147-1.571.581-6.975.6-16.023h3.584A1.081 1.081 0 0 1 81.058 8.6v14.942h1.58V8.6a2.664 2.664 0 0 0-2.66-2.661z" transform="translate(-21.607 -1.731)"/>
            <path id="パス_3010" data-name="パス 3010" class="cls-5" d="M105.811 8.761h.834V7.18h-4.479c.085-.368.158-.747.215-1.151h-1.594a10.192 10.192 0 0 1-1.094 3.256v-.637h-2.258v-.509h2.26v-1.58h-2.26v-.53h-1.58v.53h-2.639v1.58h2.638v.509H93.6v4.021h1.33l-1.349.584v1.716l2.278-.981v1.226h-1.796V16.8h5.246v5.191H97.3v-3.453h-1.573v3.449h-2.185v1.58h13.1v-1.58h-5.752v-1.612h4.259V18.8h-4.259v-2h5.093v-1.582h-8.548v-1.226l2.258.973v-1.716l-1.33-.58h1.33v-1.246l.259.245a7.409 7.409 0 0 0 .92-1.259c.064.146.134.3.212.447a7.493 7.493 0 0 0 .9 1.349 7.131 7.131 0 0 1-1.582.993v1.716a8.809 8.809 0 0 0 2.714-1.6 8.522 8.522 0 0 0 2.772 1.438l.472-1.508a7.073 7.073 0 0 1-2.149-1.078 8.412 8.412 0 0 0 .868-1.362 8.82 8.82 0 0 0 .736-2.045zm-9.957 2.329h-.677v-.858h.677zm2.258 0h-.678v-.858h.678zm4.958-.032a6.038 6.038 0 0 1-1.1-2.3h2.219a7.063 7.063 0 0 1-1.116 2.3z" transform="translate(-27.149 -1.758)"/>
            <path id="パス_3011" data-name="パス 3011" class="cls-5" d="M152.107 12.093v-2.07h-4.664V6.754h-2.07v3.27h-4.507v2.07h4.507V23.62h2.07V12.093z" transform="translate(-41.04 -1.969)"/>
            <path id="パス_3012" data-name="パス 3012" class="cls-5" d="M154.088 8.737a1.676 1.676 0 1 0-1.676-1.675 1.676 1.676 0 0 0 1.676 1.675zm0-2.372a.7.7 0 1 1-.7.7.7.7 0 0 1 .7-.7z" transform="translate(-44.406 -1.57)"/>
            <path id="パス_3013" data-name="パス 3013" class="cls-5" d="m139.489 23.306 1.6 1.309a12.944 12.944 0 0 0 2.768-6.45h-2.084a11.076 11.076 0 0 1-2.287 5.141z" transform="translate(-40.638 -5.295)"/>
            <path id="パス_3014" data-name="パス 3014" class="cls-5" d="M154 18.17h-2.084a12.924 12.924 0 0 0 2.767 6.45l1.6-1.309A11.076 11.076 0 0 1 154 18.17z" transform="translate(-44.261 -5.297)"/>
        </g>
    </g>
</svg>
