<?xml version="1.0" encoding="utf-8"?>
<!-- Generator: Adobe Illustrator 25.4.1, SVG Export Plug-In . SVG Version: 6.00 Build 0)  -->
<svg version="1.1" id="レイヤー_1" xmlns="http://www.w3.org/2000/svg" xmlns:xlink="http://www.w3.org/1999/xlink" x="0px"
	 y="0px" viewBox="0 0 429 249" style="enable-background:new 0 0 429 249;" xml:space="preserve">
<style type="text/css">
	.st0{fill:#FFFFFF;}
	.st1{clip-path:url(#SVGID_00000034810801781707204020000000025343438458648236_);}
	.st2{fill:#E29362;}
	.st3{fill:none;}
</style>
<path class="st0" d="M143,83h143v83H143V83z"/>
<g>
	<g>
		<defs>
			<rect id="SVGID_1_" x="18.3" y="63.5" width="392.4" height="118"/>
		</defs>
		<clipPath id="SVGID_00000149372626021028410370000016186453294140582278_">
			<use xlink:href="#SVGID_1_"  style="overflow:visible;"/>
		</clipPath>
		<g style="clip-path:url(#SVGID_00000149372626021028410370000016186453294140582278_);">
			<path class="st2" d="M362.6,156.1c-5.9-2.3-10.4-7-12.6-12.9c-1.2-3.2-1.7-6.6-1.7-10s0.5-6.9,1.7-10.1c1.1-2.9,2.7-5.6,4.9-7.8
				c2.2-2.2,4.8-3.9,7.7-5c6.5-2.4,13.6-2.3,20,0c5.9,2.2,10.5,7,12.6,12.9c2.2,6.5,2.2,13.5,0,20c-1.1,2.9-2.7,5.6-4.9,7.9
				c-2.2,2.2-4.8,3.9-7.7,5.1c-3.2,1.2-6.6,1.8-10.1,1.8C369.2,157.9,365.8,157.3,362.6,156.1z M366.3,119.3
				c-1.9,1.4-3.4,3.3-4.2,5.4c-2,5.4-2,11.3,0,16.7c0.8,2.2,2.3,4.1,4.2,5.5c1.9,1.3,4.1,1.9,6.4,1.9c3.4,0.1,6.7-1.4,8.8-4.2
				c4.4-7.1,4.4-16,0-23.1c-2.1-2.7-5.4-4.3-8.8-4.1C370.4,117.4,368.2,118.1,366.3,119.3L366.3,119.3z M315.7,156
				c-1.3-1.6-1.9-3.7-1.8-5.7v-20.4c0-2.1-0.1-4.2-0.3-6.3c-0.2-1.5-0.8-2.9-1.8-4c-1.2-1.1-2.8-1.7-4.5-1.6c-1.6,0-3.2,0.5-4.6,1.4
				s-2.6,2.3-3.4,3.8c-1.1,3.5-1.6,7.2-1.3,10.9v16.2c0.2,2.1-0.5,4.1-1.7,5.7c-1.2,1.3-2.9,2-4.6,1.9c-1.7,0.1-3.4-0.6-4.5-1.9
				c-1.3-1.6-1.9-3.7-1.7-5.7v-19.4c0-2.4-0.1-4.8-0.3-7.1c-0.1-1.5-0.7-3-1.7-4.2c-1.1-1.2-2.8-1.8-4.4-1.6
				c-3.2-0.4-6.4,1.2-7.9,4.1c-1.4,3.7-2.1,7.7-1.9,11.7v16.4c0.1,2.1-0.5,4.1-1.7,5.7c-1.1,1.3-2.8,2-4.5,1.9
				c-1.7,0.1-3.4-0.6-4.5-1.9c-1.3-1.6-1.9-3.7-1.8-5.7v-34.8c-0.1-1.9,0.4-3.7,1.6-5.2c1.1-1.2,2.6-1.8,4.2-1.8s3.1,0.6,4.2,1.7
				c1.2,1.2,1.8,2.9,1.7,4.6v1.2c1.9-2.3,4.2-4.2,6.8-5.6c2.5-1.2,5.3-1.8,8.1-1.8c2.8-0.1,5.5,0.6,7.9,1.8c2.3,1.3,4.2,3.2,5.5,5.5
				c1.8-2.3,4.1-4.2,6.6-5.5c2.4-1.2,5.1-1.8,7.8-1.8c3-0.1,6,0.6,8.6,2c2.4,1.2,4.3,3.2,5.4,5.6c1.2,3.3,1.8,6.8,1.6,10.4v23.7
				c0.2,2.1-0.5,4.1-1.7,5.7c-1.2,1.3-2.9,2-4.6,1.9C318.5,157.9,316.9,157.2,315.7,156L315.7,156z M226.3,156.1
				c-1.2-1.4-1.7-3.2-1.6-5.1v-1.6c-1.3,1.7-2.9,3.3-4.6,4.6c-1.6,1.2-3.4,2.2-5.3,2.8c-2.1,0.6-4.3,0.9-6.5,0.9
				c-2.8,0-5.5-0.6-7.9-1.8c-2.2-1.1-4.1-2.9-5.4-5c-1.7-3.4-2.5-7.3-2.3-11.1v-24.1c-0.2-2,0.4-3.9,1.6-5.5
				c1.1-1.2,2.7-1.9,4.4-1.8c1.7-0.1,3.3,0.6,4.5,1.8c1.2,1.5,1.8,3.5,1.7,5.4V135c0,2.4,0.2,4.8,0.7,7.1c0.4,1.7,1.3,3.3,2.6,4.5
				c1.4,1.1,3.2,1.7,5,1.6c2.1,0,4.1-0.6,5.8-1.8c1.8-1.2,3.2-2.8,4-4.8c0.9-3.7,1.3-7.5,1-11.3v-14.8c-0.1-2,0.5-3.9,1.7-5.4
				c1.1-1.2,2.8-1.9,4.4-1.8c1.7-0.1,3.3,0.6,4.4,1.8c1.2,1.5,1.8,3.5,1.6,5.5V151c0.1,1.9-0.4,3.7-1.6,5.2c-1,1.2-2.5,1.8-4.1,1.7
				C228.8,157.9,227.3,157.3,226.3,156.1L226.3,156.1z M140.8,155.9c-2.7-1-5.1-2.8-6.9-5c-1.4-1.7-2.2-3.8-2.2-6
				c0-1.3,0.5-2.5,1.4-3.4c1-1,2.3-1.5,3.6-1.4c1.1-0.1,2.1,0.3,3,0.9c0.8,0.8,1.5,1.7,2,2.6c1.1,2,2.6,3.6,4.5,4.9
				c2.2,1.2,4.7,1.7,7.1,1.6c2.1,0.1,4.2-0.5,6-1.6c1.4-0.8,2.3-2.2,2.3-3.7c0.1-1.9-0.8-3.7-2.4-4.7c-2.5-1.3-5.2-2.3-8-2.8
				c-3.5-0.8-6.9-1.9-10.3-3.3c-2.4-1-4.6-2.5-6.3-4.5c-1.6-1.9-2.4-4.4-2.4-6.9s0.8-4.9,2.2-6.9c1.6-2.3,3.9-4.1,6.5-5.2
				c3.3-1.4,6.8-2,10.3-1.9c2.9,0,5.7,0.3,8.5,1c2.2,0.5,4.4,1.4,6.3,2.6c1.5,0.9,2.8,2.2,3.8,3.6c0.8,1.1,1.3,2.5,1.3,3.9
				c0,1.3-0.5,2.5-1.4,3.4c-1.1,0.9-2.5,1.4-4,1.3c-1.2,0-2.3-0.3-3.2-1.1c-1.1-1-2.1-2-3-3.2s-2-2.1-3.3-2.8
				c-1.6-0.8-3.3-1.2-5.1-1.1c-1.9-0.1-3.8,0.4-5.5,1.4c-1.3,0.7-2.1,2-2.2,3.5c0,1.2,0.6,2.4,1.6,3.1c1.3,0.9,2.8,1.6,4.3,2
				c1.8,0.5,4.3,1.2,7.5,2c3.2,0.7,6.3,1.8,9.3,3.3c2.1,1.1,4,2.6,5.5,4.5c1.2,1.7,1.9,3.8,1.9,5.9c0.1,3.1-0.8,6.1-2.5,8.6
				c-1.8,2.5-4.3,4.4-7.3,5.4c-3.8,1.3-7.7,1.9-11.7,1.8C148.2,158,144.3,157.3,140.8,155.9L140.8,155.9z M100,156
				c-1.2-1.6-1.8-3.5-1.7-5.5v-34.8c-0.1-2,0.5-3.9,1.7-5.4c1.1-1.2,2.7-1.9,4.4-1.8c1.7,0,3.3,0.6,4.4,1.8c1.2,1.4,1.9,3.2,1.7,5.1
				v35.1c0.1,2-0.5,4-1.7,5.5c-1.1,1.2-2.8,1.9-4.4,1.9C102.7,157.9,101.1,157.2,100,156L100,156z M50.2,156.7
				c-0.9-0.7-1.7-1.6-2.3-2.6c-0.5-0.9-1.3-2.8-2.5-5.5L33.9,120c-0.3-0.7-0.5-1.4-0.8-2.1s-0.5-1.4-0.7-2.2
				c-0.2-0.6-0.3-1.3-0.3-1.9c0-0.9,0.3-1.7,0.8-2.5s1.2-1.5,2.1-2c0.9-0.5,1.9-0.8,2.9-0.8c1.6-0.2,3.2,0.5,4.2,1.7
				c1.1,1.8,1.9,3.8,2.5,5.8l9.9,27.6L65,114.8c0.6-1.8,1.4-3.4,2.5-4.9c0.9-1,2.3-1.6,3.7-1.4c1.5,0,2.9,0.5,4,1.6
				c1,0.9,1.6,2.2,1.6,3.6c0,0.6-0.1,1.3-0.3,1.9c-0.2,0.7-0.4,1.3-0.7,2l-0.9,2.1l-11.7,28.9c-0.3,0.8-0.8,1.9-1.3,3.2
				c-0.5,1.2-1,2.2-1.7,3.3c-0.6,0.9-1.4,1.6-2.4,2.1c-1.1,0.5-2.2,0.8-3.4,0.8C52.9,158,51.5,157.5,50.2,156.7L50.2,156.7z
				 M100.1,101.3c-2.4-2.3-2.4-6.1-0.1-8.5l0.1-0.1c1.2-1.1,2.7-1.7,4.3-1.7c1.5,0,3,0.5,4.2,1.5c1.3,1.1,1.9,2.7,1.8,4.4
				c0.1,1.7-0.6,3.3-1.8,4.4c-1.2,1-2.7,1.6-4.2,1.6C102.9,102.9,101.4,102.3,100.1,101.3L100.1,101.3z"/>
		</g>
	</g>
</g>
<rect class="st3" width="429" height="249"/>
</svg>
