<?xml version="1.0" encoding="utf-8"?>
<!-- Generator: Adobe Illustrator 25.4.1, SVG Export Plug-In . SVG Version: 6.00 Build 0)  -->
<svg version="1.1" id="img_scheduling_clients-6" xmlns="http://www.w3.org/2000/svg" xmlns:xlink="http://www.w3.org/1999/xlink"
	 x="0px" y="0px" viewBox="0 0 429 249" style="enable-background:new 0 0 429 249;" xml:space="preserve">
<style type="text/css">
	.st0{fill:#FFFFFF;}
	.st1{clip-path:url(#SVGID_00000157989077629327662510000017883391134413973897_);}
	.st2{fill:#26A170;}
	.st3{fill-rule:evenodd;clip-rule:evenodd;fill:#1A1311;}
	.st4{fill:none;}
</style>
<path id="長方形_860" class="st0" d="M31,18h370v214.8H31V18z"/>
<g>
	<defs>
		<rect id="SVGID_1_" x="29.5" y="68.9" width="370" height="111.3"/>
	</defs>
	<clipPath id="SVGID_00000181049241470633464670000016130357698701858470_">
		<use xlink:href="#SVGID_1_"  style="overflow:visible;"/>
	</clipPath>
	<g id="マスクグループ_11711" style="clip-path:url(#SVGID_00000181049241470633464670000016130357698701858470_);">
		<g id="グループ_14342" transform="translate(-111.602 -256.847)">
			<g id="simbol" transform="translate(111.602 286.865)">
				<path id="パス_48878" class="st2" d="M69.3,107V80.5L42.2,93.6L69.3,107z"/>
				<path id="パス_48879" class="st2" d="M46.8,87.2l23.7-11.7l-9.8-9.8c-1.3-1.3-3.3-1.3-4.6,0c0,0,0,0,0,0l-9.4,9.4V87.2z"/>
				<path id="パス_48880" class="st2" d="M86.4,91.4L73.6,78.6l-0.2,0.1v30.4l0,0L86.4,96C87.7,94.7,87.7,92.7,86.4,91.4
					C86.5,91.4,86.4,91.4,86.4,91.4z"/>
				<path id="パス_48881" class="st2" d="M42.7,98.1l-9-4.5l9-4.4v-10L30.4,91.4c-1.3,1.3-1.3,3.3,0,4.6l12.3,12.3V98.1z"/>
				<path id="パス_48882" class="st2" d="M46.8,100.1v12.2l9.4,9.4c1.3,1.3,3.3,1.3,4.6,0c0,0,0,0,0,0l9.8-9.8L46.8,100.1z"/>
			</g>
			<g id="logo" transform="translate(142.3 291.302)">
				<path id="logo_svg" class="st3" d="M364.8,94.7V72h4v22.7H364.8z M336.3,94.7l-5.6-7.9h-5v7.9h-4V72h10.1
					c2.4-0.1,4.7,0.7,6.5,2.3c1.3,1.3,1.9,3.1,1.9,4.9v0.1c0.1,3.3-2.2,6.2-5.4,6.9l6.1,8.6L336.3,94.7L336.3,94.7z M336.2,79.4
					L336.2,79.4c0-2.5-1.7-3.8-4.7-3.8h-5.8v7.6h5.8C334.4,83.2,336.2,81.7,336.2,79.4z M290.3,95c-5.9,0-9.7-3.4-9.7-10V72h4v12.9
					c0,4.2,2.2,6.5,5.7,6.5c3.6,0,5.7-2.1,5.7-6.3V72h4v12.9C300,91.6,296.2,95,290.3,95L290.3,95z M256.5,94.7l-7.8-10.2l-3.5,3.6
					v6.6h-4V72h4v11.4L256,72h4.9l-9.5,9.8l9.9,12.9L256.5,94.7L256.5,94.7z M214.6,89.2h-10.7l-2.3,5.5h-4.1l10-22.9h3.7l10,22.9
					h-4.2L214.6,89.2z M209.2,76.6l-3.9,9.1h7.8L209.2,76.6z M174.3,94.7l-5.6-7.9h-5v7.9h-4V72h10.1c2.4-0.1,4.7,0.7,6.5,2.3
					c1.3,1.3,1.9,3.1,1.9,4.9v0.1c0.1,3.3-2.2,6.2-5.4,6.9l6.1,8.6L174.3,94.7L174.3,94.7z M174.3,79.4L174.3,79.4
					c0-2.5-1.8-3.8-4.7-3.8h-5.8v7.6h5.8C172.5,83.2,174.3,81.7,174.3,79.4L174.3,79.4z M133.2,89.2h-10.7l-2.3,5.5H116l10-22.9h3.7
					l10,22.9h-4.2L133.2,89.2z M127.8,76.6l-3.9,9.1h7.8L127.8,76.6z M93.5,94.7l-7.7-10.2l-3.5,3.6v6.6h-4V72h4v11.4L93,72h4.9
					l-9.5,9.8l9.9,12.9L93.5,94.7L93.5,94.7z"/>
			</g>
			<g id="グループ_14341" transform="translate(142.514 304.539)">
				<path id="パス_48883" class="st2" d="M78.6,101.6L78.6,101.6c0-2.8,2.2-5,5-5c1.4,0,2.8,0.6,3.8,1.7l-0.9,1
					c-0.7-0.9-1.8-1.4-2.9-1.4c-1.9,0.1-3.5,1.7-3.4,3.6c0,0,0,0,0,0.1v0c-0.1,2,1.4,3.6,3.4,3.7c0,0,0.1,0,0.1,0
					c1.1,0,2.2-0.6,2.9-1.4l0.9,0.8c-1.7,2.1-4.8,2.5-6.9,0.8C79.2,104.5,78.6,103.1,78.6,101.6L78.6,101.6z"/>
				<path id="パス_48884" class="st2" d="M91,92.8h1.4v5.6c0.7-1.2,1.9-1.9,3.3-1.9c1.9-0.1,3.6,1.4,3.7,3.3c0,0.2,0,0.4,0,0.5
					v5.9h-1.4v-5.6c0.2-1.4-0.8-2.7-2.2-2.9c-0.2,0-0.3,0-0.5,0c-1.5,0-2.8,1.2-2.9,2.8c0,0.1,0,0.2,0,0.2v5.5H91L91,92.8z"/>
				<path id="パス_48885" class="st2" d="M102.9,103.5L102.9,103.5c0-2,1.7-3.1,4.1-3.1c1,0,2,0.1,2.9,0.4v-0.3
					c0-1.7-1.1-2.6-2.8-2.6c-1,0-2,0.3-2.9,0.7l-0.4-1.2c1.1-0.5,2.3-0.8,3.5-0.8c1.1-0.1,2.2,0.3,3.1,1.1c0.7,0.8,1,1.8,1,2.8v5.8
					h-1.4v-1.4c-0.8,1.1-2.1,1.7-3.4,1.6c-1.8,0.2-3.3-1.1-3.5-2.8C102.9,103.6,102.9,103.6,102.9,103.5L102.9,103.5z M109.9,102.8
					v-0.9c-0.9-0.3-1.9-0.4-2.8-0.4c-1.8,0-2.8,0.8-2.8,2v0c0,1.2,1.1,1.9,2.4,1.9C108.3,105.6,109.8,104.4,109.9,102.8
					C109.9,102.8,109.9,102.8,109.9,102.8L109.9,102.8z"/>
				<path id="パス_48886" class="st2" d="M115.7,103.8V98h-1.3v-1.3h1.3v-2.9h1.4v2.9h3V98h-3v5.6c-0.1,0.8,0.4,1.5,1.2,1.6
					c0.1,0,0.3,0,0.4,0c0.5,0,1-0.1,1.4-0.3v1.2c-0.5,0.3-1.1,0.4-1.7,0.4c-1.3,0.2-2.5-0.8-2.7-2.1
					C115.7,104.1,115.7,104,115.7,103.8L115.7,103.8z"/>
				<path id="パス_48887" class="st2" d="M125.4,104.5v1.8H124V92.8h1.4v5.8c0.8-1.3,2.1-2.1,3.7-2.1c2.6,0.1,4.6,2.2,4.6,4.7
					c0,0.1,0,0.1,0,0.2v0c0.2,2.6-1.8,4.8-4.3,5c-0.1,0-0.1,0-0.2,0C127.5,106.5,126.2,105.7,125.4,104.5z M132.1,101.6L132.1,101.6
					c0.1-1.9-1.3-3.6-3.2-3.7c-0.1,0-0.1,0-0.2,0c-2,0.1-3.5,1.7-3.4,3.7c0,0,0,0,0,0v0c-0.1,2,1.4,3.6,3.4,3.7c0,0,0,0,0,0
					c1.9,0,3.4-1.5,3.4-3.3C132.1,101.8,132.1,101.7,132.1,101.6z"/>
				<path id="パス_48888" class="st2" d="M136.5,101.6L136.5,101.6c0-2.8,2.2-5,5-5c2.7,0,5,2.2,5,5l0,0v0c0,2.7-2.2,5-4.9,5
					c0,0-0.1,0-0.1,0c-2.7,0-4.9-2.1-4.9-4.8C136.5,101.7,136.5,101.6,136.5,101.6L136.5,101.6z M145,101.6L145,101.6
					c0.1-2-1.5-3.7-3.5-3.8c0,0,0,0,0,0c-1.9,0-3.5,1.6-3.5,3.6c0,0,0,0.1,0,0.1v0c-0.1,2,1.5,3.6,3.4,3.7c0,0,0.1,0,0.1,0
					c1.9,0,3.5-1.6,3.5-3.5C145,101.7,145,101.6,145,101.6L145,101.6z"/>
				<path id="パス_48889" class="st2" d="M150.8,103.8V98h-1.3v-1.3h1.3v-2.9h1.4v2.9h3V98h-3v5.6c-0.1,0.8,0.4,1.5,1.2,1.6
					c0.1,0,0.3,0,0.4,0c0.5,0,1-0.1,1.4-0.3v1.2c-0.5,0.3-1.1,0.4-1.7,0.4c-1.3,0.2-2.5-0.8-2.7-2.1
					C150.8,104.1,150.8,103.9,150.8,103.8L150.8,103.8z"/>
			</g>
		</g>
	</g>
</g>
<rect class="st4" width="429" height="249"/>
</svg>
