<svg xmlns="http://www.w3.org/2000/svg" width="55" height="54">
    <rect data-name="img_00-2-1" width="55" height="54" rx="10" style="fill:none"/>
    <g data-name="グループ 10765">
        <path data-name="パス 3077" d="M2.319 66.117h47.94a2.529 2.529 0 0 0 2.532-2.526V47.53H28.075v4.838a2.889 2.889 0 0 1-2.886 2.892H-.21v8.328a2.529 2.529 0 0 0 2.529 2.529z" transform="translate(1.211 -23.042)" style="fill:#00afd5"/>
        <path data-name="パス 3078" d="M-.21 18.207h24.972v-4.838a2.893 2.893 0 0 1 2.889-2.892H52.79V2.149A2.529 2.529 0 0 0 50.261-.38H2.319A2.529 2.529 0 0 0-.21 2.149z" transform="translate(1.211 10.699)" style="fill:#57c3ea"/>
    </g>
</svg>
