<svg xmlns="http://www.w3.org/2000/svg" width="197" height="45">
    <defs>
        <clipPath id="a">
            <path data-name="長方形 948" transform="translate(742 639.863)" style="fill:#fff;stroke:#707070" d="M0 0h197v45H0z"/>
        </clipPath>
    </defs>
    <g transform="translate(-742 -639.863)" style="clip-path:url(#a)">
        <path data-name="パス 3028" d="M830.262 663.633a55.133 55.133 0 0 0-3-.958 47.063 47.063 0 0 1-6.007-2.177l-4.788-2.114-1.567-.7-.149-.087v-.112a2.973 2.973 0 0 1-.2-.709 4.975 4.975 0 0 1 .064-.817l.075-.572v-.995a8.3 8.3 0 0 1 .236-1.617l1.667-.473a5.261 5.261 0 0 0 .709-.236 1.691 1.691 0 0 0 .908-2.052 1.6 1.6 0 0 0-1.878-1.107 3.482 3.482 0 0 0-.51.162.8.8 0 0 1-.224.075 4.391 4.391 0 0 0-.572.187h-.1a1.7 1.7 0 0 0-.162-.249 1.468 1.468 0 0 0-1.749-.573 1.592 1.592 0 0 0-1.107 1.5v.5l-.572.3a15.758 15.758 0 0 1-2.55 1.144 7.574 7.574 0 0 0-.883.336 1.5 1.5 0 0 0-.288 2.489 3.83 3.83 0 0 0 .572.386l.2.112a.92.92 0 0 0 .858.075l.423-.174c.323-.137.634-.261.945-.41l.883-.435-.2 2.487a1.642 1.642 0 0 0-.56.522 1.878 1.878 0 0 0-.286 1.244l-.236.249c-.41.46-.833.92-1.244 1.43a11.891 11.891 0 0 1-1.119 1.244l-.56.609-.5.547c-.622.7-1.244 1.418-1.928 2.065l-.2.187a14.117 14.117 0 0 1-2.348 1.976c-1.045.634-1.132 1.356-1.082 1.729.087.659.6 1.144 1.542 1.43a.97.97 0 0 0 .7-.075 7.811 7.811 0 0 0 1.9-1.356 241.085 241.085 0 0 0 3.905-3.98c.572-.6 1.132-1.244 1.691-1.853l-.236 7.661a20.31 20.31 0 0 0-4.689 2.4.945.945 0 0 0-.373.995 1.58 1.58 0 0 0 1.7 1.43 4.478 4.478 0 0 0 1.244-.336l2.065-.883v.485a8 8 0 0 1-.067 1.084 5.336 5.336 0 0 1-.734 2.8 1.443 1.443 0 0 0 0 1.517 1.418 1.418 0 0 0 1.244.784h.771a.908.908 0 0 0 .833-.522v-.112a1.779 1.779 0 0 0 .224-.51 31.094 31.094 0 0 0 .634-5.062c0-.585.087-1.157.137-1.729a.647.647 0 0 1 .162-.075 7.861 7.861 0 0 1 1.144-.41c.871-.249 1.754-.473 2.686-.721l1.244-.336a.92.92 0 0 0 .255-1.682 3.283 3.283 0 0 0-1.89-.6 13.1 13.1 0 0 0-2.114.261c-.46.1-.908.211-1.356.336 0-2.1.124-6.43.286-8.594.56.236 1.119.46 1.654.721s1.244.547 1.915.808 1.244.535 1.94.846a25.224 25.224 0 0 0 2.624 1.007c.4.137.8.261 1.244.41a6.89 6.89 0 0 0 2.226.51 3.868 3.868 0 0 1 .8.174h.171l1.716.535 1.878.51a1.207 1.207 0 0 0 1.567-.97.933.933 0 0 0 0-.522 2.487 2.487 0 0 0-1.614-1.364z"/>
        <path data-name="パス 3029" d="M777.589 673.608a5.6 5.6 0 0 0-1.244 0 9.428 9.428 0 0 0-3.73 1.368 9.31 9.31 0 0 1-.8.448 1.555 1.555 0 0 0-.9 1.791 5.385 5.385 0 0 0 .97 2.177l.149.2a1.555 1.555 0 0 0 .5 1.331 1.691 1.691 0 0 0 1.144.5 1.841 1.841 0 0 0 1.269-.51 16.044 16.044 0 0 1 2.885-1.853 1.679 1.679 0 0 0 .4-.323.933.933 0 0 0 .211-1.057l-.062-.137.162-.274a4 4 0 0 0 .336-.622 4.415 4.415 0 0 0 .323-1.082 1.729 1.729 0 0 0-.323-1.343 1.754 1.754 0 0 0-1.29-.614z"/>
        <path data-name="パス 3030" d="M758.415 662.825a36.624 36.624 0 0 0-1.592-1.244l-4.258-3.222-.174-.149v-.51a21.355 21.355 0 0 1 .224-3.735c1.691-.746 3.371-1.343 4.826-1.841a5.211 5.211 0 0 0 1.244-.622 2.239 2.239 0 0 0 .8-1.032 1.43 1.43 0 0 0-.187-1.368 1.468 1.468 0 0 0-1.244-.585 3.234 3.234 0 0 0-.883.249c-.174.062-.323.149-.485.224l-.323.162-2.55 1.094-.647.249c0-.323.087-.634.112-.945a3.445 3.445 0 0 0-.087-.983 1.567 1.567 0 0 0-1.721-1.24 1.455 1.455 0 0 0-1.243 1.12 2.575 2.575 0 0 0-.075.547v.124a9.838 9.838 0 0 0-.087 1.247 6.915 6.915 0 0 1-.112 1.4l-4.851 2.117-.46.2a1.443 1.443 0 0 0-.572 1.828 2.488 2.488 0 0 0 .274.46l.087.112a.933.933 0 0 0 .908.41 11.33 11.33 0 0 0 3.122-1.107c.386-.174.759-.348 1.132-.5a8.445 8.445 0 0 1-.124 1.766 1.244 1.244 0 0 1-.174.547c-.124.211-.274.41-.423.622a6.144 6.144 0 0 0-.757 1.245 10.958 10.958 0 0 1-.9 1.542 14.924 14.924 0 0 0-.871 1.468 15.535 15.535 0 0 1-1.082 1.754 16.766 16.766 0 0 0-1.244 1.99 7.462 7.462 0 0 1-1.03 1.68 1.6 1.6 0 0 0-.348.858v.137a.933.933 0 0 0 .448 1.057l.547.3a1.405 1.405 0 0 0 1.866-.435c.124-.174.236-.348.348-.535l.7-1.157 1.8-3.022.883-1.5.137-.236v.522a3.084 3.084 0 0 0 .075 1.331.734.734 0 0 1-.087.3 2.637 2.637 0 0 0-.2.858v.236a2.015 2.015 0 0 1 0 .274v.236a2.83 2.83 0 0 1-.1.908 5.832 5.832 0 0 0-.149.933c-.1.535-.2 1.082-.249 1.617-.087.821-.149 1.654-.211 2.487 0 .435-.062.871-.087 1.306a3.291 3.291 0 0 1-.087.871 7.088 7.088 0 0 0-.1 1.244v.7a5.535 5.535 0 0 1-.41 2.3 1.5 1.5 0 0 0 .721 2.027 1.866 1.866 0 0 0 .5.211.833.833 0 0 0 .348.075 1 1 0 0 0 .323-.062 1.828 1.828 0 0 0 1.242-1.675 3.259 3.259 0 0 1 .087-.92 16.678 16.678 0 0 0 .162-2.251 40.857 40.857 0 0 1 .174-4.1c.075-.734.162-1.468.249-2.2.124-1.07.261-2.139.348-3.2.112-1.48.2-2.948.274-4.428v-.908l5.523 4.125a.933.933 0 0 0 1.244-.1l.51-.535a.933.933 0 0 0 .162-1.07 5.224 5.224 0 0 0-1.216-1.653z"/>
        <path data-name="パス 3031" d="M779.703 664.877a4.726 4.726 0 0 0 .92-1.965 2.612 2.612 0 0 0-.46-2.139 2.376 2.376 0 0 0-1.84-.908 7.6 7.6 0 0 0-1.617.149h-.211a10.547 10.547 0 0 0-1.393.323l-.373.1a5.721 5.721 0 0 0-1.953.808 1.244 1.244 0 0 1-1.032.274 1.592 1.592 0 0 0-1.405.386 1.691 1.691 0 0 0-.485 1.592c.149.983.323 2.164.572 3.321a3.632 3.632 0 0 0 .672 1.331 1.107 1.107 0 0 1 .224.535 1.654 1.654 0 0 0 .92 1.331 1.617 1.617 0 0 0 .684.149 1.828 1.828 0 0 0 .983-.311 5.162 5.162 0 0 0 .535-.373l.547-.373a11.256 11.256 0 0 1 2.797-1.242 2.487 2.487 0 0 0 1.567-1.244.945.945 0 0 0-.112-1.057l.46-.609zm-2.848-1.642-1.24 1.99a.286.286 0 0 1-.112.087l-1.978.958a9.191 9.191 0 0 1-.2-1.654 7.811 7.811 0 0 1 3.022-1.244h.187z"/>
        <path data-name="パス 3032" d="m792.701 661.904-1.07-.808a1.58 1.58 0 0 0-.958-.373 2.3 2.3 0 0 1-.323-.174 4.714 4.714 0 0 0-.423-.249c-.286-.124-.572-.261-.871-.373l-.684-.261a6.728 6.728 0 0 1-1.132-.473c-.833-.473-1.691-.858-2.487-1.244s-1.393-.622-2.077-.983-1.306-.7-1.965-1.032l-1.766-.92 3.234-.983a2.139 2.139 0 0 0 1.356-.958 1.405 1.405 0 0 0-.124-1.716 1.592 1.592 0 0 0-1.244-.5 4.415 4.415 0 0 0-1.107.2l-1.418.435-1.527.473-1.094.286-.485.112-.634.211-.485.162-1.244-.9.311-.659c.224-.473.448-.933.659-1.418a5.212 5.212 0 0 0 .361-1.132 1.356 1.356 0 0 0-.075-.833l.6-.124c.846-.162 1.7-.336 2.487-.535a3.507 3.507 0 0 0 1.237-.57 1.555 1.555 0 0 0 .662-1.1 1.692 1.692 0 0 0-.423-1.343 1.555 1.555 0 0 0-1.791-.373 74.264 74.264 0 0 1-8.47 1.9h-.249a3.333 3.333 0 0 0-.759.224 1.368 1.368 0 0 0-.771 1.07 1.393 1.393 0 0 0 .473 1.244 2.226 2.226 0 0 0 1.94.585h.3c.236-.062.522-.137.821-.187l.721-.137c-.149.323-.286.659-.423.983s-.4.958-.622 1.43-.46.908-.709 1.368-.622 1.182-.908 1.8a.883.883 0 0 1-.759.535c-.622.124-1.244.286-1.853.435l-.771.187a2.388 2.388 0 0 0-.386.137 1.517 1.517 0 0 0-.846 1.244 1.542 1.542 0 0 0 .609 1.368c.162.124.348.236.522.348l.162.1a.92.92 0 0 0 .784.1h.149l-.435.721-.535.9a30.235 30.235 0 0 1-1.781 2.671l-.647.721c-.4.485-.8.97-1.157 1.492l-.124.124a1.318 1.318 0 0 0-.187.187l-.373.4-1.617 1.816a2.749 2.749 0 0 0-.373.622.933.933 0 0 0 .323 1.244 1.866 1.866 0 0 0 1.02.336 1.915 1.915 0 0 0 1.244-.56 28.98 28.98 0 0 0 2.487-2.637l.373-.435a40.82 40.82 0 0 0 3.731-4.975c.746-1.169 1.405-2.363 2.127-3.731a.734.734 0 0 1 .5-.423l2.562-.7a.473.473 0 0 1 .535.1 13.445 13.445 0 0 0 2.251 1.343l1.7.846a42.064 42.064 0 0 0 3.868 1.754c.7.249 1.381.547 2.052.858a28.218 28.218 0 0 0 2.674 1.082c.933.311 1.9.684 2.823 1.057l1.468.585a1.517 1.517 0 0 0 .684.062h.249a.933.933 0 0 0 .6-1.691z"/>
        <path data-name="パス 3033" d="M785.176 667.824a2.674 2.674 0 0 0-.784 0h-.3a7.749 7.749 0 0 0-2.1.41c-.3.1-.609.187-.908.261l-.8.2-.883.249-.336.124-.149.062a5.485 5.485 0 0 0-1.667.348l-.485.149a1.581 1.581 0 0 0-.448.149l-.373.112c-1.7.41-3.308.9-5.249 1.492l-.6.211a5.958 5.958 0 0 1-.759.249 6.928 6.928 0 0 0-1.928.684 1.567 1.567 0 0 0-1.405-.771 1.517 1.517 0 0 0-1.542 1.393v.174q-.137.684-.224 1.381a28.432 28.432 0 0 0-.187 6.219 7.562 7.562 0 0 0 .323 1.5 1.878 1.878 0 0 0 1.58 1.244 1.48 1.48 0 0 0 1.492-.634 1.368 1.368 0 0 0-.124-1.816c-.087-.087-.174-.224-.174-.659 0-1.045 0-2.1.062-3.159a3.344 3.344 0 0 1 .1-.995 1.692 1.692 0 0 0 .423-.286 6.007 6.007 0 0 1 2.184-1.139l1.53-.522a46.6 46.6 0 0 1 4.975-1.53.609.609 0 0 0 .211-.075 10.223 10.223 0 0 1 2.052-.647 12.513 12.513 0 0 0 1.965-.585 13.146 13.146 0 0 1 2.326-.659l.883-.174h.236a39.4 39.4 0 0 1 0 4.54 28.221 28.221 0 0 1-.672 5.286c-.261 1.057-.609 1.393-1.617 1.567h-.174a6.4 6.4 0 0 0-.846.187 1.629 1.629 0 0 0-.647.485l-.137.149a.908.908 0 0 0-.261.871.945.945 0 0 0 .609.684 1.244 1.244 0 0 1 .261.1 2.749 2.749 0 0 0 .8.211h.535a9.811 9.811 0 0 0 1.045-.062 3.383 3.383 0 0 0 3.02-2.337 14.017 14.017 0 0 0 .5-1.953 56.193 56.193 0 0 0 .759-8.308 19.552 19.552 0 0 0 0-2.313 2.065 2.065 0 0 0-2.089-2.065z"/>
        <path data-name="パス 3034" d="M901.068 649.914h-.124a4.826 4.826 0 0 0-1.43-.1h-1.169a8.518 8.518 0 0 0-1.853.137l-.609.075a27.537 27.537 0 0 0-3.955.721c-1.816.51-3.731 1.032-5.535 1.642a17.96 17.96 0 0 0-4.726 2.487 2.413 2.413 0 0 0-.535.535 1.741 1.741 0 0 0-1.841-.187 1.492 1.492 0 0 0-.7 1.978l.174.585q.149.56.336 1.119a20.3 20.3 0 0 0 1.729 4.278 4.079 4.079 0 0 0 2.214 1.878c1.169.4 1.542-.336 1.828-.883a1.107 1.107 0 0 0 0-.846 1.306 1.306 0 0 0-.249-.41 8.706 8.706 0 0 1-1.878-3.482c-.137-.473-.286-.945-.435-1.418a1.094 1.094 0 0 0 .746 0 1.157 1.157 0 0 0 .5-.311 8.035 8.035 0 0 1 3.122-1.866c1.542-.585 3.582-1.331 5.684-1.94a27.822 27.822 0 0 1 5.385-.858 9.265 9.265 0 0 1 1.032 0 12.5 12.5 0 0 1-.933 3.147 26.951 26.951 0 0 1-2 3.731l-.249.386a8.146 8.146 0 0 1-1.244 1.654 2.351 2.351 0 0 0-.5.684 1.741 1.741 0 0 0-.51 0l-1.144.174a7.786 7.786 0 0 1 .149-1.132h.3l.435.062a1.318 1.318 0 0 0 1.244-.672 1.244 1.244 0 0 0 0-1.418 2.637 2.637 0 0 0-1.032-.883 3.818 3.818 0 0 0-.572-.187.566.566 0 0 1 .1-.386 2.82 2.82 0 0 0 .174-.808 1.53 1.53 0 0 0-.311-1.244 1.555 1.555 0 0 0-1.244-.56 2.661 2.661 0 0 0-.672.1.933.933 0 0 0-.7.609v.174a4.975 4.975 0 0 0-.187.56c-.112.547-.224 1.094-.336 1.716a5.51 5.51 0 0 0-1.567.709c-.2.112-.4.236-.609.336a7.7 7.7 0 0 0-1.629 1.132 1.5 1.5 0 0 0-.585 1.331 1.691 1.691 0 0 0 .908 1.244 1.716 1.716 0 0 0 2.09-.261 4.614 4.614 0 0 1 1.07-.746v1.245a.943.943 0 0 1 0 .137l-.2.087a.746.746 0 0 1-.236.075l-.4.124a3.905 3.905 0 0 0-.734.311 1.5 1.5 0 0 0-.386 2.177 2.04 2.04 0 0 0 1.53.833l-.386 3.283-.286.187c-.485.249-.958.51-1.418.8a1.6 1.6 0 0 0-.684 1.866 1.691 1.691 0 0 0 1.816 1.045h.112v.535c0 .187-.075.634-.087.97-.41.137-.808.261-1.244.423a13.682 13.682 0 0 0-1.6.746 1.356 1.356 0 0 0-.684 1.244 1.418 1.418 0 0 0 .8 1.244 2.487 2.487 0 0 0 1.045.261 2.015 2.015 0 0 0 .945-.224 13.818 13.818 0 0 1 3.221-1.082l.348-.087a88.58 88.58 0 0 0 3.122-.746c1.244-.336 2.487-.709 3.856-1.119a4.49 4.49 0 0 0 1.244-.535l.187-.124a3.731 3.731 0 0 1 .933-.51.983.983 0 0 0 .709-.846.945.945 0 0 0-.2-.883.92.92 0 0 0-.846-.311c-1.244.211-2.488.522-3.731.821l-1.144.274c-1.8.435-2.973.709-3.731.808l.112-2.164v-.261c.647-.187 1.244-.361 1.928-.51a1.729 1.729 0 0 1 .983 0 1.331 1.331 0 0 0 1.741-.759 1.43 1.43 0 0 0 0-1.132 1.381 1.381 0 0 0-.846-.771 3.731 3.731 0 0 0-1.119-.249 10.907 10.907 0 0 0-1.9.174l-.5.075c.124-1.244.261-2.487.46-3.669a5.5 5.5 0 0 1 1.244-.585l.2-.075c.224-.087.46-.174.672-.274a2.052 2.052 0 0 0 .585-.41h.336a2.935 2.935 0 0 0 1.517-.609 11.815 11.815 0 0 0 2-2.376 24.129 24.129 0 0 0 3.868-9.278 4.413 4.413 0 0 0 .075-.97 1.542 1.542 0 0 0-1.381-1.766z"/>
        <path data-name="パス 3035" d="M938.343 662.252a1.866 1.866 0 0 0-1.7-1.244 2.487 2.487 0 0 0-.535 0h-.149a3.159 3.159 0 0 1-.485 0 8.9 8.9 0 0 0-2.487 0 21.466 21.466 0 0 1-2.637.2 16.231 16.231 0 0 0-3.134.261.249.249 0 0 0 0-.087 9.179 9.179 0 0 0-2.313-4.975 6.977 6.977 0 0 0-2.226-1.878l.274-.361c.3-.423.6-.833.883-1.244a13.582 13.582 0 0 0 1.617-3.321 5.211 5.211 0 0 0 .286-2.276 2.4 2.4 0 0 0-2.027-2.239 4.291 4.291 0 0 0-3.333.647c-.572.361-1.107.771-1.654 1.182l-.373.286a1.478 1.478 0 0 0-.162 2.363 3.519 3.519 0 0 0 .386.323l.162.124a.933.933 0 0 0 1.119 0l.336-.236.684-.485a7.139 7.139 0 0 1 1.58-.958 9.589 9.589 0 0 1-1.418 3.084 39.099 39.099 0 0 1-1.542 2.015l-.448.572a1.244 1.244 0 0 1-.224.224l-.224.2a2.127 2.127 0 0 0-.336.336 1.43 1.43 0 0 0-.286 1.169 1.53 1.53 0 0 0 .672 1.07 2.139 2.139 0 0 0 1.828.274c.336-.112.659-.087 1.318.4a7.114 7.114 0 0 1 1.468 1.691 6.107 6.107 0 0 1 1.095 2.9 4.975 4.975 0 0 1-.709.112 22.673 22.673 0 0 0-4.614.933l-1.6.473-.174.062c-.485.149-.97.3-1.443.473a1.517 1.517 0 0 0-1.007 1.779 1.492 1.492 0 0 0 1.48 1.107 3.731 3.731 0 0 0 1.692-.261 9.3 9.3 0 0 1 1.244-.435c1.53-.448 3.122-.8 4.652-1.132l.7-.149a20.622 20.622 0 0 1-.572 4.453l-.137.634a15.45 15.45 0 0 1-.9 2.885l-.149.386a4.067 4.067 0 0 1-.659 1.244 2.164 2.164 0 0 0-.386.684v.137l-.187.4a4.317 4.317 0 0 1-.323.684c-.784 1.244-1.58 2.376-2.4 3.532a6.842 6.842 0 0 1-.908.995c-.4.361-.522.4-1.007 0l-.124-.149a1.8 1.8 0 0 0-1.244-.821.908.908 0 0 0-.746.2.983.983 0 0 0-.336.7v.348a1.455 1.455 0 0 0 .261 1.58 4.38 4.38 0 0 0 .323.386 3.52 3.52 0 0 0 2.612 1.132h.249a3.445 3.445 0 0 0 2.637-1.468l.46-.659c.547-.784 1.094-1.58 1.617-2.376a34.7 34.7 0 0 0 2.885-5.162 27.8 27.8 0 0 0 2.077-9.564v-.771a36.554 36.554 0 0 1 9.291-.361.97.97 0 0 0 .883-.386l.1-.112a1.517 1.517 0 0 0 .447-1.53z"/>
        <path data-name="パス 3036" d="m847.289 648.646.162.124a.958.958 0 0 0 .995.087 28.843 28.843 0 0 1 3.905-1.729 12.432 12.432 0 0 1-.5 1.157 8.06 8.06 0 0 0-1.144 4.278.671.671 0 0 1-.087.162 1.8 1.8 0 0 0-.336 1.244 2.456 2.456 0 0 0 .124.585 1.978 1.978 0 0 1 .1.6 8.029 8.029 0 0 1-.087 1.443c-.087.485 0 1.094-.1 1.629a15.746 15.746 0 0 0 .174 3.992c.075.448.124.908.187 1.368l.137 1.157a6.272 6.272 0 0 0 .187 1.244 1.1 1.1 0 0 1 0 .336 1.43 1.43 0 0 0-.162 1.244 1.6 1.6 0 0 0 .958.945 1.791 1.791 0 0 0 .709.137 2.226 2.226 0 0 0 1.244-.46c.821-.609 1.654-1.244 2.487-1.766.323-.211.659-.41 1-.6l.162-.1h.162a2.276 2.276 0 0 0 2.724-2.065 3.158 3.158 0 0 1 .124-.684 19.588 19.588 0 0 0 .4-4.042c0-1.5.062-3.022.087-4.54v-2.264a5.51 5.51 0 0 0-.124-1.468 1.6 1.6 0 0 0-1.716-1.244h-.311a6.219 6.219 0 0 0-1.244.187 22.686 22.686 0 0 0-3.333 1.157 1.99 1.99 0 0 1 .137-.485c.5-1.169 1.045-2.3 1.53-3.259.609-1.244.609-1.244 1.978-1.567l2.052-.473 1.343-.3a4.154 4.154 0 0 0 .97-.311 1.642 1.642 0 0 0 .92-1.6 1.455 1.455 0 0 0-1.368-1.356 3.831 3.831 0 0 0-1.132 0l-.684.174-.5.124h-.224a1.468 1.468 0 0 0-.622-1.455 1.6 1.6 0 0 0-2.264.174 7.937 7.937 0 0 0-.609.833l-.5.759c-.236.336-.46.684-.746 1.07l-1.878.585-1.045.336a26.852 26.852 0 0 0-3.3 1.343l-.684.311a3.06 3.06 0 0 0-.659.386 1.443 1.443 0 0 0-.124 2.177 4.315 4.315 0 0 0 .522.423zm9.95 13.967c-.435.137-.846.3-1.244.46a3.5 3.5 0 0 1 1.281-.46zm-2.823-3 .5-.41c.224-.187.448-.373.684-.547a6.654 6.654 0 0 1 2.139-1.182v.473a5.733 5.733 0 0 0 0 1.032 6.977 6.977 0 0 1 0 .721 3.881 3.881 0 0 0-2.487.174c-.361.174-.734.323-1.107.485l-.572.236v-.547a1.978 1.978 0 0 0 .883-.435zm.423 3.992a8.345 8.345 0 0 0-1.032.647 6.039 6.039 0 0 0-.124-.734 2.152 2.152 0 0 0 1.194.087zm2.662-9.365a9.5 9.5 0 0 0-3.98 1.928v-.56a3.312 3.312 0 0 1 .087-.871 13.681 13.681 0 0 1 4.116-1.872v.236a8 8 0 0 1 0 1.082z"/>
        <path data-name="パス 3037" d="M867.674 678.21a2.96 2.96 0 0 0-.485-.51 22.404 22.404 0 0 0-1.443-.958l-2.985-1.8-1.356-.808-.149-.1a3.184 3.184 0 0 0-.56-.323 2.649 2.649 0 0 0-1.007-.174 1.43 1.43 0 0 0-1.095 2.3 2.935 2.935 0 0 0 .585.522 28.047 28.047 0 0 0 5.536 3.106l1.244.572a2.015 2.015 0 0 0 .373.137 1.43 1.43 0 0 0 .323 0 1.356 1.356 0 0 0 1.244-.945.908.908 0 0 0-.162-.945z"/>
        <path data-name="パス 3038" d="M849.415 674.317a20.149 20.149 0 0 1 4.129-2.114l1.244-.473 1.007-.4 3.209-1.244a4.974 4.974 0 0 1 .572-.162 17.238 17.238 0 0 0 2.363-.647 1.667 1.667 0 0 1 1.555 0 .933.933 0 0 0 .92 0 2.848 2.848 0 0 0 1.58-1.691 1.629 1.629 0 0 0-.162-1.356 1.468 1.468 0 0 0-1.107-.634 3.968 3.968 0 0 0-1.082 0 23.631 23.631 0 0 0-4.229.995 41.044 41.044 0 0 0-4.863 1.878l-.56.261a8.767 8.767 0 0 1-1.057.46 21.243 21.243 0 0 0-3.644 1.691c-.572.3-1.144.609-1.729.883a2.1 2.1 0 0 0-.473.336 1.43 1.43 0 0 0 .211 2.338 1.94 1.94 0 0 0 1.032.249 2.077 2.077 0 0 0 1.082-.373z"/>
        <path data-name="パス 3039" d="M855.796 674.59a1.642 1.642 0 0 0-1.953.547 6.864 6.864 0 0 0-.6.958 9.14 9.14 0 0 1-1.244 1.915 9 9 0 0 0-.933 1.331 9.664 9.664 0 0 1-1.492 1.953q-.485.5-.97 1.045l-.41.46a.933.933 0 0 0-.087 1.132 1.617 1.617 0 0 0 1.381.871 1.679 1.679 0 0 0 .585-.112 2.9 2.9 0 0 0 .97-.622l.336-.348a22.123 22.123 0 0 0 1.592-1.779 108.611 108.611 0 0 0 2.487-3.433l1.032-1.331a2.1 2.1 0 0 0 .249-.423 1.6 1.6 0 0 0 0-1.244 1.642 1.642 0 0 0-.945-.92z"/>
    </g>
</svg>
