<?xml version="1.0" encoding="utf-8"?>
<!-- Generator: Adobe Illustrator 25.4.1, SVG Export Plug-In . SVG Version: 6.00 Build 0)  -->
<svg version="1.1" id="img_00-2-2" xmlns="http://www.w3.org/2000/svg" xmlns:xlink="http://www.w3.org/1999/xlink" x="0px" y="0px"
	 viewBox="0 0 55 54" style="enable-background:new 0 0 55 54;" xml:space="preserve">
<style type="text/css">
	.st0{fill:none;}
	.st1{fill:#00AED4;}
	.st2{fill:#57C2E9;}
</style>
<path id="img_00-2-2-2" class="st0" d="M10,0h35c5.5,0,10,4.5,10,10v34c0,5.5-4.5,10-10,10H10C4.5,54,0,49.5,0,44V10
	C0,4.5,4.5,0,10,0z"/>
<g id="グループ_10766" transform="translate(2291.797 -2082.645)">
	<path id="パス_3079" class="st1" d="M-2237.3,2129.5c-0.6-0.4-1.4-0.9-1.7-1.1c-4.7-3-9.1-6.3-13.2-10c-1.5-1.3-6.3-6-7.3-7.2
		c-0.6-0.6-0.9-1.5-0.9-2.3c0-0.7,0.2-1.4,0.7-2l-1.2,1.2c-2.5,2.7-3.9,6.3-3.9,10c0,5.3,2.8,10.2,7.4,12.9c0.4,0.2,0.9,0.3,1.3,0.2
		l18.2,0c0.6,0,1-0.4,1-1C-2236.8,2130-2237,2129.7-2237.3,2129.5L-2237.3,2129.5z"/>
	<path id="パス_3080" class="st1" d="M-2262.1,2087.6c-4.9-0.1-9.5,1.9-12.8,5.5l0,0c-9,10.3-14.8,23-16.9,36.5
		c-0.1,0.8,0.4,1.6,1.3,1.7c0.1,0,0.1,0,0.2,0h10.8c0.7,0,1.3-0.5,1.5-1.2c1.2-7,3.7-13.6,7.3-19.7c1.7-2.9,3.6-5.6,5.8-8.1
		c0.1-0.1,0.5-0.5,0.5-0.5c0.2-0.2,0.4-0.4,0.6-0.5l0.1,0c0.2-0.2,0.5-0.3,0.7-0.5l0,0c0.2-0.1,0.5-0.3,0.7-0.4l0.1,0
		c0.2-0.1,0.5-0.2,0.8-0.3l0.1,0c0.3-0.1,0.5-0.2,0.8-0.3l0.1,0c0.3-0.1,0.5-0.1,0.8-0.2l0.1,0c0.3-0.1,0.6-0.1,0.8-0.1l0.1,0
		c0.3,0,0.6,0,0.9,0c5.3,0,9.7,4,10.2,9.3c0,0,0,0.4,0,0.5c0,0.1,0,0.4,0,0.5l0,0.3c0,1.9-0.6,3.7-1.6,5.2c-0.1,0.1-0.2,0.2-0.3,0.4
		l0,0.1c2.6-3.1,3.9-7.1,3.9-11.1C-2245.4,2095.2-2252.9,2087.8-2262.1,2087.6L-2262.1,2087.6z"/>
	<path id="パス_3081" class="st2" d="M-2262,2101.3c1.6,0.2,2.9,1.4,3.1,3c0.1,0.8-0.1,1.7-0.6,2.3l-0.2,0.3
		c-0.4,0.6-0.7,1.3-0.7,2c0,0.8,0.3,1.7,0.9,2.3c0.9,1.1,5.8,5.8,7.3,7.2c1.4-0.9,2.5-2,3.4-3.3c1.1-1.6,1.6-3.6,1.6-5.5
		c0-5.7-4.6-10.3-10.3-10.3c0,0,0,0,0,0c-2.5,0-5,0.9-6.8,2.6l-0.3,0.3C-2263.9,2101.5-2263,2101.2-2262,2101.3L-2262,2101.3z"/>
</g>
</svg>
