<svg xmlns="http://www.w3.org/2000/svg" width="158" height="42">
    <defs>
        <clipPath id="clip-path">
            <path id="長方形_883" data-name="長方形 883" transform="translate(64 19)" style="fill:#d3d9e5" d="M0 0h158v42H0z"/>
        </clipPath>
        <style>
            .cls-3{fill:#59b9dd}.cls-4{fill:#57c3ea}.cls-5{fill:#19a4c7}.cls-6{fill:#00afd5}.cls-7{fill:#fff}.cls-8{fill:#070102}
        </style>
    </defs>
    <g id="img_logo_rooms" transform="translate(-64 -19)" style="clip-path:url(#clip-path)">
        <g id="design" transform="translate(63.965 18.989)">
            <path id="パス_2953" data-name="パス 2953" class="cls-3" d="M20.817 41.855a4.6 4.6 0 0 1-.547.1c.179-.019.357-.066.547-.1z"/>
            <path id="パス_2954" data-name="パス 2954" class="cls-3" d="M2.481 33.089z"/>
            <path id="パス_2955" data-name="パス 2955" class="cls-3" d="M2.168 32.832c-.1-.089-.189-.179-.279-.267.09.088.19.178.279.267z"/>
            <path id="パス_2956" data-name="パス 2956" class="cls-3" d="M1.889 32.553a6.814 6.814 0 0 1-1-1.329 5.843 5.843 0 0 0 1 1.329z"/>
            <path id="パス_2957" data-name="パス 2957" class="cls-3" d="M21.487 41.665a11.2 11.2 0 0 1-.537.157 5.056 5.056 0 0 0 .537-.157z"/>
            <path id="パス_2958" data-name="パス 2958" class="cls-3" d="M17.567 41.732c-.111-.033-.213-.067-.324-.1.114.033.224.068.324.1z"/>
            <path id="パス_2959" data-name="パス 2959" class="cls-3" d="M17.087 41.565c-.1-.044-.213-.09-.313-.134.112.044.213.089.313.134z"/>
            <path id="パス_2960" data-name="パス 2960" class="cls-3" d="M2.816 33.335a2.9 2.9 0 0 1-.291-.212c.09.071.19.145.291.212z"/>
            <path id="パス_2961" data-name="パス 2961" class="cls-3" d="M18.182 41.889c-.157-.034-.313-.067-.47-.113.152.033.313.079.47.113z"/>
            <path id="パス_2962" data-name="パス 2962" class="cls-3" d="M16.64 41.363a4.055 4.055 0 0 1-.435-.234 4.055 4.055 0 0 0 .435.234z"/>
            <path id="パス_2963" data-name="パス 2963" class="cls-3" d="M20.258 41.955a6.884 6.884 0 0 1-.837.056 6.606 6.606 0 0 0 .837-.056z"/>
            <path id="パス_2964" data-name="パス 2964" class="cls-4" d="M35.736 8.813 22.759.94a6.422 6.422 0 0 0-6.659 0L3.128 8.813a6.416 6.416 0 0 0-3.093 5.482v13.758a6.366 6.366 0 0 0 .851 3.183L19.435 19.99l6.264 3.8a3.534 3.534 0 0 1 1.267-1.39l3.734-2.382a1.656 1.656 0 0 1 2.547 1.394v6.957l4.735 2.87a6.668 6.668 0 0 1-1.3 1.608 6.41 6.41 0 0 0 2.145-4.79V14.295a6.454 6.454 0 0 0-3.094-5.482z"/>
            <path id="パス_2965" data-name="パス 2965" class="cls-3" d="M2.872 33.369a4.25 4.25 0 0 0 .369.223l12.976 7.537-12.976-7.537a3.024 3.024 0 0 1-.369-.223z"/>
            <path id="パス_2966" data-name="パス 2966" class="cls-3" d="m33.235 34.988 2.389-1.388c.127-.067.246-.146.369-.224a3.964 3.964 0 0 1-.369.224z"/>
            <path id="パス_2967" data-name="パス 2967" class="cls-3" d="M22.012 41.465c-.179.077-.346.144-.525.212.178-.068.358-.146.525-.212z"/>
            <path id="パス_2968" data-name="パス 2968" class="cls-3" d="M36.663 32.854c-.09.079-.19.156-.28.234.09-.078.19-.155.28-.234z"/>
            <path id="パス_2969" data-name="パス 2969" class="cls-3" d="M22.648 41.14c-.167.1-.334.179-.507.269.172-.09.351-.179.507-.269z"/>
            <path id="パス_2970" data-name="パス 2970" class="cls-3" d="M36.339 33.123a3.312 3.312 0 0 1-.313.223c.101-.078.209-.146.313-.223z"/>
            <path id="パス_2971" data-name="パス 2971" class="cls-5" d="M18.182 41.889a7.065 7.065 0 0 0 .826.111 7.064 7.064 0 0 1-.826-.111z"/>
            <path id="パス_2972" data-name="パス 2972" class="cls-5" d="M36.673 32.832c-.01 0-.01.011-.022.011.012 0 .022 0 .022-.011z"/>
            <path id="パス_2973" data-name="パス 2973" class="cls-5" d="M17.712 41.776c-.044-.01-.1-.033-.144-.044a.585.585 0 0 1 .144.044z"/>
            <path id="パス_2974" data-name="パス 2974" class="cls-5" d="m20.95 41.822-.133.033z"/>
            <path id="パス_2975" data-name="パス 2975" class="cls-5" d="M36.383 33.089c-.01.011-.033.023-.044.034a.168.168 0 0 1 .044-.034z"/>
            <path id="パス_2976" data-name="パス 2976" class="cls-5" d="M22.146 41.4a.8.8 0 0 1-.134.056.8.8 0 0 0 .134-.056z"/>
            <path id="パス_2977" data-name="パス 2977" class="cls-5" d="M36.026 33.346c-.011.011-.022.023-.033.023.007-.012.021-.012.033-.023z"/>
            <path id="パス_2978" data-name="パス 2978" class="cls-5" d="m22.648 41.14 2.647-1.54z"/>
            <path id="パス_2979" data-name="パス 2979" class="cls-5" d="m2.191 32.854-.023-.023a.024.024 0 0 1 .023.023z"/>
            <path id="パス_2980" data-name="パス 2980" class="cls-5" d="M17.255 41.621c-.056-.023-.111-.033-.156-.056a.634.634 0 0 0 .156.056z"/>
            <path id="パス_2981" data-name="パス 2981" class="cls-5" d="M2.872 33.369a.157.157 0 0 1-.046-.034.157.157 0 0 0 .046.034z"/>
            <path id="パス_2982" data-name="パス 2982" class="cls-5" d="m16.774 41.429-.134-.067z"/>
            <path id="パス_2983" data-name="パス 2983" class="cls-5" d="M2.525 33.123c-.01-.011-.033-.023-.044-.034a.169.169 0 0 0 .044.034z"/>
            <path id="パス_2984" data-name="パス 2984" class="cls-6" d="M25.295 25.385a3.6 3.6 0 0 1 .391-1.609l-6.265-3.8L.873 31.224a6.814 6.814 0 0 0 1 1.329c.09.09.19.179.28.269l.022.022c.09.079.19.157.28.234.01.011.033.023.044.034.1.077.19.144.29.212a.149.149 0 0 1 .044.034 4.25 4.25 0 0 0 .369.223l12.976 7.537.436.234.133.067c.1.046.213.09.313.134a.864.864 0 0 0 .157.056c.111.034.212.079.323.1.044.01.1.033.146.044.156.044.313.077.469.111a7.094 7.094 0 0 0 .826.111c.134.011.28.011.413.011a7.131 7.131 0 0 0 .837-.056 4.221 4.221 0 0 0 .547-.1l.134-.033a4.745 4.745 0 0 0 .536-.156 4.207 4.207 0 0 0 .525-.213c.046-.022.09-.033.134-.056.167-.079.346-.167.514-.267l2.645-1.542V25.385z"/>
            <path id="パス_2985" data-name="パス 2985" class="cls-6" d="m37.981 31.235-4.735-2.87V35l2.389-1.385c.127-.066.246-.144.369-.223a.052.052 0 0 1 .033-.022c.1-.067.213-.146.313-.224.011-.011.033-.022.044-.033.1-.079.19-.157.279-.234.011 0 .011-.011.023-.011a7.826 7.826 0 0 0 1.285-1.631z"/>
            <path id="パス_2986" data-name="パス 2986" class="cls-7" d="M29.962 36.886 25.295 39.6v.111l7.94-4.59v-.134l-2.747 1.6z"/>
            <path id="パス_2987" data-name="パス 2987" class="cls-7" d="m30.488 36.584 2.747-1.6z"/>
            <path id="パス_2988" data-name="パス 2988" class="cls-7" d="M33.235 21.4a1.657 1.657 0 0 0-2.547-1.4l-3.74 2.377a3.607 3.607 0 0 0-1.267 1.394l7.548 4.579V21.4z"/>
            <path id="パス_2989" data-name="パス 2989" class="cls-7" d="M30.488 36.584 25.295 39.6l4.667-2.714z"/>
            <path id="パス_2990" data-name="パス 2990" class="cls-4" d="m25.295 39.6 5.194-3.015 2.747-1.6v-6.631l-7.548-4.579a3.6 3.6 0 0 0-.391 1.609z"/>
            <path id="パス_2991" data-name="パス 2991" class="cls-8" d="M138.467 22.178a15.658 15.658 0 0 0-.507-2.626l1.325-.4a16.939 16.939 0 0 1 .556 2.885z"/>
            <path id="パス_2992" data-name="パス 2992" class="cls-8" d="M140.646 22.552a24.584 24.584 0 0 0-.431-2.671l1.349-.317a25.708 25.708 0 0 1 .46 2.842z"/>
            <path id="パス_2993" data-name="パス 2993" class="cls-8" d="M56.771 17.459a4.956 4.956 0 0 0 .924-2.889v-2.359h-9.106v2.094H55.6v.265a2.887 2.887 0 0 1-2.885 2.884h-6.137v2.094h5.586v6.335a2.183 2.183 0 0 1-2.18 2.18v2.094a4.28 4.28 0 0 0 4.275-4.275v-6.334h3.5v.35a2.338 2.338 0 0 1-2.335 2.334v2.1a4.434 4.434 0 0 0 4.434-4.434v-2.439z"/>
            <path id="パス_2994" data-name="パス 2994" class="cls-8" d="M75.13 14.585a11.061 11.061 0 0 0 .334-2.392h-2.1a10.581 10.581 0 0 1-2.122 5.8l1.647 1.29a11.891 11.891 0 0 0 1.533-2.6h1.858v9.978a1.116 1.116 0 0 1-1.115 1.115h-1.919v2.1h1.924a3.214 3.214 0 0 0 3.21-3.21V14.589z"/>
            <path id="パス_2995" data-name="パス 2995" class="cls-8" d="M63.347 28.225h2.141l.806-3.816h-2.14z"/>
            <path id="パス_2996" data-name="パス 2996" class="cls-8" d="m69.758 24.409.806 3.816h2.141l-.805-3.816z"/>
            <path id="パス_2997" data-name="パス 2997" class="cls-8" d="M74.277 20.71h-2.141l.806 3.815h2.141z"/>
            <path id="パス_2998" data-name="パス 2998" class="cls-8" d="M71.4 19.565h-2.09v1.116h-1.541l3.492-5.481h-2.483l-1.064 1.67-.668-.484 2.578-4.067h-2.48l-2.92 4.607 2.36 1.714-2.634 4.137h3v7.089h2.094v-7.089H71.4z"/>
            <path id="パス_2999" data-name="パス 2999" class="cls-8" d="M88.7 28.38V13.43h2.094V26.1a5.627 5.627 0 0 0 3.8-3.319l1.924.825a7.755 7.755 0 0 1-6.759 4.762z"/>
            <path id="パス_3000" data-name="パス 3000" class="cls-8" d="M84.517 13.43c.127 3.446-.152 11.536-2.81 14.2l1.482 1.481c1.723-1.727 2.815-5.013 3.247-9.771a51.213 51.213 0 0 0 .175-5.908z"/>
            <path id="パス_3001" data-name="パス 3001" class="cls-8" d="M127.1 28.633h2.816a64.124 64.124 0 0 0 4.442-5.69 14.154 14.154 0 0 1 4.029 5.69h2.222a15.945 15.945 0 0 0-5.083-7.446 38.668 38.668 0 0 0 3.371-6.3l.549-1.423h-11.095v2.094h7.949a56.194 56.194 0 0 1-9.2 13.075z"/>
            <path id="パス_3002" data-name="パス 3002" class="cls-8" d="M122.233 21.631h-2.2c.327.976.875 2.734 1.288 4.413H113.3l4.921-12.614h-2.249l-5.738 14.709h11.515a8.1 8.1 0 0 1 .114 1.21h2.094c.004-2.083-1.157-5.96-1.724-7.718z"/>
            <path id="長方形_960" data-name="長方形 960" class="cls-8" transform="translate(98.605 19.982)" d="M0 0h10.593v2.094H0z"/>
        </g>
    </g>
</svg>
