<svg xmlns="http://www.w3.org/2000/svg" width="170" height="51">
    <defs>
        <clipPath id="a">
            <path data-name="長方形 949" transform="translate(742 661.209)" style="fill:#fff;stroke:#707070" d="M0 0h170v51H0z"/>
        </clipPath>
    </defs>
    <g transform="translate(-742 -661.209)" style="clip-path:url(#a)">
        <path data-name="パス 3040" d="M874.886 687.23a14.559 14.559 0 0 1-4.8 1.6c-.933 0-1.866-1.2-3.066-2.133 2.266-1.066 4.265-2 6.264-2.932 1.333-.533 2.532-1.2 2.133-3.066-.267-1.6-.4-3.2-.533-4.8 1.866-.933 4.532 1.333 4.8 4.4l3.6 1.333.133.666a18.306 18.306 0 0 1-2.666 1.733 2.123 2.123 0 0 0-1.6 2c-.4 3.332-.8 6.8-1.2 10.13l23.058-9.063-.8-2.133c-2.4.267-3.465-.4-4-2.266-2.133.4-2.266.533-2.532 3.332.533.133 1.2.267 1.733.4a11.722 11.722 0 0 1 1.333.8c-.666 2-2.4 1.466-3.6 2-1.6.666-3.332 1.066-5.065 1.866-2.266.933-3.465.4-4.665-1.866l1.6-1.066c-1.866-1.6-1.066-3.465-.933-5.2s.267-3.6.267-5.731a15.391 15.391 0 0 1 2.133.267c3.066.666 4.132-.133 4.4-3.465a18.872 18.872 0 0 0-2.666.533c-2.266.666-2.8.533-4.265-1.6-.267-.267-.4-.533-.666-.666 1.866-.533 3.6-.933 5.331-1.333 2.532-.8 2.8-1.333 2.133-3.865-.133-.533-.133-1.066-.267-1.6 2.666-.267 4 .933 4.4 3.732l4.132 1.466v.666c-.666.4-1.333 1.066-2 1.066-1.733.133-2.266.933-2.133 2.266 1.466.133 2.932.4 4.265.533 2.266 0 2.532 1.733 2.4 3.2a38.6 38.6 0 0 1-.8 5.465c.8.933 3.066.4 3.2 2.666 2.666-.533 5.2-1.6 7.864 0 .4.267.533.8.8 1.333l-7.731 1.733c0 8.4-3.732 14.795-9.463 20.259-1.466 1.466-3.732.933-5.465-1.066 3.6-1.333 5.6-4.4 7.331-7.464a20.215 20.215 0 0 0 3.465-10.53c-2.932 1.2-5.465 2-8.264 3.066-4.4 1.866-8.664 3.732-12.929 5.6a12 12 0 0 1-2.133.4c-.267 2-.666 4-.8 6 0 .933.267 2.133-1.2 2.4a3.124 3.124 0 0 1-2.8-2.8c.133-2 .4-4.132.533-6.131.267-2.932.666-6 1.066-8.93a13.685 13.685 0 0 0 .668-3.205zm15.061-.267-.4-2.133-1.466-.267-.133 2.8zm4.665-7.731.133.4 2.8.666.267-2.4z"/>
        <path data-name="パス 3041" d="M774.921 665.638a4.787 4.787 0 0 1-1.333.933c-2.4 1.066-4.932 2-7.2 3.2-.933.533-1.2 2-1.733 2.932a16.115 16.115 0 0 0-.666 2.4h.8c4.532-.133 5.2.933 5.2 5.065 0 2.266.133 4.532 0 6.931-.133 1.6-.4 3.2-.533 4.8s-.933 1.6-1.866 1.2a2.621 2.621 0 0 0-2.932.267c-2.4 1.466-4.8 2.932-7.064 4.4-1.333.8-2.4.533-4.4-1.333l1.733-1.466h-.4c.133-1.733.267-3.6.533-5.331.4-2.266 1.066-4.532 1.6-6.8.4-1.333-.8-2.8.533-3.865a21.214 21.214 0 0 1 2.932-1.733l.533-4.532-8 4.8a15.2 15.2 0 0 1-2.528 1.327c-2 .666-2.666-1.066-3.732-2.133 4.932-2.666 9.73-5.331 14.528-8.13a2.207 2.207 0 0 0 .666-1.6 13.132 13.132 0 0 0-.267-2.266c1.066.267 2.133.267 2.666.8 1.2 1.066 2.133.666 3.332.267a16.356 16.356 0 0 1 3.465-1.6 13.96 13.96 0 0 1 4 .666zm-9.063 12.928c-3.2.8-4.932 2.133-4.932 3.6.8-.267 1.733-.533 2.666-.8s1.733-.4 2.666-.666zm.133 5.6c-5.2 1.6-6 2.133-5.865 3.332l5.865-1.6z"/>
        <path data-name="パス 3042" d="M797.314 689.362a11.681 11.681 0 0 1 7.6-3.332 13.54 13.54 0 0 1 4.532.8c2.666.933 3.066 1.733 2.932 4.532-.267 4.665-2.532 8.664-4.8 12.529-2.932 4.8-8.264 4.132-12 2.133a13.436 13.436 0 0 1-2.532-2.266c.8.133 1.733.267 2.532.4 3.732 1.2 6.264.666 8.4-2.4a23.1 23.1 0 0 0 4.4-10.13c.133-1.066 0-2.133.133-3.332-4 .133-6.664 2.266-9.463 4.265a14.266 14.266 0 0 0-2.134 1.869c-2.133 2-3.2 1.733-5.465-.666a114.795 114.795 0 0 1 2.133-6.264c.8-1.866.933-3.332-1.066-4.532l12.262-5.338 1.066-5.2c-2.932 1.6-5.465 2.8-7.864 4.265-2.266 1.2-3.332.933-4.8-1.6a26.433 26.433 0 0 1 2.668-1.465c3.6-1.733 7.331-3.465 11.063-4.932.933-.4 2.4.4 3.6.8.267 0 .4.8.4 1.066-.666 2.666-1.2 5.2-2 7.864a2.67 2.67 0 0 1-1.333 1.6c-2.4 1.333-5.065 2.4-7.464 3.732-1.867 1.337-2.534 3.203-2.8 5.602z"/>
        <path data-name="パス 3043" d="M821.436 687.23c2.4-1.333 4.665-2.932 7.064-4 2.932-1.333 6.131-2.266 9.063-3.6 9.2 0 .8-1.466.933-2.4-2.266.8-3.2.4-4.532-1.866l1.6-1.466-2.8-3.6a49.537 49.537 0 0 0 6.4-3.6c.533-.4.4-1.866.133-2.8a17.8 17.8 0 0 0-.933-2.4 4.463 4.463 0 0 1 5.065 3.066 6.042 6.042 0 0 1 6.131 1.066 2.311 2.311 0 0 1 .8 2.932 19.827 19.827 0 0 1-3.066 5.2 2.685 2.685 0 0 1-3.332 1.066c-.4-.133-1.2.533-1.466 1.066a8.37 8.37 0 0 0-.4 2.532c4.132-.933 8-1.733 11.862-2.8a4.6 4.6 0 0 1 4.132.8c1.066.666.267 1.466-.533 1.733a339.034 339.034 0 0 1-5.731 1.6c-4.93 1.073-9.99 1.873-14.79 3.473a58.024 58.024 0 0 0-10.8 5.331c-2 1.333-2.932 1.333-4.8-1.333zm21.861-16.261c2-.4 2.532-.933 2.932-3.2-2.665.535-2.799.801-2.932 3.2z"/>
        <path data-name="パス 3044" d="M842.097 700.957c.133.267.133.4.267.4 2.932 1.466 3.2 2.4 1.066 5.065-1.6 1.866-3.332 3.6-5.065 5.331-1.2 1.066-2.133 0-2.932-.533-1.066-.8.133-1.333.533-1.866 1.333-1.6 2.8-3.2 4-4.932a17.349 17.349 0 0 0 1.065-2.265c-.533.133-.8 0-.933.133-1.6 1.866-3.332.8-4.8-.133-1.6-.8-1.2-2.4-1.066-3.6.4-3.2 1.466-6.531 1.333-9.73-.133-4.132 3.465-3.6 5.465-4.932a7.1 7.1 0 0 1 6.131-.533 4.559 4.559 0 0 1 3.332 4.4c.133 3.2.267 6.4.533 9.463.133 1.466-.4 1.733-1.733 1.333a1.5 1.5 0 0 0-1.066-.133 44.846 44.846 0 0 0-6.13 2.532zm-4-2.133 8.264-3.332v-1.465l-8 2.666zm1.468-10.262.133.4 6-1.333-.133-2.4z"/>
        <path data-name="パス 3045" d="M742 708.423a59.344 59.344 0 0 1 6.8-4.4c4.132-2.133 8.53-4.265 12.929-6.131 4.132-1.733 8.264-3.2 12.4-4.665a4.237 4.237 0 0 1 4.932.933 5.918 5.918 0 0 1-1.466 1.066 597.974 597.974 0 0 1-12.529 4.932 11.466 11.466 0 0 1 .133 2.133c-.4 1.866-.933 3.732-1.466 5.6-.267.933-.666 1.333-1.733.933-2.532-.933-3.066-1.866-2-4.265a19.321 19.321 0 0 0 .8-2.532c-4.665 2.133-9.2 4-13.062 6.931-2.672 1.864-2.806 1.864-5.738-.535z"/>
        <path data-name="パス 3046" d="M910.207 674.034c-.8-.8-1.733-1.333-2-2.133-.8-2.932-1.2-6-1.866-9.2 2.133.8 3.865 1.2 4.265 3.332.401 2.537 1.867 5.202-.399 8.001z"/>
        <path data-name="パス 3047" d="M773.853 708.022c-3.332.133-6-4.932-4.665-8a6.69 6.69 0 0 1 1.6.267c2.133.4 2.4 2.266 2.8 3.865a12.333 12.333 0 0 1 .265 3.868z"/>
        <path data-name="パス 3048" d="M888.215 695.76a7.264 7.264 0 0 1 2.932.666c1.866 1.333 3.6 2.932 5.465 4.532-2.266 1.599-6.798-1.066-8.397-5.198z"/>
        <path data-name="パス 3049" d="M847.696 704.823c.666.8 1.066 1.333 1.6 1.866a9.94 9.94 0 0 1 .933 1.6 11.53 11.53 0 0 1 .932 2.262 10.589 10.589 0 0 1-2.932-.8 7.749 7.749 0 0 1-2.266-2.4 7.118 7.118 0 0 1-.666-2.4z"/>
    </g>
</svg>
