<svg id="reception_Clients_logo16" xmlns="http://www.w3.org/2000/svg" width="143" height="83">
    <defs>
        <clipPath id="clip-path">
            <path id="長方形_4634" data-name="長方形 4634" transform="translate(0 20)" style="fill:#f1f5f9" d="M0 0h143v43H0z"/>
        </clipPath>
        <style>
            .cls-4,.cls-5{fill:#0d224d}.cls-4{fill-rule:evenodd}
        </style>
    </defs>
    <path id="長方形_860" data-name="長方形 860" style="fill:#fff" d="M0 0h143v83H0z"/>
    <g id="マスクグループ_11700" data-name="マスクグループ 11700" style="clip-path:url(#clip-path)">
        <g id="グループ_14308" data-name="グループ 14308" transform="translate(-3953.765 -2332.002)">
            <g id="グループ_14307" data-name="グループ 14307" transform="translate(3985.914 2352.002)">
                <g id="グループ_14305" data-name="グループ 14305" transform="translate(.313)">
                    <g id="グループ_14304" data-name="グループ 14304">
                        <g id="グループ_14303" data-name="グループ 14303">
                            <g id="グループ_14302" data-name="グループ 14302">
                                <g id="グループ_14300" data-name="グループ 14300" transform="translate(34.863)">
                                    <path id="パス_48766" data-name="パス 48766" class="cls-4" d="M4273.978 2359.8a3.9 3.9 0 1 0-4.058-3.9 3.978 3.978 0 0 0 4.058 3.9z" transform="translate(-4269.92 -2352.002)"/>
                                </g>
                                <path id="パス_48767" data-name="パス 48767" class="cls-4" d="M4160.671 2429.643v12.432h5.778v-15.81s2.4-.355 2.4 2.98v2.788l5.145-5s1.17-4.247-3.794-6.548z" transform="translate(-4139.339 -2412.002)"/>
                                <g id="グループ_14301" data-name="グループ 14301" transform="translate(36.096 8.596)">
                                    <path id="パス_48768" data-name="パス 48768" class="cls-4" d="M4285.452 2421.405v21.482h-5.575v-16.215z" transform="translate(-4279.877 -2421.405)"/>
                                </g>
                                <path id="パス_48769" data-name="パス 48769" class="cls-4" d="M4356.917 2432.934c0 9.555-3.51 11.18-7.895 11.18-10.422 0-8.308-10.565-8.308-13.8l8.052-7.73c4.183.001 8.151 1.135 8.151 10.35zm-8.267-7.091c-1.363 0-2.276 2.465-2.276 7.269s.663 8.262 2.446 8.262 2.312-2.779 2.312-8.34-1.117-7.191-2.482-7.191z" transform="translate(-4296.93 -2413.843)"/>
                                <path id="パス_48770" data-name="パス 48770" class="cls-4" d="m4008.764 2410.393-12.025 11.483c-1.08 0-8.279.008-8.279-11.508-.5-13.664 7.568-12.949 10.3-12.949 12.283-.674 10.004 12.974 10.004 12.974zm-10.13-9.4c-1.572 0-2.648 1.744-2.648 7.468s.7 8.748 2.73 8.748 2.567-3.228 2.567-8.789-.746-7.427-2.649-7.427z" transform="translate(-3988.438 -2391.773)"/>
                                <path id="パス_48771" data-name="パス 48771" class="cls-4" d="M4494.739 2407.59s4.236.248 4.236 5.551l-.007 13.588h5.831l-.013-15.306c0-2.465-2.211-7.379-7-8.459l-8.62 8.27v15.5h5.7v-19.064" transform="translate(-4427.147 -2396.651)"/>
                            </g>
                        </g>
                    </g>
                </g>
                <g id="グループ_14306" data-name="グループ 14306" transform="translate(0 36.639)">
                    <path id="パス_48772" data-name="パス 48772" class="cls-5" d="M3989.409 2648.728a4.977 4.977 0 0 0-.042.657 6.755 6.755 0 0 0 .189 1.594 5.632 5.632 0 0 0 1.006 1.923 6.248 6.248 0 0 0 .951.909 3.673 3.673 0 0 0 .678.44 2.146 2.146 0 0 0-.461.629 6.01 6.01 0 0 1-2.67-3.67 5.442 5.442 0 0 1-2.677 3.67 1.778 1.778 0 0 0-.468-.587 4.606 4.606 0 0 0 1.587-1.258 5.53 5.53 0 0 0 1.188-3.733 4.637 4.637 0 0 0-.028-.573z" transform="translate(-3985.914 -2648.616)"/>
                    <path id="パス_48773" data-name="パス 48773" class="cls-5" d="M4041.456 2650.948a1.845 1.845 0 0 1 .923-.287.886.886 0 0 1 .964.755 22.608 22.608 0 0 1 1.867-.636 1.84 1.84 0 0 1 .188.664 17.612 17.612 0 0 0-1.978.587c.028.4.042.783.049 1.238a2.139 2.139 0 0 1-.643.007c0-.405-.007-.7-.021-.992-.846.384-1.1.727-1.1 1.048s.293.524 1.161.524a8.354 8.354 0 0 0 1.929-.252 1.794 1.794 0 0 1 .1.594v.105a10.141 10.141 0 0 1-2.027.2c-1.28 0-1.839-.406-1.839-1.1 0-.566.448-1.182 1.72-1.741-.062-.37-.2-.468-.476-.468-.433 0-1.1.35-2.118 1.272a1.308 1.308 0 0 1-.42-.475 7.523 7.523 0 0 0 1.587-1.936c-.454.021-.895.028-1.328.035a2.352 2.352 0 0 1-.021-.315 2.273 2.273 0 0 1 .021-.315h.406c.405 0 .818-.007 1.23-.021a7.885 7.885 0 0 0 .385-.993 1.814 1.814 0 0 1 .678.168c-.112.265-.238.545-.356.79.6-.042 1.2-.091 1.8-.168a2.111 2.111 0 0 1 .042.427 1.624 1.624 0 0 1-.007.189c-.706.063-1.426.126-2.139.168a7.633 7.633 0 0 1-.587.909z" transform="translate(-4033.063 -2648.368)"/>
                    <path id="パス_48774" data-name="パス 48774" class="cls-5" d="M4090.409 2682.988a7.484 7.484 0 0 1 1.538 1.44 2.481 2.481 0 0 1-.539.538 7.027 7.027 0 0 0-1.5-1.489 2.577 2.577 0 0 1 .501-.489z" transform="translate(-4077.025 -2678.633)"/>
                    <path id="パス_48775" data-name="パス 48775" class="cls-5" d="M4113.522 2652.592a3.845 3.845 0 0 1-.867.65 1.775 1.775 0 0 0-.245-.322c-.146.07-.182.091-.392.182l-.489.216c-.084.035-.175.077-.265.112l-.406.168-.126-.678a4.344 4.344 0 0 0 .8-.23v-1.929h-.238a4.15 4.15 0 0 0-.552.035v-.622a4.013 4.013 0 0 0 .559.035h.231v-.888a6.264 6.264 0 0 0-.042-.762h.671a5.2 5.2 0 0 0-.035.762v.888h.14a3.281 3.281 0 0 0 .517-.028v.608a3.84 3.84 0 0 0-.517-.028h-.14v1.691c.2-.084.287-.125.49-.224l-.007.419a2.791 2.791 0 0 0 .951-.916h-.266a4.039 4.039 0 0 0-.622.035v-.581a4 4 0 0 0 .629.035h2.971a4.094 4.094 0 0 0 .7-.042v.58a7.173 7.173 0 0 0-.7-.028h-2.09a2.933 2.933 0 0 1-.251.377h2.223a5.536 5.536 0 0 0 .671-.028 3.894 3.894 0 0 0-.035.413 5.705 5.705 0 0 1-.308 1.874c-.133.259-.335.335-.839.335-.189 0-.392-.007-.6-.021a1.543 1.543 0 0 0-.2-.608 5.767 5.767 0 0 0 .811.07c.189 0 .294-.042.329-.126a4.945 4.945 0 0 0 .217-1.426h-.335a4.37 4.37 0 0 1-.657 1.063 5.31 5.31 0 0 1-1.447 1.146 1.583 1.583 0 0 0-.419-.441 3.775 3.775 0 0 0 1.936-1.768h-.517a4.518 4.518 0 0 1-1.894 1.587 1.657 1.657 0 0 0-.378-.441 3.823 3.823 0 0 0 1.643-1.146zm.2-1.727a3.978 3.978 0 0 0-.622.028c.014-.154.021-.364.028-.644v-.958c-.007-.322-.007-.426-.028-.608a4.236 4.236 0 0 0 .678.035h1.922a5.833 5.833 0 0 0 .728-.035 4.97 4.97 0 0 0-.028.657v.909a4.545 4.545 0 0 0 .028.636 6.327 6.327 0 0 0-.623-.021zm-.006-1.286h2.089v-.37h-2.089zm0 .825h2.089v-.378h-2.089z" transform="translate(-4095.274 -2648.467)"/>
                    <path id="パス_48776" data-name="パス 48776" class="cls-5" d="M4171.325 2650.948a1.843 1.843 0 0 1 .923-.287.886.886 0 0 1 .964.755 22.482 22.482 0 0 1 1.867-.636 1.831 1.831 0 0 1 .188.664 17.642 17.642 0 0 0-1.978.587c.027.4.042.783.049 1.238a2.139 2.139 0 0 1-.643.007c0-.405-.007-.7-.021-.992-.845.384-1.1.727-1.1 1.048s.294.524 1.161.524a8.361 8.361 0 0 0 1.929-.252 1.794 1.794 0 0 1 .1.594v.105a10.145 10.145 0 0 1-2.027.2c-1.279 0-1.839-.406-1.839-1.1 0-.566.447-1.182 1.719-1.741-.062-.37-.2-.468-.475-.468-.433 0-1.1.35-2.118 1.272a1.311 1.311 0 0 1-.419-.475 7.511 7.511 0 0 0 1.586-1.936c-.454.021-.894.028-1.328.035a2.352 2.352 0 0 1-.021-.315 2.273 2.273 0 0 1 .021-.315h.405c.406 0 .818-.007 1.231-.021a7.959 7.959 0 0 0 .384-.993 1.815 1.815 0 0 1 .678.168c-.112.265-.237.545-.356.79.6-.042 1.2-.091 1.8-.168a2.111 2.111 0 0 1 .042.427 1.624 1.624 0 0 1-.007.189c-.706.063-1.426.126-2.139.168a7.574 7.574 0 0 1-.588.909z" transform="translate(-4146.849 -2648.368)"/>
                    <path id="パス_48777" data-name="パス 48777" class="cls-5" d="M4220.277 2682.988a7.443 7.443 0 0 1 1.537 1.44 2.463 2.463 0 0 1-.537.538 7.029 7.029 0 0 0-1.5-1.489 2.6 2.6 0 0 1 .5-.489z" transform="translate(-4190.809 -2678.633)"/>
                    <path id="パス_48778" data-name="パス 48778" class="cls-5" d="M4240.983 2649.285a6.3 6.3 0 0 0-.042-.783h.72a5.1 5.1 0 0 0-.049.783v.734h1.216v-.79a4.376 4.376 0 0 0-.049-.727h.7a5.286 5.286 0 0 0-.042.72v.8h1.292v-.8a5.319 5.319 0 0 0-.042-.713h.706a4.242 4.242 0 0 0-.048.72v.8h.321a4.612 4.612 0 0 0 .72-.042v.657a4.821 4.821 0 0 0-.72-.042h-.321v1.552c0 .224.014.454.028.6a3.7 3.7 0 0 0-.566-.028h-1.426a4.44 4.44 0 0 0-.581.028 5.692 5.692 0 0 0 .028-.573v-1.58h-1.216v3.181h3.67a6.225 6.225 0 0 0 .8-.042v.678a6.345 6.345 0 0 0-.8-.042h-3.67v.4h-.671a7.6 7.6 0 0 0 .042-.93v-3.244h-.209a4.9 4.9 0 0 0-.734.042v-.657a4.876 4.876 0 0 0 .734.042h.209zm2.454 1.307v1.566h1.292v-1.566z" transform="translate(-4208.566 -2648.418)"/>
                    <path id="パス_48779" data-name="パス 48779" class="cls-5" d="M4297.6 2652.476c-.279 0-.524.014-.692.028a4.282 4.282 0 0 0 .035-.685v-1.426a4.588 4.588 0 0 0-.035-.706 5.338 5.338 0 0 0 .707.035h3.627a5.23 5.23 0 0 0 .7-.035 6.292 6.292 0 0 0-.028.706v1.426a5.878 5.878 0 0 0 .028.685 8.389 8.389 0 0 0-.692-.028h-.713a4.454 4.454 0 0 0 2.111 1.118 2.281 2.281 0 0 0-.314.608 6.416 6.416 0 0 1-1.58-.8c-.006.091-.006.133-.006.272v1.342a5.223 5.223 0 0 0 .042.734h-.713a5.013 5.013 0 0 0 .042-.734v-1.265a2.54 2.54 0 0 0-.035-.538h.434a3.8 3.8 0 0 1-.721-.741h-.782a3.9 3.9 0 0 1-.686.748h.545a1.933 1.933 0 0 0-.028.308c-.049 1.23-.552 1.832-1.915 2.279a2.642 2.642 0 0 0-.168-.265l-.132-.168c-.007-.014-.049-.063-.084-.112a3 3 0 0 0 1.265-.587 1.4 1.4 0 0 0 .412-1.16 1.2 1.2 0 0 0-.014-.2 5.631 5.631 0 0 1-1.657.9 2.191 2.191 0 0 0-.335-.587 4.143 4.143 0 0 0 2.048-1.154zm-.049-1.615h1.552v-.622h-1.552zm0 1.133h1.552v-.629h-1.552zm2.132-1.133h1.622v-.622h-1.622zm0 1.133h1.622v-.629h-1.622z" transform="translate(-4257.788 -2649.457)"/>
                    <path id="パス_48780" data-name="パス 48780" class="cls-5" d="M4357.236 2650.948a1.846 1.846 0 0 1 .923-.287.886.886 0 0 1 .965.755 22.482 22.482 0 0 1 1.867-.636 1.84 1.84 0 0 1 .188.664 17.673 17.673 0 0 0-1.978.587c.028.4.042.783.049 1.238a2.14 2.14 0 0 1-.643.007c0-.405-.006-.7-.021-.992-.846.384-1.1.727-1.1 1.048s.294.524 1.161.524a8.362 8.362 0 0 0 1.93-.252 1.806 1.806 0 0 1 .1.594v.105a10.141 10.141 0 0 1-2.027.2c-1.28 0-1.839-.406-1.839-1.1 0-.566.448-1.182 1.72-1.741-.062-.37-.2-.468-.476-.468-.433 0-1.1.35-2.118 1.272a1.307 1.307 0 0 1-.419-.475 7.521 7.521 0 0 0 1.586-1.936c-.454.021-.894.028-1.328.035a2.352 2.352 0 0 1-.021-.315 2.273 2.273 0 0 1 .021-.315h.405c.406 0 .818-.007 1.23-.021a7.884 7.884 0 0 0 .384-.993 1.814 1.814 0 0 1 .678.168c-.112.265-.237.545-.356.79.6-.042 1.2-.091 1.8-.168a2.148 2.148 0 0 1 .042.427 1.739 1.739 0 0 1-.007.189c-.706.063-1.426.126-2.139.168a7.633 7.633 0 0 1-.587.909z" transform="translate(-4309.734 -2648.368)"/>
                    <path id="パス_48781" data-name="パス 48781" class="cls-5" d="M4406.188 2682.988a7.459 7.459 0 0 1 1.538 1.44 2.459 2.459 0 0 1-.539.538 7.025 7.025 0 0 0-1.5-1.489 2.588 2.588 0 0 1 .501-.489z" transform="translate(-4353.694 -2678.633)"/>
                    <path id="パス_48782" data-name="パス 48782" class="cls-5" d="M4431.992 2649.069a4.515 4.515 0 0 1-.692.853 1.648 1.648 0 0 0-.44-.419 3.507 3.507 0 0 0 1.084-1.678l.644.139c-.161.35-.2.427-.273.566h1.014a3.038 3.038 0 0 0 .58-.035v.594a5.452 5.452 0 0 0-.531-.021H4433a6.6 6.6 0 0 1 .293.706l-.594.182a4.912 4.912 0 0 0-.3-.888zm2.454 2.852a3.371 3.371 0 0 0 2.719 1.538 2.563 2.563 0 0 0-.37.636 3.932 3.932 0 0 1-2.817-1.9 3.417 3.417 0 0 1-2.678 1.88 2.472 2.472 0 0 0-.35-.6c1.392-.252 2.125-.706 2.5-1.552h-1.7a5.42 5.42 0 0 0-.762.042v-.65a5.2 5.2 0 0 0 .762.042h1.867a4.194 4.194 0 0 0 .056-.692c-.692.056-1.23.084-1.853.084a2.23 2.23 0 0 0-.224-.545c.188.007.343.007.434.007a21.663 21.663 0 0 0 2.433-.161 7.387 7.387 0 0 0 1.439-.314l.462.524c-.126.028-.2.042-.245.049l-.607.119c-.252.056-.825.133-1.217.175a6.09 6.09 0 0 1-.063.755h2a5 5 0 0 0 .762-.042v.65a5.142 5.142 0 0 0-.762-.042zm.224-2.845a4.871 4.871 0 0 1-.518.776 2.019 2.019 0 0 0-.489-.357 3.671 3.671 0 0 0 .846-1.664l.644.126c-.105.272-.147.377-.231.573h1.545a3.319 3.319 0 0 0 .622-.035v.615a4.2 4.2 0 0 0-.607-.035h-.713a5.033 5.033 0 0 1 .265.5l-.587.147a2.718 2.718 0 0 0-.307-.643z" transform="translate(-4375.751 -2647.825)"/>
                    <path id="パス_48783" data-name="パス 48783" class="cls-5" d="M4491.788 2650.113a2.594 2.594 0 0 0 .531-.035v.6a3.239 3.239 0 0 0-.531-.028h-.217l.378.308a4.916 4.916 0 0 1-1.5.846 2.043 2.043 0 0 0-.329-.475 3.381 3.381 0 0 0 1.37-.678h-1.405a7.4 7.4 0 0 1-.545 3.523 2.084 2.084 0 0 0-.426-.587 2.648 2.648 0 0 0 .258-.8 12.577 12.577 0 0 0 .146-2.069c0-.224-.007-.4-.027-.636a5.917 5.917 0 0 0 .664.035h.937a5.233 5.233 0 0 0 .384-.986l.5.175a6.135 6.135 0 0 1-.356.811zm-1.146-1.622a1.934 1.934 0 0 0-.035-.44h.664a1.907 1.907 0 0 0-.035.44v.1h.462a3.032 3.032 0 0 0 .559-.035v.594a3.417 3.417 0 0 0-.539-.028h-1.775a3.029 3.029 0 0 0-.51.028v-.6a2.446 2.446 0 0 0 .559.042h.651zm1.342 4.838a6.561 6.561 0 0 1-1.874.958 1.78 1.78 0 0 0-.328-.531 4.456 4.456 0 0 0 2.229-1.2l.413.427c-.07.049-.119.091-.147.112zm-1.776-3.223a3.07 3.07 0 0 0-.28-.818l.482-.161a3.939 3.939 0 0 1 .273.8zm2.063 1.755a5.5 5.5 0 0 1-1.9 1.118 1.62 1.62 0 0 0-.328-.489 3.89 3.89 0 0 0 1.8-1.013zm1.328 1.524a4.036 4.036 0 0 1-1.454 1 1.788 1.788 0 0 0-.377-.482 3.085 3.085 0 0 0 1.413-.874zm-.5-4.558a4.542 4.542 0 0 0-.7.035v-.622a4.024 4.024 0 0 0 .7.042h1.636a4.118 4.118 0 0 0 .713-.042v.622a4.7 4.7 0 0 0-.713-.035h-.518a4.844 4.844 0 0 1-.231.594h.616c.329 0 .5-.007.65-.021a7.872 7.872 0 0 0-.021.636v2.286c0 .238.007.483.021.685a6.163 6.163 0 0 0-.587-.021h-1.594c-.245 0-.405.007-.552.021.006-.2.014-.405.014-.622v-2.342c-.007-.4-.007-.476-.021-.643.167.014.314.021.587.021h.273a2.993 2.993 0 0 0 .217-.594zm-.014 1.622h1.58v-.517h-1.58zm0 .986h1.58v-.489h-1.58zm0 1.028h1.58v-.532h-1.58zm1.293.573a4.011 4.011 0 0 0 1.237.839 2 2 0 0 0-.392.5 5.549 5.549 0 0 1-1.251-1z" transform="translate(-4426.794 -2648.023)"/>
                    <path id="パス_48784" data-name="パス 48784" class="cls-5" d="M4550.989 2651.776a2.217 2.217 0 0 1 .615.084 17.626 17.626 0 0 0-.342 3.334 15.4 15.4 0 0 0 .154 1.944 1.482 1.482 0 0 1-.5.084 1.748 1.748 0 0 1-.188-.014 13.892 13.892 0 0 1-.154-2.021 18.035 18.035 0 0 1 .35-3.411zm4.872 4.74a1.387 1.387 0 0 1-.013.175 8.17 8.17 0 0 1-1.587.147c-1.182 0-1.72-.44-1.817-1.3a1.039 1.039 0 0 1 .559-.182c.14.608.5.8 1.266.8a8.1 8.1 0 0 0 1.5-.147 1.262 1.262 0 0 1 .092.506zm-1.251-4.208a8.146 8.146 0 0 1 .979.056 1.656 1.656 0 0 1-.028.664 6.969 6.969 0 0 0-.937-.049 9.858 9.858 0 0 0-1.783.168 1.7 1.7 0 0 1-.062-.469 1.289 1.289 0 0 1 .007-.168 8.119 8.119 0 0 1 1.824-.203z" transform="translate(-4480.642 -2651.286)"/>
                    <path id="パス_48785" data-name="パス 48785" class="cls-5" d="M4605.776 2682.1a1.1 1.1 0 1 1-1.1-1.091 1.095 1.095 0 0 1 1.1 1.091zm-1.769 0a.664.664 0 1 0 1.328 0 .647.647 0 0 0-.657-.657.66.66 0 0 0-.671.657z" transform="translate(-4527.075 -2676.902)"/>
                </g>
            </g>
        </g>
    </g>
</svg>
