<svg id="reception_Clients_logo8" xmlns="http://www.w3.org/2000/svg" width="143" height="83">
    <defs>
        <clipPath id="clip-path">
            <path id="長方形_4631" data-name="長方形 4631" transform="translate(0 20)" style="fill:#f1f5f9" d="M0 0h143v43H0z"/>
        </clipPath>
        <style>
            .cls-4{fill:#415147}
        </style>
    </defs>
    <path id="長方形_860" data-name="長方形 860" style="fill:#fff" d="M0 0h143v83H0z"/>
    <g id="マスクグループ_11697" data-name="マスクグループ 11697" style="clip-path:url(#clip-path)">
        <g id="グループ_14278" data-name="グループ 14278" transform="translate(-3990.297 -1851.986)">
            <g id="グループ_14283" data-name="グループ 14283" transform="translate(4021.297 1871.986)">
                <g id="グループ_14282" data-name="グループ 14282">
                    <g id="グループ_14281" data-name="グループ 14281">
                        <g id="グループ_14280" data-name="グループ 14280">
                            <g id="グループ_14278-2" data-name="グループ 14278">
                                <path id="パス_48692" data-name="パス 48692" class="cls-4" d="M4036.241 1901.875a14.947 14.947 0 1 0-10.566-4.378 14.837 14.837 0 0 0 10.566 4.378zm-12.9-14.945a12.9 12.9 0 1 1 3.777 9.12 12.805 12.805 0 0 1-3.773-9.12z" transform="translate(-4021.297 -1871.986)"/>
                                <path id="パス_48693" data-name="パス 48693" class="cls-4" d="M4338.749 1901.875a14.948 14.948 0 1 0-10.565-4.378 14.837 14.837 0 0 0 10.565 4.378zm-12.9-14.945a12.9 12.9 0 1 1 3.778 9.12 12.807 12.807 0 0 1-3.774-9.12z" transform="translate(-4280.252 -1871.986)"/>
                            </g>
                            <g id="グループ_14279" data-name="グループ 14279" transform="translate(35.699 1.121)">
                                <path id="長方形_4629" data-name="長方形 4629" class="cls-4" d="M0 0h2.046v27.648H0z"/>
                                <path id="長方形_4630" data-name="長方形 4630" class="cls-4" transform="translate(43.552)" d="M0 0h2.047v27.648H0z"/>
                            </g>
                        </g>
                    </g>
                </g>
            </g>
            <g id="グループ_14289" data-name="グループ 14289" transform="translate(4026.017 1907.129)">
                <g id="グループ_14284" data-name="グループ 14284" transform="translate(33.344 1.501)">
                    <path id="パス_48694" data-name="パス 48694" class="cls-4" d="M4287.116 2126.509v6.218h-1.437v-6.218z" transform="translate(-4285.678 -2126.509)"/>
                </g>
                <g id="グループ_14285" data-name="グループ 14285" transform="translate(55.623 1.401)">
                    <path id="パス_48695" data-name="パス 48695" class="cls-4" d="M4446.468 2126.552a3 3 0 0 1 1.076 2.423c0 2.216-1.821 3.268-3.678 3.271a3.142 3.142 0 0 1-3.445-3.183 2.97 2.97 0 0 1 1.192-2.443 3.9 3.9 0 0 1 2.6-.81 3.845 3.845 0 0 1 2.254.742zm-2.389 4.867a2.036 2.036 0 0 0 2-2.29 2.265 2.265 0 0 0-2.174-2.5 2.064 2.064 0 0 0-2.01 2.309 2.261 2.261 0 0 0 2.184 2.483z" transform="translate(-4440.421 -2125.81)"/>
                </g>
                <path id="パス_48696" data-name="パス 48696" class="cls-4" d="M4553.527 2132.72h-1.344v-6.172c.551 0 1.5-.048 2.244-.048a2.973 2.973 0 0 1 2.05.552 1.88 1.88 0 0 1-.261 2.91 3.763 3.763 0 0 1-2.021.455c-.261 0-.435-.01-.667-.019zm0-3.1a4.1 4.1 0 0 0 .6.029c.484 0 1.509 0 1.509-1.16 0-.881-.474-1.229-1.451-1.229-.241 0-.5.01-.658.01z" transform="translate(-4480.47 -2125)"/>
                <g id="グループ_14286" data-name="グループ 14286" transform="translate(18.677 1.481)">
                    <path id="パス_48697" data-name="パス 48697" class="cls-4" d="M4189.53 2132.382v.226h-.8a1.618 1.618 0 0 1-1.279-.359 18.8 18.8 0 0 1-1.477-2.241c-.23.008-.772.011-.772.011v2.589h-1.394v-6.191h.025c.28 0 2.068-.049 2.272-.049a3 3 0 0 1 2.125.489 1.548 1.548 0 0 1 .56 1.238c0 .729-.4 1.307-1.433 1.66 1.312 2.298 2.173 2.627 2.173 2.627zm-3.66-3.1a3.3 3.3 0 0 0 .577-.038.98.98 0 0 0 .879-1.078c0-.627-.309-1-1.358-1h-.768v2.117z" transform="translate(-4183.805 -2126.368)"/>
                </g>
                <g id="グループ_14287" data-name="グループ 14287" transform="translate(49.187 1.481)">
                    <path id="パス_48698" data-name="パス 48698" class="cls-4" d="M4401.444 2132.382v.226h-.8a1.617 1.617 0 0 1-1.279-.359 18.738 18.738 0 0 1-1.477-2.241c-.23.008-.772.011-.772.011v2.589h-1.394v-6.191h.025c.279 0 2.068-.049 2.272-.049a3 3 0 0 1 2.125.489 1.547 1.547 0 0 1 .56 1.238c0 .729-.4 1.307-1.433 1.66 1.311 2.298 2.173 2.627 2.173 2.627zm-3.66-3.1a3.3 3.3 0 0 0 .577-.038.979.979 0 0 0 .878-1.078c0-.627-.309-1-1.358-1h-.768v2.117z" transform="translate(-4395.719 -2126.368)"/>
                </g>
                <g id="グループ_14288" data-name="グループ 14288" transform="translate(39.715)">
                    <path id="パス_48699" data-name="パス 48699" class="cls-4" d="M4334.67 2116.081c-2.761 0-4.737 1.619-4.737 4.058 0 1.274.619 3.785 4.344 3.785a12.535 12.535 0 0 0 3.118-.416v-3.475h-1.667v2.8a4.54 4.54 0 0 1-1.19.167 3.174 3.174 0 0 1-1.844-.536 3.207 3.207 0 0 1-1.024-2.523 2.644 2.644 0 0 1 2.8-2.928 4.063 4.063 0 0 1 1.785.428 7.316 7.316 0 0 1 .722.435v-1.439a8.713 8.713 0 0 0-2.307-.356z" transform="translate(-4329.933 -2116.081)"/>
                </g>
                <path id="パス_48700" data-name="パス 48700" class="cls-4" d="M4130.036 2130.906h2.314l.672 1.818h1.583l-2.559-6.215h-1.182l-2.846 6.215h1.286zm2-.819h-1.662l.866-2.143z" transform="translate(-4117.374 -2125.008)"/>
                <path id="パス_48701" data-name="パス 48701" class="cls-4" d="M4232.8 2126.509h-1.437v3.63c0 1.5.25 2.726 2.819 2.726 2.458 0 2.784-1.351 2.784-3.075 0-1.23.008-3.28.008-3.28h-1.056v3.461c0 .989-.168 1.866-1.543 1.866a1.406 1.406 0 0 1-1.574-1.613z" transform="translate(-4205.835 -2125.008)"/>
                <path id="パス_48702" data-name="パス 48702" class="cls-4" d="M4502.175 2126.509h-1.438v3.63c0 1.5.25 2.726 2.819 2.726 2.458 0 2.784-1.351 2.784-3.075 0-1.23.008-3.28.008-3.28h-1.057v3.461c0 .989-.167 1.866-1.542 1.866a1.407 1.407 0 0 1-1.574-1.613z" transform="translate(-4436.43 -2125.008)"/>
                <path id="パス_48703" data-name="パス 48703" class="cls-4" d="M4063.016 2117.232h-1.544l-2.757 5.395-2.6-5.395h-1.52l-.512 7.546h1.247l.082-5.481 2.574 5.37h.819l2.683-5.163.177 5.273h1.627z" transform="translate(-4054.08 -2117.066)"/>
            </g>
        </g>
    </g>
</svg>
