<svg id="reception_Clients_logo15" xmlns="http://www.w3.org/2000/svg" width="143" height="83">
    <defs>
        <clipPath id="clip-path">
            <path id="長方形_4639" data-name="長方形 4639" transform="translate(0 20)" style="fill:#f1f5f9" d="M0 0h143v43H0z"/>
        </clipPath>
        <style>
            .cls-6{fill:#1a1311}
        </style>
    </defs>
    <path id="長方形_860" data-name="長方形 860" style="fill:#fff" d="M0 0h143v83H0z"/>
    <g id="マスクグループ_11702" data-name="マスクグループ 11702" style="clip-path:url(#clip-path)">
        <g id="グループ_14324" data-name="グループ 14324" transform="translate(1366.783 -2787.018)">
            <path id="パス_48809" data-name="パス 48809" d="M-1325.7 2848.582v-11.463l-.023-.258-.078-.236-.113-.214-.157-.2-.191-.157-.225-.113-.236-.078-.247-.023h-11.619l-.247.023-.237.078-.224.113-.191.157-.158.2-.123.214-.068.236-.022.258v11.608l.022.248.068.247.123.213.158.191.191.158.224.123.237.068.247.033h11.619l.247-.033.236-.068.225-.123.191-.158.157-.191.113-.213.078-.247.023-.248z" transform="translate(-.292 -.421)" style="fill:#f99900"/>
            <path id="パス_48810" data-name="パス 48810" d="M-1365.5 2850.018h13.56l.25-.023.239-.069.228-.125.194-.16.159-.194.125-.228.068-.24.023-.251v-18.86l-.023-.228-.057-.228-.1-.205-.137-.183-.171-.16-.194-.137-.2-.091-.228-.046-.228-.011-.239.034-.216.069-.2.114-.182.148-.148.171-.085.118-13.457 18.717-.018.025-.114.205-.08.217-.046.24.011.228.046.24.091.217.125.194.159.171.182.148.216.1.228.069.228.011" transform="translate(0 -.421)" style="fill:#002968"/>
            <path id="パス_48811" data-name="パス 48811" class="cls-6" d="M-1325.019 2807.029h-13.56l-.25.023-.239.069-.228.126-.194.16-.159.195-.125.229-.068.24-.023.252v18.926l.023.229.057.229.1.206.137.183.171.16.194.137.2.092.228.046.228.011.239-.034.216-.069.205-.115.182-.149.148-.172.085-.119 13.457-18.782.018-.025.114-.206.08-.218.046-.24-.011-.229-.046-.24-.091-.218-.125-.195-.159-.172-.182-.149-.216-.1-.228-.069-.228-.011" transform="translate(-.297)"/>
            <path id="パス_48812" data-name="パス 48812" d="m-1350.585 2815.079-.023-.581-.057-.581-.1-.569-.148-.569-.182-.547-.228-.535-.262-.524-.307-.5-.33-.478-.376-.444-.4-.421-.433-.4-.455-.364-.478-.319-.5-.3-.535-.251-.535-.216-.558-.182-.569-.136-.569-.091-.581-.046-.581-.011-.581.023-.581.08-.569.114-.558.16-.558.193-.524.239-.524.262-.49.319-.467.342-.444.376-.421.41-.387.433-.353.467-.319.49-.273.512-.25.524-.2.546-.159.558-.125.569-.091.581-.046.581v.581l.046.581.091.569.125.569.159.558.2.547.25.535.273.512.319.478.353.467.387.433.421.41.444.376.467.353.49.307.524.273.524.228.558.2.558.148.569.114.581.08.581.034.581-.011.581-.057.569-.091.569-.137.558-.171.535-.216.535-.262.5-.285.478-.33.455-.365.433-.387.4-.421.376-.455.33-.478.307-.5.262-.512.228-.535.182-.558.148-.558.1-.581.057-.581.023-.581" style="fill:#ba0015"/>
            <path id="パス_48813" data-name="パス 48813" class="cls-6" d="M-1299.3 2821.668h-9.315v-3.9h14.745v3.667l-9.949 13.54h9.949v3.9h-15.379v-3.666z" transform="translate(-.631)"/>
            <path id="パス_48814" data-name="パス 48814" class="cls-6" d="M-1279.122 2816.913a11.5 11.5 0 0 0-11.606 11.393 11.5 11.5 0 0 0 11.606 11.4 11.5 11.5 0 0 0 11.6-11.4 11.5 11.5 0 0 0-11.6-11.393m0 18.52a7.192 7.192 0 0 1-7.257-7.126 7.19 7.19 0 0 1 7.257-7.123 7.19 7.19 0 0 1 7.256 7.123 7.192 7.192 0 0 1-7.256 7.126" transform="translate(-.888)"/>
            <path id="パス_48815" data-name="パス 48815" class="cls-6" d="M-1254.155 2821.668h-9.314v-3.9h14.743v3.667l-9.949 13.54h9.949v3.9h-15.38v-3.666z" transform="translate(-1.126)"/>
            <g id="グループ_14323" data-name="グループ 14323" transform="translate(-1246.992 2816.702)">
                <path id="パス_48816" data-name="パス 48816" class="cls-6" d="M-1233.973 2816.913a11.6 11.6 0 0 0-11.6 11.6 11.6 11.6 0 0 0 11.6 11.606 11.6 11.6 0 0 0 11.6-11.606 11.6 11.6 0 0 0-11.6-11.6m0 18.862a7.256 7.256 0 0 1-7.256-7.258 7.254 7.254 0 0 1 7.256-7.255 7.255 7.255 0 0 1 7.256 7.255 7.257 7.257 0 0 1-7.256 7.258" transform="translate(1245.577 -2816.913)"/>
            </g>
        </g>
    </g>
</svg>
