<svg id="reception_Clients_logo17" xmlns="http://www.w3.org/2000/svg" width="143" height="83">
    <defs>
        <clipPath id="clip-path">
            <path id="長方形_4632" data-name="長方形 4632" transform="translate(0 20)" style="fill:#f1f5f9" d="M0 0h143v43H0z"/>
        </clipPath>
        <style>
            .cls-4{fill:#288144}
        </style>
    </defs>
    <path id="長方形_860" data-name="長方形 860" style="fill:#fff" d="M0 0h143v83H0z"/>
    <g id="マスクグループ_11698" data-name="マスクグループ 11698" style="clip-path:url(#clip-path)">
        <g id="グループ_14292" data-name="グループ 14292" transform="translate(-1124.85 -2404.195)">
            <g id="グループ_14290" data-name="グループ 14290" transform="translate(1163.829 2437.343)">
                <path id="パス_48704" data-name="パス 48704" class="cls-4" d="M1454.388 2470.732c.172.1.344.241.344.413 0 .222-.327.36-.568.446a16.672 16.672 0 0 1-3.16 4.4 1.173 1.173 0 0 1 .36.808.74.74 0 0 1-.686.791c-.584 0-.722-.465-1-1.357-.258-.791-.43-.91-.55-1-.052 2.422-.052 2.834-.052 3.831 0 1.511.085 3.486.085 4.551 0 .207 0 .774-.859.774-.6 0-.636-.327-.636-.568 0-.154.052-.858.052-1 .051-.876.155-3.641.155-5.427v-.808a11.847 11.847 0 0 1-3.091 3.744l-.139-.1a24.148 24.148 0 0 0 3.179-7.35h-.429a10.162 10.162 0 0 0-1.856.119l-.275-.635c1.066.1 2.251.1 2.594.1a23.2 23.2 0 0 0-.155-3.023 2.037 2.037 0 0 0-.275-.825l2.062.671c.154.051.292.189.292.31 0 .273-.464.514-.584.583 0 .361-.035 1.958-.035 2.284h.224l.5-.825c.051-.067.171-.205.275-.205a.608.608 0 0 1 .309.172l.841.823c.139.14.172.174.172.276 0 .156-.154.173-.257.173h-2.062c-.017.685-.034 1.357-.034 2.042a3.5 3.5 0 0 1 1.717.878c1.718-3.436 1.821-4.123 1.976-6.047zm1.391 7.815c1.357.534 3.865 2.628 3.865 4.139 0 .86-.55.98-.858.98-.5 0-.791-.379-.945-.859a16.7 16.7 0 0 0-.6-1.734 37.293 37.293 0 0 1-6.115 1.924c-.085.154-.223.429-.446.429-.121 0-.276-.189-.309-.275l-.773-2.027a4.552 4.552 0 0 0 1.58.291c.257 0 .653-.035.807-.035a22.975 22.975 0 0 0 1.649-5.53 3.941 3.941 0 0 0-.085-.721l1.906.738a.465.465 0 0 1 .326.4c0 .273-.257.343-.5.411a32.307 32.307 0 0 1-2.9 4.673c3.212-.362 3.573-.4 4.689-.619a10.839 10.839 0 0 0-1.426-2.043zm.5-9.207c.154-.137.172-.153.276-.153a.468.468 0 0 1 .206.1l.858.687a.4.4 0 0 1 .189.291c0 .223-.033.24-1.116.757.275 1.906 2.542 4.121 4.757 4.654v.138c-.343.068-.927.172-1.837 1.34-2.078-1.374-3.281-4.4-3.487-6.8a7.324 7.324 0 0 0-1.254.1l-.292-.634c.6.05.859.068 1.117.085z" transform="translate(-1444.648 -2468.448)"/>
                <path id="パス_48705" data-name="パス 48705" class="cls-4" d="M1598.379 2472.7h-2.285c.018 4.535.018 5.034.052 6.184.017.481.1 2.612.1 3.041 0 .481 0 1.426-1.013 1.426a.68.68 0 0 1-.722-.773c0-.069.069-1.357.085-1.529.1-2.1.1-3.262.1-5.617v-2.732h-.6a13.466 13.466 0 0 1-3.075 3.625l-.1-.085c1.666-2.56 3.383-7.18 3.383-8.074 0-.154-.017-.258-.051-.739l2.1 1.081a.364.364 0 0 1 .137.241c0 .223-.172.276-.618.464a24.922 24.922 0 0 1-1.529 3.074h1.941l.516-.771c.052-.087.172-.223.275-.223a.812.812 0 0 1 .325.172l1.066.789a.4.4 0 0 1 .172.257c-.002.175-.157.189-.259.189zm8.227-.017h-3.177c.017 1.185.052 4.57.069 5.5 0 .463.086 2.526.086 2.938 0 1.615-1.169 2.147-2.628 2.268a2.518 2.518 0 0 0-1.323-2.114v-.086a8.316 8.316 0 0 0 2.061.222c.327 0 .344-.136.344-.429l-.052-8.3h-1.821a12.212 12.212 0 0 1-3.4 4.053l-.086-.084c1.563-2.3 3.557-6.494 3.557-8.744a1.508 1.508 0 0 0-.07-.548l2.182 1.134a.222.222 0 0 1 .1.2c0 .207-.121.275-.533.5a52.768 52.768 0 0 1-1.529 3.073h3.676l.842-1.03c.155-.188.172-.223.257-.223.1 0 .223.1.327.188l1.219 1.032c.087.085.172.154.172.273.002.164-.153.18-.273.18z" transform="translate(-1573.094 -2467.345)"/>
                <path id="パス_48706" data-name="パス 48706" class="cls-4" d="M1740.563 2473.349h-1.769v1.855c.258.086 1.941.979 1.941 2.1a.773.773 0 0 1-.755.823c-.7 0-.757-.635-.824-1.528a2.258 2.258 0 0 0-.362-1.118v2.372c0 1.735.07 4.482.07 6.218 0 .342-.017.462-.137.566a1.162 1.162 0 0 1-.825.342c-.618 0-.618-.291-.618-.514 0-.035.206-4.6.24-5.479.034-.567.034-.74.052-2.216a10.943 10.943 0 0 1-3.058 4.328l-.137-.086a24.653 24.653 0 0 0 3.092-7.662 11.452 11.452 0 0 0-2.114.1l-.274-.617c1.013.086 2.164.1 2.508.1-.035-2.146-.035-2.387-.138-3.743l1.838.5c.12.033.207.051.207.153 0 .155-.12.242-.6.532a40.361 40.361 0 0 0-.1 2.559h.31l.532-.737c.086-.12.155-.207.258-.207a.461.461 0 0 1 .327.223l.446.653c.087.136.155.207.155.291-.007.158-.145.192-.265.192zm8.778 9.67a8.64 8.64 0 0 1-2.371-2.576 16.061 16.061 0 0 1-1.254-3.056c.017.48.034 2.593.034 3.023.017.566.138 3.073.138 3.572a.945.945 0 0 1-1.065 1c-.567 0-.567-.5-.567-.67 0-1 .155-5.392.171-6.285a12.1 12.1 0 0 1-2.438 3.057 15.212 15.212 0 0 1-2.525 1.856l-.085-.069a20.811 20.811 0 0 0 4.379-6.08h-.842a10.429 10.429 0 0 0-1.855.1l-.276-.619c1.048.087 2.251.1 2.439.1h1.237c-.017-.721-.035-2.043-.051-2.851h-2.11a10.8 10.8 0 0 1-2.009 2.508l-.1-.085c.55-1.237 1.65-3.779 1.65-4.93 0-.035-.035-.532-.035-.636l1.753.7c.12.052.223.12.223.258 0 .189-.138.24-.533.4-.19.378-.292.619-.7 1.375h1.871c-.034-1.993-.034-2.216-.068-2.628a7.3 7.3 0 0 0-.327-1.271l2.045.445c.189.036.308.138.308.241s-.464.431-.6.533c-.034.412-.068 1.065-.068 2.68h1.407l.688-.825c.155-.189.189-.2.258-.2.086 0 .12.016.326.171l1.048.825a.32.32 0 0 1 .172.257c0 .155-.155.189-.275.189h-3.634l.017 2.851h2.147l.842-.875c.189-.189.189-.223.258-.223.1 0 .137.034.326.189l1.081.875a.376.376 0 0 1 .172.259c0 .153-.138.189-.258.189h-4.5c.739 1.872 3.126 4.482 5.36 4.878v.12a3.413 3.413 0 0 0-1.804 1.228z" transform="translate(-1699.065 -2468.953)"/>
                <path id="パス_48707" data-name="パス 48707" class="cls-4" d="M1883.078 2483.013c-.052.326-.207.428-.327.428-.189 0-.309-.189-.377-.377l-.739-1.873a3.58 3.58 0 0 0 .67.069 17.08 17.08 0 0 0 3.195-.6v-4.707h-1.2a9.406 9.406 0 0 0-1.855.121l-.292-.635a23.734 23.734 0 0 0 2.456.1h2.646l.686-.929c.087-.1.172-.223.276-.223.085 0 .154.052.309.188l1.065.945c.086.068.172.139.172.258 0 .171-.155.171-.257.171h-2.61v4.329a38.534 38.534 0 0 0 4.122-1.374l.052.12c-1.861 1.376-3.698 2.322-7.992 3.989zm14.05-10.341h-5.874a15.337 15.337 0 0 0 2.611 7.866c.223.311.944 1.2 1.357 1.2.189 0 .189 0 .636-.893.326-.653.549-1.2.841-1.941l.087.017c-.018.343-.155 2.112-.155 3.022a.871.871 0 0 0 .224.67c.257.345.326.447.326.67a.729.729 0 0 1-.824.671 5.412 5.412 0 0 1-3.212-1.958c-1.924-2.423-2.7-5.187-3.281-9.328h-5.891a8.6 8.6 0 0 0-1.855.12l-.291-.634c1.047.086 2.267.1 2.456.1h5.531c-.018-.122-.241-2.319-.275-2.645a3.58 3.58 0 0 0-.378-1.408l2.268.566c.292.069.343.172.343.257 0 .19-.343.361-.653.516 0 .584 0 1.356.1 2.714h3.35l.859-1.031c.155-.188.189-.224.275-.224.069 0 .137.036.326.208l1.186 1.012c.1.085.172.156.172.257-.001.161-.138.196-.259.196zm-3.435-1.219c-.379 0-.567-.205-.773-.688a5.055 5.055 0 0 0-.876-1.647l.086-.189a3.708 3.708 0 0 1 1.564.5 1.553 1.553 0 0 1 .773 1.219.781.781 0 0 1-.774.805z" transform="translate(-1828.371 -2468.087)"/>
                <path id="パス_48708" data-name="パス 48708" class="cls-4" d="M2040.76 2474.864a13.061 13.061 0 0 1-6.253-6.167 18.817 18.817 0 0 1-7.781 6.733l-.085-.1a24.638 24.638 0 0 0 6.046-6.716 3.663 3.663 0 0 0 .6-1.391l1.856.635c.223.067.274.206.274.276 0 .2-.412.308-.617.377a11.615 11.615 0 0 0 7.677 4.689v.1a3.194 3.194 0 0 0-1.717 1.564zm.172 2.25h-6.786a26.213 26.213 0 0 1-2.834 3.676c4.225-.326 4.689-.361 6.424-.6a17.05 17.05 0 0 0-1.82-2.3l.086-.1c1 .413 4.4 2.129 4.4 4.243 0 .274-.189.961-.86.961-.549 0-.893-.447-1.116-1.168a6.762 6.762 0 0 0-.481-1.254c-1.82.552-7.489 1.856-8.519 2.028-.069.172-.121.361-.292.361-.19 0-.293-.258-.327-.361l-.755-1.889a7.914 7.914 0 0 0 1.684.189c.189 0 .825-.052 1.1-.069a18.064 18.064 0 0 0 1.289-3.71h-2.457a9.511 9.511 0 0 0-1.855.119l-.292-.634a23.473 23.473 0 0 0 2.456.1h8.159l.944-1.048c.173-.208.206-.224.293-.224.068 0 .1.017.309.189l1.34 1.066c.052.052.172.139.172.257-.006.168-.178.168-.262.168zm-3.78-2.99h-4.586a9.991 9.991 0 0 0-1.855.121l-.275-.635c1.031.1 2.25.1 2.439.1h1.856l.842-.962c.172-.205.189-.222.274-.222.1 0 .258.136.309.188l1.082.963c.1.1.171.153.171.274 0 .157-.154.174-.258.174z" transform="translate(-1955.702 -2467.221)"/>
                <path id="パス_48709" data-name="パス 48709" class="cls-4" d="M2166.994 2479.185a23.183 23.183 0 0 0 5.187-6.353h-2.559a8.612 8.612 0 0 0-1.855.12l-.275-.638c.808.07 1.614.1 2.439.1h.584a9.113 9.113 0 0 0-.515-3.5l2.13.635c.086.017.292.086.292.24s-.224.309-.532.515c-.017.24-.034.552-.034.841 0 .172.018 1.066.018 1.273h.361l.463-.5a.382.382 0 0 1 .275-.155.487.487 0 0 1 .292.155l.979.893a.247.247 0 0 1 .086.191c0 .256-.361.325-.773.394a23.872 23.872 0 0 1-1.632 2.095c.928.292 2.628 1.253 2.628 2.355a.747.747 0 0 1-.721.754c-.515 0-.687-.4-.944-1a10.329 10.329 0 0 0-1.083-1.856c-.017.67-.034 4.174-.034 4.225 0 .552.1 3.316.1 3.539 0 .757-.79.893-1 .893a.588.588 0 0 1-.619-.6c0-.052.1-1.6.1-1.734.035-.861.035-1.273.069-5.068a16.564 16.564 0 0 1-3.366 2.284zm9.223-3.915a9.837 9.837 0 0 0-1.854.12l-.275-.636c.807.068 1.631.1 2.439.1h.755c-.018-.36-.034-1.992-.034-2.319 0-2.113-.017-2.507-.584-3.624l2.061.5c.292.069.481.208.481.361 0 .207-.275.378-.481.5-.034.446-.034.858-.034 4.586h1.425l.756-.945c.154-.189.171-.223.274-.223s.275.155.309.188l1.082.945c.1.1.172.155.172.275 0 .155-.154.172-.258.172h-3.761c0 2.558 0 5.289.034 7.643h1.511l.945-.962c.172-.189.206-.224.275-.224.12 0 .24.121.327.206l1.03.946a.411.411 0 0 1 .155.275c0 .153-.138.172-.258.172h-7.4a9.828 9.828 0 0 0-1.854.122l-.275-.637a22.954 22.954 0 0 0 2.439.1h1.684c.017-3.2.017-3.831-.018-7.643z" transform="translate(-2078.948 -2468.708)"/>
            </g>
            <g id="グループ_14291" data-name="グループ 14291" transform="translate(1124.849 2433.195)">
                <path id="パス_48710" data-name="パス 48710" class="cls-4" d="M1159.968 2433.2c-.378.02-1.14.1-1.51.15a11.227 11.227 0 0 0-6.295 2.918l-.242.25-.137-.016a1.4 1.4 0 0 1-.367-.133 5.036 5.036 0 0 0-1-.376 3.043 3.043 0 0 0-.754-.086 3.316 3.316 0 0 0-1.316.175 5.276 5.276 0 0 0-1.128.576 3.734 3.734 0 0 0-1.372 2.814 4.684 4.684 0 0 0 .816 3.009 4.819 4.819 0 0 0 .877.9 4.93 4.93 0 0 0 1.608.8 5.415 5.415 0 0 0 1.41.028 9.391 9.391 0 0 0 3.385-1.273c.505-.307.89-.529 1.22-.7a19.787 19.787 0 0 1 4.093-1.532 11.975 11.975 0 0 1 1.767-.054 10.37 10.37 0 0 1 3.119.611c.129.046.8.354 1.5.682s1.367.649 1.5.706.4.192.61.289a9.27 9.27 0 0 0 3.422 1.033 3.481 3.481 0 0 0 1.87-.3 4.337 4.337 0 0 0 2.417-3.114 3.7 3.7 0 0 0 .063-.9 5.452 5.452 0 0 0-.039-.8 5.146 5.146 0 0 0-.749-1.776 4.314 4.314 0 0 0-.917-.9 3.363 3.363 0 0 0-.9-.4 3.618 3.618 0 0 0-1.137-.056 6.442 6.442 0 0 0-2.211.771.3.3 0 0 1-.175.02c-.105-.015-.154-.057-.5-.4a11 11 0 0 0-6.756-2.846 25.486 25.486 0 0 0-2.162-.052zm1.118 1.646a.986.986 0 0 1 .561.715 6.583 6.583 0 0 1-.3 2.773 8.779 8.779 0 0 1-.415 1.1.174.174 0 0 1-.227.067 4.27 4.27 0 0 1-.583-1.37c-.044-.17-.118-.439-.164-.6a4.392 4.392 0 0 1-.21-1.358 1.408 1.408 0 0 1 .233-.961.894.894 0 0 1 1.1-.369zm7.952 3.26a.583.583 0 0 1 .268.565c0 .448-.3.846-.931 1.223a7.94 7.94 0 0 1-2.413 1.018c-.077-.008-.092-.022-.1-.088-.011-.089.044-.19.363-.671a9.318 9.318 0 0 1 1.456-1.771 1.529 1.529 0 0 1 1.022-.367.589.589 0 0 1 .335.091zm-15.8.069a1.759 1.759 0 0 1 .815.521 10.739 10.739 0 0 1 1.052 1.293c.1.153.272.381.375.508.148.187.185.25.185.326 0 .132-.039.161-.222.158a5.517 5.517 0 0 1-1.9-.7 4.26 4.26 0 0 0-.419-.213 2.068 2.068 0 0 1-1.042-.883.516.516 0 0 1-.067-.367 1 1 0 0 1 .254-.575 1.369 1.369 0 0 1 .973-.064z" transform="translate(-1143.271 -2433.195)"/>
                <path id="パス_48711" data-name="パス 48711" class="cls-4" d="M1340.846 2496.02a1.01 1.01 0 0 0-.084.246 3.252 3.252 0 0 1-.5 1 4.439 4.439 0 0 1-1.448 1.544 3.046 3.046 0 0 1-1.272.527 4 4 0 0 1-.9.06 5.313 5.313 0 0 1-1.55-.18 3.2 3.2 0 0 0-.446-.081 1.186 1.186 0 0 0-.411.153c-.29.144-.448.272-.448.361s.306.233.914.443a4.56 4.56 0 0 0 2.375.262 6.792 6.792 0 0 0 2.691-.748 3.307 3.307 0 0 0 1.653-1.7 1.277 1.277 0 0 0 .084-.6 1.531 1.531 0 0 0-.078-.624c-.119-.375-.261-.59-.44-.664-.085-.035-.1-.035-.133 0z" transform="translate(-1308.314 -2488.341)"/>
                <path id="パス_48712" data-name="パス 48712" class="cls-4" d="M1138.717 2497.124a2.1 2.1 0 0 0-.389 1.1 2.27 2.27 0 0 0 .556 1.613 5.6 5.6 0 0 0 3.129 1.633 3.861 3.861 0 0 0 1.236.1 8.246 8.246 0 0 0 2.535-.578 3.391 3.391 0 0 0 .652-.335.384.384 0 0 0-.118-.076 3.217 3.217 0 0 1-.334-.213c-.257-.184-.357-.239-.438-.239a1.9 1.9 0 0 0-.313.1 6.32 6.32 0 0 1-1.164.295 6.79 6.79 0 0 1-1.457-.043 4.531 4.531 0 0 1-3.317-2.391 3.037 3.037 0 0 1-.258-.815.537.537 0 0 0-.039-.175c-.056-.134-.133-.127-.279.026z" transform="translate(-1136.679 -2489.226)"/>
                <path id="パス_48713" data-name="パス 48713" class="cls-4" d="M1234.957 2500.729a6.6 6.6 0 0 0-.92.438.147.147 0 0 0-.049.084 1.79 1.79 0 0 0 .523.482 9.241 9.241 0 0 0 2.317.991 6.961 6.961 0 0 0 2.4.138 9.038 9.038 0 0 0 1.946-.624 5.692 5.692 0 0 0 1.341-.82l.089-.082-.557-.281c-.707-.355-.729-.357-1.142-.123a5.2 5.2 0 0 1-1.71.675 4.665 4.665 0 0 1-1 .032 10.766 10.766 0 0 1-1.008-.06 3.192 3.192 0 0 1-1.9-.809l-.11-.119-.208.078z" transform="translate(-1220.685 -2492.429)"/>
                <path id="パス_48714" data-name="パス 48714" class="cls-4" d="M1206.726 2514.369a4.327 4.327 0 0 1-3.092.134l-.294-.084-.6.292c-.687.334-.712.358-.548.507a3.02 3.02 0 0 0 1.269.5 7.4 7.4 0 0 0 4.275-.511c.325-.17.532-.344.413-.344-.019 0-.292-.131-.608-.291s-.592-.291-.611-.29a1.267 1.267 0 0 0-.2.087z" transform="translate(-1192.69 -2504.398)"/>
                <path id="パス_48715" data-name="パス 48715" class="cls-4" d="M1288.494 2514.824a5.648 5.648 0 0 0-.815.449c-.129.118-.073.19.26.333a10.7 10.7 0 0 0 1.937.561 6.947 6.947 0 0 0 2.549-.187 3.289 3.289 0 0 0 .914-.448c.068-.1.029-.2-.107-.265a12.307 12.307 0 0 0-.637-.253c-.589-.225-.5-.22-.961-.057a2.892 2.892 0 0 1-1.176.16 4.739 4.739 0 0 1-1.588-.32 1.083 1.083 0 0 0-.166-.058c-.011 0-.1.041-.21.086z" transform="translate(-1267.776 -2504.799)"/>
                <path id="パス_48716" data-name="パス 48716" class="cls-4" d="M1305.913 2517.792c-.2.036-.277.087-.6.394a5.882 5.882 0 0 1-.59.5 8.59 8.59 0 0 1-1.379.782 6.984 6.984 0 0 1-1.829.3 9.918 9.918 0 0 0-.555.043 4.128 4.128 0 0 0-.691.572c-.335.3-.626.583-.648.619-.035.057-.035.071.012.122a.209.209 0 0 0 .179.057c.122 0 .143-.014.53-.334.49-.41.666-.532.753-.521.049.007.067.03.073.1s-.021.112-.263.333c-.541.49-.647.6-.647.7s-.022.071.818.78a1.5 1.5 0 0 1 .286.3c.04.085.04.1 0 .168a.425.425 0 0 1-.152.134 12.283 12.283 0 0 1-1.631.411 2.187 2.187 0 0 0-.68.168 14.392 14.392 0 0 0-1.308 1.089c-.118.14-.123.236-.02.49a4.189 4.189 0 0 1 .248.744.21.21 0 0 1-.185.2c-.056.012-.461 0-.9-.031a3.917 3.917 0 0 0-.865-.021c-.089.04-2.572 2.183-2.64 2.276a.486.486 0 0 0-.051.131c-.016.069 0 .1.064.189a1.035 1.035 0 0 1 .2.721c0 .282.019.375.082.375a2.942 2.942 0 0 0 .31-.24l.815-.687 2.879-2.424c.245-.2.718-.6 1.053-.888l3.173-2.671c.238-.2.665-.559.956-.807s1.237-1.041 2.105-1.773c2.606-2.187 2.536-2.129 2.536-2.192 0-.021-.028-.048-.06-.06a13.291 13.291 0 0 0-1.38-.042z" transform="translate(-1272.659 -2507.475)"/>
                <path id="パス_48717" data-name="パス 48717" class="cls-4" d="M1249.836 2519.893c-.083.052-.3.158-.475.239l-.326.148.243.255a4.187 4.187 0 0 1 .886 1.424l.089.235.316-.01a1.142 1.142 0 0 1 .794.194.472.472 0 0 0 .235.1 1.115 1.115 0 0 1 .521.105 1.572 1.572 0 0 1 .272.182c.164.144.223.133.268-.05a3.859 3.859 0 0 1 1.032-1.862c.181-.177.272-.289.272-.33s-.066-.1-.29-.248a8.432 8.432 0 0 0-.491-.293l-.2-.1-.136.045c-.222.078-.5.381-.915 1-.326.489-.408.589-.481.589a3.737 3.737 0 0 1-.294-.475c-.277-.484-.5-.858-.618-1.011a.3.3 0 0 0-.227-.117.741.741 0 0 1-.215-.072c-.07-.054-.085-.05-.257.055z" transform="translate(-1233.898 -2509.247)"/>
                <path id="パス_48718" data-name="パス 48718" class="cls-4" d="M1124.89 2520.955c-.106.076-.026.169.515.591l4.267 3.332c1.394 1.091 2.8 2.195 3.132 2.45s.757.6.955.75l2.982 2.33c.6.47 1.346 1.052 1.66 1.3s.66.517.773.6c.231.181.3.2.267.085a2.106 2.106 0 0 1-.016-.669 2.37 2.37 0 0 1 .144-.387 1.762 1.762 0 0 0 .1-.236s-.115-.107-.248-.236l-.24-.23-.177.082c-.1.045-.205.094-.242.108l-.067.025.089.068c.2.152.252.213.252.308 0 .125-.042.163-.18.163s-.2-.032-.826-.535c-.294-.236-.73-.582-.975-.775l-.875-.691-1.01-.8-.929-.735a984.906 984.906 0 0 0-3.339-2.647c-.482-.362-1.787-1.426-1.8-1.468-.031-.1.03-.167.149-.167.1 0 .164.047.767.549a5.285 5.285 0 0 0 .818.643 1.952 1.952 0 0 0 .235-.183 5.562 5.562 0 0 1 1.261-.843c.252-.125.253-.106-.012-.417a2.343 2.343 0 0 0-.6-.528c-.026 0-.371-.007-.768-.01a5.879 5.879 0 0 1-2.061-.289 4.3 4.3 0 0 1-1.916-1.274c-.259-.333-.224-.312-.434-.286a11.971 11.971 0 0 1-1.4 0c-.161-.015-.222-.011-.263.018z" transform="translate(-1124.849 -2510.228)"/>
                <path id="パス_48719" data-name="パス 48719" class="cls-4" d="M1313.148 2527.781a7.5 7.5 0 0 1-.755.068l-.437.02v.762h.229a3.01 3.01 0 0 1 .528.059c.341.067.517.074.58.024a.694.694 0 0 0 .1-.187c.033-.083.117-.272.183-.416.144-.316.142-.389-.013-.382-.055 0-.243.026-.418.054z" transform="translate(-1289.15 -2516.204)"/>
                <path id="パス_48720" data-name="パス 48720" class="cls-4" d="M1212.884 2528.711a.17.17 0 0 0-.045.105 1.319 1.319 0 0 0 .234.488l.107.146.127-.019a5.859 5.859 0 0 1 .931-.054.8.8 0 0 0 .292-.014c.092-.062 0-.378-.165-.553-.071-.077-.085-.081-.184-.059a3.934 3.934 0 0 1-1.206-.07.1.1 0 0 0-.091.029z" transform="translate(-1202.114 -2517.041)"/>
                <path id="パス_48721" data-name="パス 48721" class="cls-4" d="M1181.406 2536.9a9.209 9.209 0 0 0-3.02.945 3.936 3.936 0 0 0-1.466.99c0 .154.167.213.8.294a12.321 12.321 0 0 0 1.885.126 2.92 2.92 0 0 0 .774-.037 2.3 2.3 0 0 0 .276-.261 4.985 4.985 0 0 1 .416-.386c.433-.347.493-.436.341-.5a7.23 7.23 0 0 0-2 .268c-.535.111-.532.109-.521.052s.18-.121.543-.216a13.1 13.1 0 0 1 2.045-.32l.53-.053.133-.1a5.381 5.381 0 0 1 1.28-.584c.114-.035-.044-.147-.28-.2a9.531 9.531 0 0 0-1.737-.021z" transform="translate(-1170.573 -2524.232)"/>
                <path id="パス_48722" data-name="パス 48722" class="cls-4" d="M1297.429 2537.319a6.475 6.475 0 0 0-.983.179 1.289 1.289 0 0 0-.524.243c-.349.251-.421.469-.175.534.064.017.262.092.439.166l.323.135.677-.016a8.552 8.552 0 0 1 1.92.143 12.315 12.315 0 0 1 2.757.68c0 .012-.02.027-.044.037a.783.783 0 0 1-.471-.067 14.4 14.4 0 0 0-3.665-.508l-.425-.006-.054.073c-.069.091-.048.142.11.257.072.05.335.275.588.5a4.875 4.875 0 0 0 .6.474 9.672 9.672 0 0 0 2.9.083 7.74 7.74 0 0 0 1.651-.35c.05-.041.05-.171 0-.269a3.975 3.975 0 0 0-1.066-.857 14.256 14.256 0 0 0-3.467-1.38 6.065 6.065 0 0 0-1.08-.051z" transform="translate(-1274.789 -2524.621)"/>
                <path id="パス_48723" data-name="パス 48723" class="cls-4" d="M1203.963 2539.275a6.344 6.344 0 0 0-4.3 3.028 3.477 3.477 0 0 0-.467.907.14.14 0 0 0 .07.123c.066.042.106.042.6 0a9.679 9.679 0 0 0 3.627-1.035 1.689 1.689 0 0 0 1.039-.99 5.335 5.335 0 0 1 .676-.935c.136-.145.171-.2.158-.241-.037-.113-.141-.1-.5.052a52.572 52.572 0 0 0-3.372 1.623 11.5 11.5 0 0 0-1.164.73c-.236.175-.395.23-.333.114a6.87 6.87 0 0 1 1.057-.781 13.954 13.954 0 0 1 3.8-2c.249-.052.323-.091.323-.17 0-.113-.246-.306-.485-.379a2.487 2.487 0 0 0-.737-.043z" transform="translate(-1190.137 -2526.337)"/>
                <path id="パス_48724" data-name="パス 48724" class="cls-4" d="M1238.569 2540.5a3.46 3.46 0 0 0-1.728 1.7 8.931 8.931 0 0 0-.676 1.42 15.325 15.325 0 0 0-.7 3.708c0 .486-.015.481.53.209a9.689 9.689 0 0 0 2.481-1.9 5.768 5.768 0 0 0 .921-1.117 5.419 5.419 0 0 0 1.048-2.648.882.882 0 0 0-.432-.932c-.173-.088-.271-.053-.491.167a11.973 11.973 0 0 0-1.159 1.822c-.109.191-.284.488-.389.667l-.517.895-.479.833c-.084.142-.205.356-.27.469-.468.833-.6 1.023-.557.8a11.977 11.977 0 0 1 .645-1.464c.264-.531.349-.693.611-1.165.16-.288.779-1.333 1.077-1.814a14.491 14.491 0 0 0 .756-1.286.288.288 0 0 0-.061-.354.255.255 0 0 0-.243-.092 1.3 1.3 0 0 0-.372.077z" transform="translate(-1221.986 -2527.356)"/>
                <path id="パス_48725" data-name="パス 48725" class="cls-4" d="M1279.3 2545.245a1.323 1.323 0 0 0-.474.246.343.343 0 0 0-.066.346c.026.1.049.121.182.183a3.269 3.269 0 0 0 .381.137 8.076 8.076 0 0 1 2.167 1.111 11.836 11.836 0 0 1 2.1 1.642c0 .022-.032.037-.079.037s-.125-.04-.234-.135a11.1 11.1 0 0 0-2-1.306 45.72 45.72 0 0 0-2.125-1.078c-.369-.168-.385-.173-.449-.13-.26.17-.085 1.08.294 1.529a6.125 6.125 0 0 0 2.035 1.223 11.039 11.039 0 0 0 3.059.744c.4.015.48-.007.494-.138a5.2 5.2 0 0 0-.9-1.782 4.068 4.068 0 0 0-.681-.818 6.024 6.024 0 0 0-2.913-1.81 2.1 2.1 0 0 0-.784 0z" transform="translate(-1259.833 -2531.556)"/>
                <path id="パス_48726" data-name="パス 48726" class="cls-4" d="M1191.693 2557.759a5.687 5.687 0 0 0 .959.8c.1.025.12.008.216-.217a2.229 2.229 0 0 1 .2-.354c.136-.182.115-.2-.2-.209-.133 0-.449-.014-.706-.026a1.5 1.5 0 0 0-.464.007z" transform="translate(-1183.546 -2542.563)"/>
                <path id="パス_48727" data-name="パス 48727" class="cls-4" d="M1181.691 2557.938c0 .024 1.785 1.416 1.816 1.416.007 0 .014-.025.014-.055a.817.817 0 0 1 .055-.2c.044-.114.049-.15.022-.174-.1-.093-1.206-.942-1.266-.974a1.631 1.631 0 0 0-.641-.013z" transform="translate(-1174.763 -2542.71)"/>
                <path id="パス_48728" data-name="パス 48728" class="cls-4" d="M1322.7 2563.2a.513.513 0 0 0 .052.321c.051.069.12.038.312-.137.111-.1.154-.157.136-.177a.812.812 0 0 0-.253-.05c-.216-.019-.227-.016-.246.043z" transform="translate(-1298.575 -2547.311)"/>
                <path id="パス_48729" data-name="パス 48729" class="cls-4" d="M1326.094 2563.383c-.4.407-.433.455-.412.554a.171.171 0 0 0 .2.152c.066-.005.221-.113.627-.438.3-.236.539-.439.54-.448a.746.746 0 0 0-.241-.014 2.463 2.463 0 0 1-.367-.016l-.125-.02-.225.23z" transform="translate(-1301.198 -2547.313)"/>
                <path id="パス_48730" data-name="パス 48730" class="cls-4" d="M1262.1 2569.15a3.368 3.368 0 0 0-.857 1.141c-.208.386-.249.442-.323.442-.091 0-.152-.051-.256-.208-.058-.085-.121-.15-.148-.15s-.089.063-.14.136a6.194 6.194 0 0 1-.442.5l-.349.366.051.093a1.259 1.259 0 0 0 .154.206c.109.118.151.122.263.024a1.6 1.6 0 0 1 .5-.233 1.106 1.106 0 0 1 .388-.035 1.366 1.366 0 0 1 .71.26.317.317 0 0 0 .173.052.522.522 0 0 0 .123-.191 7.5 7.5 0 0 1 .5-.932 2.834 2.834 0 0 1 .7-.722c.167-.09.172-.144.022-.2a3.73 3.73 0 0 1-.728-.482.928.928 0 0 0-.2-.142.47.47 0 0 0-.138.078z" transform="translate(-1243.163 -2552.51)"/>
                <path id="パス_48731" data-name="パス 48731" class="cls-4" d="M1214.453 2570.977a4.922 4.922 0 0 1-.586.157c-.435.09-.57.147-.57.233s.025.1.221.235c.158.108 1.139.858 1.9 1.452.275.215.344.227.344.059 0-.049.051-.341.113-.652a4.609 4.609 0 0 0 .1-.6 1.212 1.212 0 0 0-.232-.2 9.635 9.635 0 0 0-1.095-.758 1.047 1.047 0 0 0-.2.071z" transform="translate(-1202.516 -2554.121)"/>
                <path id="パス_48732" data-name="パス 48732" class="cls-4" d="M1204.745 2574.392a.91.91 0 0 1-.215.047c-.083 0-.1.017-.1.062a.173.173 0 0 0 .021.085c.044.064 3.307 2.561 3.346 2.561s.053-.135.02-.352c-.021-.135.172.031-1.788-1.531-.62-.5-1.139-.9-1.149-.907a.452.452 0 0 0-.13.037z" transform="translate(-1194.726 -2557.148)"/>
                <path id="パス_48733" data-name="パス 48733" class="cls-4" d="M1283.041 2580.391c-.045.044-.376.315-.734.6s-.9.727-1.211.973a3.983 3.983 0 0 0-.532.468c.038.024.03.212-.015.34-.022.064-.03.12-.016.129a.414.414 0 0 0 .159-.014 2.528 2.528 0 0 1 .833.014c.148.041.152.039.265-.031.147-.093 2.651-2.14 2.651-2.168a.366.366 0 0 0-.17-.041 1.525 1.525 0 0 1-.31-.073l-.14-.052-.239.217c-.825.749-1.655 1.467-1.842 1.594s-.357.052-.264-.122c.025-.046.529-.468 1.508-1.259a5.95 5.95 0 0 0 .572-.484.6.6 0 0 0-.174-.075c-.095-.031-.192-.066-.215-.077s-.072.012-.126.061z" transform="translate(-1261.552 -2562.394)"/>
                <path id="パス_48734" data-name="パス 48734" class="cls-4" d="M1261.7 2590.279a1.04 1.04 0 1 0 .463 0 .791.791 0 0 0-.463 0z" transform="translate(-1244.31 -2571.101)"/>
                <path id="パス_48735" data-name="パス 48735" class="cls-4" d="M1246.005 2593.209c-.02.024-.232.175-.474.334s-.45.307-.466.325 0 .061.06.125a1.811 1.811 0 0 0 .491.307.369.369 0 0 0 .122-.065.835.835 0 0 1 .615-.144h.333l.006-.184.006-.184-.316-.28c-.175-.156-.321-.28-.328-.28s-.029.02-.049.045z" transform="translate(-1230.406 -2573.666)"/>
                <path id="パス_48736" data-name="パス 48736" class="cls-4" d="M1247.142 2603.015a1.039 1.039 0 0 0-.233 1.941 1 1 0 0 0 .928 0 1.038 1.038 0 0 0-.233-1.947.8.8 0 0 0-.462 0z" transform="translate(-1231.526 -2582.285)"/>
                <path id="パス_48737" data-name="パス 48737" class="cls-4" d="M1276.705 2603.242a1.041 1.041 0 0 0 .408 2.04 1.068 1.068 0 0 0 .569-.3 1.04 1.04 0 0 0-.543-1.748.779.779 0 0 0-.434.009z" transform="translate(-1257.487 -2582.484)"/>
                <path id="パス_48738" data-name="パス 48738" class="cls-4" d="M1266.226 2609.361a.515.515 0 0 1-.288.009c-.148-.03-.153-.028-.213.041a.4.4 0 0 0-.074.35c.035.133.089.157.255.114a.894.894 0 0 1 .323-.016c.183.022.185.02.268-.071a.2.2 0 0 0 .067-.2c-.013-.1-.135-.277-.182-.266-.009 0-.077.021-.156.041z" transform="translate(-1248.478 -2587.852)"/>
                <path id="パス_48739" data-name="パス 48739" class="cls-4" d="M1262.12 2615.733a1.052 1.052 0 0 0-.785.826.753.753 0 0 0 0 .349 1.034 1.034 0 0 0 1.546.731.873.873 0 0 0 .376-.375 1.037 1.037 0 0 0-.7-1.542.759.759 0 0 0-.441.012z" transform="translate(-1244.681 -2593.449)"/>
                <path id="パス_48740" data-name="パス 48740" class="cls-4" d="M1255 2622.542a.733.733 0 0 1-.215.014c-.058-.008-.1 0-.1.007a4.794 4.794 0 0 0 .464.411.63.63 0 0 0 .024-.229c0-.163 0-.235-.028-.232a1.45 1.45 0 0 0-.143.028z" transform="translate(-1238.86 -2599.438)"/>
                <path id="パス_48741" data-name="パス 48741" class="cls-4" d="M1281.159 2622.751c.005.109.012.219.014.244s.058.007.22-.123c.142-.112.2-.178.181-.191a2.026 2.026 0 0 0-.228-.073l-.195-.054.008.2z" transform="translate(-1262.099 -2599.473)"/>
            </g>
        </g>
    </g>
</svg>
