<svg id="reception_Clients_logo5" xmlns="http://www.w3.org/2000/svg" width="143" height="83">
    <defs>
        <clipPath id="clip-path">
            <path id="長方形_4640" data-name="長方形 4640" transform="translate(0 20)" style="fill:#f1f5f9" d="M0 0h143v43H0z"/>
        </clipPath>
        <style>
            .cls-4{fill:#090405}
        </style>
    </defs>
    <path id="長方形_860" data-name="長方形 860" style="fill:#fff" d="M0 0h143v83H0z"/>
    <g id="マスクグループ_11703" data-name="マスクグループ 11703" style="clip-path:url(#clip-path)">
        <g id="グループ_14325" data-name="グループ 14325" transform="translate(832.982 -2898.527)">
            <path id="パス_48817" data-name="パス 48817" class="cls-4" d="M-745.021 2957.613a27.562 27.562 0 0 0 4.721-8.824 18.817 18.817 0 0 1-7.937 1.2 12.665 12.665 0 0 1-5.775-1.649c-3.315-1.983-3.571-5.211-.588-7.685a13.751 13.751 0 0 1 7.687-2.865 15.713 15.713 0 0 1 4.509.124c.587.113 1.282.31 1.193-.694-.064-.715.471-1.751-1.025-1.736-4.4.046-8.812.017-13.218.016-1.7 0-1.712 0-1.7-1.645.021-2.743-.266-2.26 2.252-2.277 4.167-.028 8.335-.035 12.5.013.941.011 1.23-.273 1.23-1.2 0-1.13-.523-2.572.279-3.313.732-.676 2.131-.2 3.234-.206 3.116-.028 3.1-.01 3.121 3.067.01 1.852-.262 1.614 1.653 1.632 1.627.015 3.255.028 4.882-.008.7-.016.971.206 1.009.937.158 3 .18 3-2.862 3-1.27 0-2.541.026-3.81-.009-.667-.019-.9.209-.888.889.038 1.825.008 3.651.018 5.477a2 2 0 0 0 .125.809c1.253 2.694.949 5.405.125 8.126a18.861 18.861 0 0 1-2.986 6.045c-.255.336-.466.771-.988.772-2.161.006-4.325.004-6.761.004zm-1.361-10.71c2.946-.085 4.648-1.4 5.151-3.8.22-1.052-.2-1.473-1.1-1.694a6.72 6.72 0 0 0-5.42 1.123c-1.018.66-1.941 1.495-1.7 2.876.184 1.001 1.421 1.543 3.069 1.492z"/>
            <path id="パス_48818" data-name="パス 48818" class="cls-4" d="M-776.835 2957.645c-3.3 0-3.3 0-4.223-3.131-1.3-4.409-2.619-8.812-3.879-13.232-.248-.874-.635-1.23-1.565-1.183-1.465.074-2.937 0-4.4.025-.72.014-1.1-.175-1.084-1 .08-3.709-.478-2.93 2.877-2.991 2.611-.048 2.612-.01 1.862-2.546-.561-1.9-1.11-3.8-1.692-5.7-.2-.66-.073-.929.672-.911 1.627.039 3.256.049 4.882 0 .724-.025.964.326 1.133.923.563 1.982 1.184 3.948 1.719 5.937.212.786.466 1.009 1.3.664q3.293-1.366 6.66-2.552a12.825 12.825 0 0 1 8.408-.2c3.728 1.209 5.844 4.034 5.516 7.362a8.31 8.31 0 0 1-7.111 7.534c-1.731.209-3.465.407-5.189.672-.744.114-1.079-.112-1.237-.843-.686-3.185-1.123-2.361 1.936-2.987.505-.1 1.016-.173 1.525-.253a3.285 3.285 0 0 0 3.082-3.215 3.627 3.627 0 0 0-2.176-3.858 5.462 5.462 0 0 0-4.179-.114c-2.13.754-4.219 1.62-6.35 2.368-.932.328-.534.889-.38 1.414 1.624 5.511 3.23 11.028 4.913 16.521.334 1.091.154 1.44-.989 1.311a17.968 17.968 0 0 0-2.031-.015z"/>
            <path id="パス_48819" data-name="パス 48819" class="cls-4" d="M-708.244 2957.645c-3.2 0-3.208 0-4.127-3.093-1.32-4.444-2.65-8.885-3.923-13.343a1.273 1.273 0 0 0-1.491-1.107c-1.506.059-3.017-.008-4.525.021-.722.014-.939-.272-.96-.985-.09-3.012-.112-3.012 2.854-3.012 2.6 0 2.6 0 1.848-2.5-.555-1.86-1.084-3.729-1.666-5.581-.231-.733-.188-1.1.731-1.066q2.379.082 4.762 0c.71-.023.973.292 1.146.905.549 1.945 1.171 3.869 1.689 5.822.238.9.564 1.1 1.48.752a64.709 64.709 0 0 1 8.149-2.964 12.4 12.4 0 0 1 6.693.227c3.853 1.217 5.868 3.944 5.573 7.541a8.283 8.283 0 0 1-7 7.372c-1.769.231-3.542.433-5.308.682-.653.092-.977-.039-1.18-.758-.759-2.688-.793-2.677 1.921-3.077.431-.064.858-.157 1.289-.223 2.161-.329 3.177-1.364 3.3-3.369a3.656 3.656 0 0 0-2.971-4 6.148 6.148 0 0 0-3.846.315c-1.859.684-3.692 1.443-5.564 2.09-.829.286-.979.648-.727 1.481 1.671 5.538 3.261 11.1 4.947 16.635.325 1.066.089 1.343-.954 1.25-.707-.066-1.426-.015-2.14-.015z"/>
            <path id="パス_48820" data-name="パス 48820" d="M-823.824 2950.026a12.082 12.082 0 0 0 .917 3.927 4.245 4.245 0 0 0 5.07 2.548 7.833 7.833 0 0 0 3.72-1.787 25.672 25.672 0 0 0 8.771-18.014 8.1 8.1 0 0 0-.275-2.359c-.937-4.044-4.482-5.757-8.24-3.967-.7.334-1.352.775-2.206 1.272a3.424 3.424 0 0 1 .964-1.477 15.886 15.886 0 0 1 5.035-4.115c5.482-2.694 10.746.348 11.18 6.433a22.952 22.952 0 0 1-2.142 10.872 42.458 42.458 0 0 1-9.232 14.034 12.578 12.578 0 0 1-6.96 3.862 5.182 5.182 0 0 1-5.893-3.194 13.046 13.046 0 0 1-.709-8.035z" style="fill:#3c6c28"/>
            <path id="パス_48821" data-name="パス 48821" d="M-813.31 2936.194c.021.088.07.17.053.235-.58 2.265-1.987 3.8-3.541 3.864-1.655.072-3.254-1.138-4.012-3.364a21.949 21.949 0 0 1-.188-13.692 6 6 0 0 1 1.675-2.708 3.361 3.361 0 0 1 5.368.787 12.648 12.648 0 0 1 1.314 5.7c-.219-.344-.37-.615-.553-.863a1.92 1.92 0 0 0-3.153-.115 4.046 4.046 0 0 0-.892 1.925 17.506 17.506 0 0 0 .136 7.555 4.428 4.428 0 0 0 .493 1.205 1.453 1.453 0 0 0 2.608.237c.225-.26.322-.632.692-.766z" style="fill:#de6114"/>
            <path id="パス_48822" data-name="パス 48822" class="cls-4" d="M-704.171 2924.873a3.02 3.02 0 0 1 3.112 2.918 3.11 3.11 0 0 1-3.085 3.1 3.124 3.124 0 0 1-3.055-3.018 3.026 3.026 0 0 1 3.028-3z"/>
            <path id="パス_48823" data-name="パス 48823" class="cls-4" d="M-769.765 2927.845a3.035 3.035 0 0 1-2.983 3.051 3.065 3.065 0 0 1-3.1-3.072 2.987 2.987 0 0 1 3.059-2.952 2.944 2.944 0 0 1 3.024 2.973z"/>
            <path id="パス_48824" data-name="パス 48824" class="cls-4" d="M-727.452 2923.749a10.514 10.514 0 0 1-4.748 6.307c-.791.454-1.275.038-1.233-.9.087-1.888 3.027-5.9 4.779-6.522.798-.28 1.24.041 1.202 1.115z"/>
            <path id="パス_48825" data-name="パス 48825" class="cls-4" d="M-722.839 2923.61a6.117 6.117 0 0 1-.221.879 11.308 11.308 0 0 1-4.12 5.385c-.383.267-.857.544-1.318.206s-.363-.834-.22-1.307a10.857 10.857 0 0 1 4.317-5.928c.933-.645 1.535-.355 1.562.765z"/>
            <path id="パス_48826" data-name="パス 48826" d="M-812.572 2941.521c-.161.684-.24 1.108-.363 1.519a3.72 3.72 0 0 1-5.2 2.655 8.354 8.354 0 0 1-2.843-1.7 17.238 17.238 0 0 1-5.334-8.829 10.342 10.342 0 0 1-.27-1.641c-.3-3.419.5-4.892 3.349-5.769a9.163 9.163 0 0 1 1.316-.013c-.186-.1-.387-.207-.6-.314a9.565 9.565 0 0 0-4.775-1.77 4.942 4.942 0 0 0-5.219 3.49 7.578 7.578 0 0 0-.475 2.8c.221 6.155 3.126 10.952 7.636 14.9a13.194 13.194 0 0 0 5.626 2.99c2.709.656 5.046-.031 6.3-1.911 1.268-1.894 1.375-3.977.852-6.407z" style="fill:#d53715"/>
        </g>
    </g>
</svg>
