<svg xmlns="http://www.w3.org/2000/svg" width="143" height="83">
    <defs>
        <clipPath id="a">
            <path data-name="長方形 4641" transform="translate(0 20)" style="fill:#f1f5f9" d="M0 0h143v43H0z"/>
        </clipPath>
    </defs>
    <path data-name="長方形 860" style="fill:#fff" d="M0 0h143v83H0z"/>
    <g data-name="マスクグループ 11704" style="clip-path:url(#a)">
        <path data-name="パス 48827" d="M40.159 42.247V30.009c0-1.518.049-1.568 1.526-1.569h10.442a6.646 6.646 0 0 1 6.99 6.214c.249 2.362.345 4.819-1.291 6.807a11.758 11.758 0 0 1-2.751 2.231c-.589.381-.73.611-.363 1.234q2.715 4.62 5.354 9.284c.179.318.406.743.586 1.146a.414.414 0 0 1-.359.582c-1.15.057-3.5.085-3.923.085-.527 0-.9-.6-1.909-2.66-1.4-2.862-3.157-5.547-4.731-8.325a1.343 1.343 0 0 0-1.364-.788c-.885.037-1.774.047-2.657 0s-1.166.324-1.158 1.173c.031 3 .013 6.008.011 9.013 0 1.543-.045 1.595-1.608 1.584-3.161-.022-2.78.375-2.793-2.766-.013-3.668-.002-7.338-.002-11.007zm8.511-9.6h-2.656c-1.445 0-1.448 0-1.45 1.4v4.644c0 1.483.025 1.506 1.462 1.509 1.486 0 2.972.018 4.457-.009a7.992 7.992 0 0 0 1.781-.2c1.914-.477 2.782-2.069 2.5-4.479a3.3 3.3 0 0 0-3.343-2.867c-.917-.008-1.834.003-2.751.001zm55.869 23.373c.95 0 1.9.01 2.848 0a6.547 6.547 0 0 0 6.5-5.209 18.5 18.5 0 0 0 .206-3.772 6.483 6.483 0 0 0-5.6-6.628 37.633 37.633 0 0 0-4.919-.185 3.278 3.278 0 0 1-3.532-3.572v-.664a3.243 3.243 0 0 1 3.37-3.338 75.203 75.203 0 0 1 2.468 0 3.029 3.029 0 0 1 3.2 2.422.937.937 0 0 0 1.251.779c.718-.121 1.432-.271 2.154-.35.918-.1 1.14-.6 1-1.443a6.363 6.363 0 0 0-5.261-5.415 35.371 35.371 0 0 0-6.9-.079 5.883 5.883 0 0 0-4.6 3.005c-1.33 2.163-1.3 4.539-.939 6.9a6.72 6.72 0 0 0 6.745 5.765c1.328.024 2.659-.024 3.986.019a3.171 3.171 0 0 1 3.175 3.22c.009.379.01.759 0 1.138a3.1 3.1 0 0 1-3.172 3.193c-1.265.028-2.532-.006-3.8.009a2.988 2.988 0 0 1-2.768-1.683c-.926-1.63-.529-1.739-2.367-1.417-.249.043-1.251.252-1.5.291-1.258.2-1.017.319-.806 1.55a6.717 6.717 0 0 0 6.314 5.46c.98.023 1.962 0 2.942 0zm-27.867-8.024c0 2.246.007 4.492 0 6.737 0 1.145-.134 1.282-1.238 1.286-2.785.008-5.57.027-8.354-.006a6.235 6.235 0 0 1-6.234-6.3c-.023-1.85-.041-3.667 1.182-5.245a6 6 0 0 1 4.757-2.542c1.55-.04 3.1 0 4.652-.018.987-.012 1.218-.375.76-1.232a2.952 2.952 0 0 0-2.716-1.758c-1.962 0-3.924 0-5.886-.008-1.176-.008-1.377-.207-1.377-1.4 0-2.945-.251-2.592 2.574-2.608q2.658-.015 5.316 0a6.4 6.4 0 0 1 6.557 6.453c.042 2.212.006 4.426.007 6.64zm-4.2-1.345c.011-.577-.2-.89-.825-.881-1.265.019-2.534-.04-3.8.029a3.179 3.179 0 0 0-2.932 2.974 2.987 2.987 0 0 0 2.516 3.191 37.868 37.868 0 0 0 4.983.26c.233-.005.039-4.816.054-5.574zm12.139 3.261c1.589 1.8 3.157 3.618 4.766 5.4a1.892 1.892 0 0 0 1.083.663 34.093 34.093 0 0 0 3.7.021c.722-.029.87-.439.4-1-.592-.7-1.223-1.365-1.834-2.047-2.065-2.306-4.119-4.622-6.2-6.911-.415-.457-.393-.753.035-1.179.872-.869 1.686-1.8 2.535-2.69 1.5-1.579 3.024-3.142 4.513-4.735a1.13 1.13 0 0 0 .3-.813c-.023-.153-.435-.381-.69-.353a16.377 16.377 0 0 0-3.712.1 20.6 20.6 0 0 0-2.856 2.62c-1 .941-2.007 1.878-3.106 2.9v-1.049c0-3.762-.015-7.524.01-11.286.005-.8-.252-1.183-1.092-1.13-.63.039-1.265.028-1.9 0-.766-.03-1.079.311-1.078 1.075q.015 12.71 0 25.418c0 .749.277 1.124 1.059 1.1a25.446 25.446 0 0 1 1.992 0c.728.031 1.026-.281 1.013-1.012-.027-1.549-.016-3.1 0-4.647a12.216 12.216 0 0 1 .176-1.3c.411.404.667.611.882.854zm31.553-.356c.049 2.927 1.734 5.556 4.491 6.1a17.823 17.823 0 0 0 6.742.042c3.14-.625 4.7-3.189 4.727-6.793.027-3.732.01-7.463 0-11.194 0-1.257-.192-1.441-1.415-1.459a45.223 45.223 0 0 0-1.328 0c-1.324.016-1.458.148-1.459 1.481 0 3.668.005 7.336-.006 11a2.929 2.929 0 0 1-2.022 3.1 7.2 7.2 0 0 1-2.795.2 3 3 0 0 1-2.74-3.288c-.01-3.194.005-6.388-.006-9.581s.391-2.917-3.092-2.912c-.8 0-1.127.365-1.117 1.166.026 2.055.009 4.111.009 6.166 0 1.987-.027 3.98.007 5.971zm18.608 5.2c0 1.126.134 1.254 1.263 1.259 1.931.009 3.863-.024 5.793.015.848.017 1.2-.268 1.177-1.149-.069-3.139.376-2.674-2.637-2.711-1.392-.017-1.395-.007-1.395-1.454v-20.5a2.189 2.189 0 0 0-.038-.935c-.176-.328-.5-.734-.817-.8a9.953 9.953 0 0 0-1.987-.045c-1.251.008-1.358.108-1.36 1.356q-.008 6.218 0 12.434-.006 6.268-.003 12.533zm-116.61 5.639C8.446 60.679-.032 52.149.005 42.147A18.474 18.474 0 0 1 18.32 23.998 18.255 18.255 0 0 1 36.373 42.21a18.026 18.026 0 0 1-18.215 18.188zM.686 42.215c-.215 9.469 7.855 17.583 17.415 17.6a17.555 17.555 0 0 0 17.631-17.622 17.558 17.558 0 0 0-17.514-17.55C8.574 24.597.475 32.754.682 42.218zm33.83.029a16.387 16.387 0 0 1-16.334 16.418 16.468 16.468 0 0 1-16.379-16.5A16.477 16.477 0 0 1 18.215 25.79a16.4 16.4 0 0 1 16.297 16.457zM12.171 53.218a3.786 3.786 0 0 0 .382.319 12.768 12.768 0 0 0 13.649-1.551 1 1 0 0 0 .282-1.344c-1.106-2.128-2.153-4.29-3.34-6.372-1.072-1.881-1.547-1.839-2.671.087-.589 1.009-1.082 2.075-1.665 3.088-.136.237-.494.54-.69.5-.276-.053-.532-.369-.727-.626a1.33 1.33 0 0 1-.17-.633c-.212-1.852-.413-3.7-.62-5.556-.2-1.758-.355-3.522-.619-5.27a1.673 1.673 0 0 0-.743-1.145c-.479-.218-1.983 1.131-2 1.722a10.293 10.293 0 0 0 .095 2.455c.611 2.747 1.317 5.472 1.984 8.207a1.549 1.549 0 0 0 1.545 1.281c.88.068 1.76.162 2.631.3a1.056 1.056 0 0 0 1.259-.566 12.856 12.856 0 0 1 1.047-1.579c.125-.163.4-.207.612-.306a2.566 2.566 0 0 1 .126.753 2.157 2.157 0 0 1-.314.685c-.781 1.447-1.616 2.867-2.331 4.346a1.172 1.172 0 0 1-1.712.705 8.462 8.462 0 0 0-6.014.503zm-2.625-1.525c.922-.892 1.968-1.416 1.6-2.652-.989-3.3-2.049-6.581-3.083-9.869a1.164 1.164 0 0 0-1.208-.988c-.767.019-.814.633-.922 1.126a12.269 12.269 0 0 0 .97 8.493 38.222 38.222 0 0 0 2.639 3.893zm19.815-4.1c.156-.081.2-.088.209-.11a12.249 12.249 0 0 0-.466-11.522c-.245-.458-.553-.451-.916-.146-.773.648-1.54 1.3-2.323 1.938a1.412 1.412 0 0 0-.353 2 142.047 142.047 0 0 1 2.406 4.613c.511 1.045.947 2.12 1.439 3.231zm-4.715-16.019c-5.495-3.982-14.393-1.56-17.133 4.282a16.94 16.94 0 0 0 2.247-.653c2.511-1.123 4.992-2.31 7.49-3.461a18.332 18.332 0 0 1 1.926-.793c1.901-.62 3.673.014 5.466.629zm-3.475 6.356a11.971 11.971 0 0 0 .28 1.664c.043.153.634.344.724.257a38.259 38.259 0 0 0 2.611-2.717.975.975 0 0 0-.013-.945 25.117 25.117 0 0 0-2.616-1.646c-.426-.238-.715-.049-.752.473-.067.912-.149 1.819-.238 2.918z"/>
    </g>
</svg>
