<?xml version="1.0" encoding="utf-8"?>
<!-- Generator: Adobe Illustrator 23.0.2, SVG Export Plug-In . SVG Version: 6.00 Build 0)  -->
<svg version="1.1" id="レイヤー_1" xmlns="http://www.w3.org/2000/svg" xmlns:xlink="http://www.w3.org/1999/xlink" x="0px"
	 y="0px" viewBox="0 0 143 83" style="enable-background:new 0 0 143 83;" xml:space="preserve">
<style type="text/css">
	.st0{fill:none;}
	.st1{fill:#E9546B;}
	.st2{fill:#00478B;}
</style>
<g>
	<g>
		<g>
			<g>
				<rect x="0.7" y="24.3" class="st0" width="141" height="35.2"/>
			</g>
		</g>
		<rect x="0.7" y="24.3" class="st0" width="141" height="35.2"/>
		<g>
			<g>
				<g>
					<path class="st1" d="M41,38c0,0.5-0.2,0.7-0.7,0.7h-4.7c-0.5,0-0.7-0.2-0.7-0.7v-4.7c0-0.5,0.2-0.7,0.7-0.7h4.7
						c0.5,0,0.7,0.2,0.7,0.7V38z"/>
				</g>
				<g>
					<path class="st1" d="M41,50.4c0,0.5-0.2,0.7-0.7,0.7h-4.7c-0.5,0-0.7-0.2-0.7-0.7v-4.7c0-0.5,0.2-0.7,0.7-0.7h4.7
						c0.5,0,0.7,0.2,0.7,0.7V50.4z"/>
				</g>
				<g>
					<path class="st1" d="M27.9,51.1c0.5,0,0.7-0.2,0.7-0.7v-4.7c0-0.5-0.2-0.7-0.7-0.7h-4.7c-0.5,0-0.7-0.2-0.7-0.7v-4.7
						c0-0.5,0.2-0.7,0.7-0.7h4.7c0.5,0,0.7-0.2,0.7-0.7v-4.7c0-0.5-0.2-0.7-0.7-0.7H15c-1.3,0-1.9,0.6-1.9,1.9v14.8
						c0,1.3,0.6,1.9,1.9,1.9H27.9z"/>
				</g>
			</g>
			<g>
				<g>
					<path class="st2" d="M100.1,38.6c-1.4,3.8-1.9,4.9-5,4.9c-0.3,0-0.3-0.1-0.2-0.3l2.4-6.5c0.1-0.3,0.1-0.3-0.2-0.3H92
						c-0.7,0-0.9-0.5-0.9-1.1c0-0.6,0.3-1.1,0.9-1.1l7.1,0C100.6,34.1,101.1,35.6,100.1,38.6z"/>
					<path class="st2" d="M122.1,40.6c-0.8,0.4-0.8,1.2-0.4,1.9c0.4,0.7,1,1.1,1.8,0.7l3.5-1.9c2.9-1.5,4-2.2,3.4-4.8
						c-0.1-0.2-0.1-0.3-0.3-0.1L122.1,40.6z"/>
					<path class="st2" d="M119.7,34.1c-0.3-0.6-0.9-1-1.6-0.6l-7.7,4.1c-0.2,0.1-0.2,0.2-0.1,0.3c1.3,1.4,2.3,1.3,4.1,0.5v3.9
						c0,0.9,0.7,1.3,1.5,1.3c0.8,0,1.5-0.4,1.5-1.3v-5.4l2-1C120.1,35.4,120.1,34.7,119.7,34.1z"/>
					<path class="st2" d="M125,36.2c0.8,0,1.2-0.6,1.2-1.4c0-0.8-0.3-1.4-1.2-1.4h-2.6c-0.8,0-1.2,0.6-1.2,1.4
						c0,0.8,0.3,1.4,1.2,1.4H125z"/>
					<g>
						<path class="st2" d="M88.1,35.2h-7.3c-0.6,0-0.9,0.5-0.9,1c0,0.6,0.2,1,0.9,1h5.3c0.3,0,0.3,0.1,0.2,0.3l-2,5.5
							c-0.1,0.3-0.1,0.3,0.2,0.3c3.1,0,3.6-1,4.8-4.6C90.3,36.3,89.6,35.2,88.1,35.2z"/>
						<path class="st2" d="M81.5,34.5h6.7c0.6,0,0.8-0.4,0.8-1c0-0.5-0.2-1-0.8-1h-6.7c-0.6,0-0.8,0.4-0.8,1
							C80.7,34.1,80.9,34.5,81.5,34.5z"/>
					</g>
					<path class="st2" d="M63.2,41.3c0.3,0,0.3-0.1,0.3-0.3v-4.3c0-0.3-0.1-0.3-0.3-0.3h-4.4c-0.6,0-0.9-0.5-0.9-1
						c0-0.6,0.3-1,0.9-1h6.4c1.5,0,1.8,1,1.8,3.7c0,3.6-0.1,5.4-3.2,5.4l-5,0c-0.6,0-0.9-0.5-0.9-1c0-0.6,0.3-1,0.9-1H63.2z"/>
					<path class="st2" d="M52.5,41.3c0.3,0,0.3-0.1,0.3-0.3v-4.3c0-0.3-0.1-0.3-0.3-0.3h-4.4c-0.6,0-0.9-0.5-0.9-1
						c0-0.6,0.3-1,0.9-1h6.4c1.5,0,1.8,1,1.8,3.7c0,3.6-0.1,5.4-3.2,5.4l-5,0c-0.6,0-0.9-0.5-0.9-1c0-0.6,0.3-1,0.9-1H52.5z"/>
					<path class="st2" d="M76.9,34.6h-2.8l0.2-0.9c0.2-0.9-0.4-1.3-1.2-1.3c-0.8,0-1.6,0.4-1.8,1.3l-0.2,0.9h-1.3
						c-0.6,0-0.9,0.5-0.9,1c0,0.6,0.3,1,0.9,1h0.8l-1.3,6.3c-0.1,0.2,0,0.3,0.2,0.3c2.6,0,3-1.2,3.7-4.3l0.5-2.3l1.3,0
						c0.3,0,0.3,0.1,0.3,0.3l0,6c0,0.3,0.1,0.3,0.3,0.3c3.1,0,3.2-1.4,3.2-5.1C78.8,35.7,78.4,34.6,76.9,34.6z"/>
					<g>
						<path class="st2" d="M104.6,38.4c-0.7,0-1.4,0.3-1.5,1.1l-0.8,3.7c0,0.2,0,0.2,0.2,0.2c2.2,0,2.6-1.1,3.1-3.7l0-0.2
							C105.8,38.7,105.3,38.4,104.6,38.4z"/>
						<path class="st2" d="M108,36.2h-5.6c-0.5,0-0.7,0.4-0.7,0.8c0,0.4,0.2,0.8,0.7,0.8h4.1c0.2,0,0.2,0,0.2,0.3l-0.5,2.3
							c0,0.2,0,0.2,0.2,0.2c2.1,0,2.4-0.8,2.8-2.6C109.5,37,109.1,36.2,108,36.2z"/>
					</g>
				</g>
				<g>
					<path class="st2" d="M117.4,50.7c0,0.5-0.4,1-1,1c-0.5,0-1-0.4-1-1c0-0.5,0.4-1,1-1C116.9,49.8,117.4,50.2,117.4,50.7z
						 M115.9,50.7c0,0.3,0.2,0.5,0.5,0.5c0.3,0,0.5-0.2,0.5-0.5c0-0.3-0.2-0.5-0.5-0.5C116.2,50.2,115.9,50.4,115.9,50.7z"/>
					<path class="st2" d="M64.4,47.5c0.4,0,0.7,0.1,0.7,0.7v2.3c0,0.5-0.2,0.7-0.7,0.7h-2.9C61,51.3,61,51,61,50.8
						c0-0.2,0.1-0.4,0.4-0.4h2.6c0.1,0,0.2-0.1,0.2-0.2v-1.8c0-0.1,0-0.2-0.2-0.2h-2.6c-0.4,0-0.4-0.3-0.4-0.4
						c0-0.2,0.1-0.4,0.4-0.4H64.4z"/>
					<path class="st2" d="M69.6,47.5c0.4,0,0.7,0.1,0.7,0.7v2.3c0,0.5-0.2,0.7-0.7,0.7h-2.9c-0.4,0-0.4-0.3-0.4-0.4
						c0-0.2,0.1-0.4,0.4-0.4h2.6c0.1,0,0.2-0.1,0.2-0.2v-1.8c0-0.1,0-0.2-0.2-0.2h-2.6c-0.4,0-0.4-0.3-0.4-0.4
						c0-0.2,0.1-0.4,0.4-0.4H69.6z"/>
					<path class="st2" d="M75.8,50.6c0,0.6-0.3,0.7-0.7,0.7h-2.6c-0.5,0-0.7-0.2-0.7-0.7v-2.5c0-0.6,0.3-0.7,0.7-0.7h2.6
						c0.5,0,0.7,0.2,0.7,0.7V50.6z M72.5,50.3c0,0.1,0.1,0.2,0.2,0.2h2.1c0.1,0,0.2-0.1,0.2-0.2v-1.9c0-0.1-0.1-0.2-0.2-0.2h-2.1
						c-0.1,0-0.2,0.1-0.2,0.2V50.3z"/>
					<path class="st2" d="M78,51.7c-0.2,0-0.3-0.1-0.4-0.3c-0.2-0.3-0.3-0.3-0.7-0.8c-0.1-0.1-0.1-0.1-0.1-0.3
						c0-0.2,0.2-0.4,0.4-0.4c0.1,0,0.2,0.1,0.6,0.4c0.3,0.3,0.5,0.6,0.6,0.7c0.1,0.1,0.1,0.1,0.1,0.2C78.5,51.5,78.3,51.7,78,51.7z"
						/>
					<path class="st2" d="M83.7,47.9h-1.3c0-0.2,0-0.3,0-0.5c0-0.3,0-0.5-0.4-0.5c-0.4,0-0.4,0.3-0.4,0.4c0,0.2,0,0.4,0,0.6h-1
						c-0.1,0-0.4,0-0.4,0.4c0,0.4,0.3,0.4,0.4,0.4h0.9c-0.1,0.7-0.3,1.3-1.1,2c-0.3,0.3-0.3,0.3-0.3,0.4c0,0.2,0.2,0.4,0.4,0.4
						c0.2,0,0.5-0.3,0.8-0.5c0.6-0.6,0.9-1.4,1.1-2.3h1.1c0.1,0,0.2,0,0.2,0.2c0,0.1,0,0.6-0.1,1.1c-0.1,0.6-0.2,0.7-0.4,0.7
						c0,0-0.2,0-0.3,0c-0.3,0-0.4,0.3-0.4,0.4c0,0.4,0.4,0.4,0.7,0.4c0.3,0,0.8,0,1-0.5c0.3-0.6,0.4-2.2,0.4-2.4
						C84.5,48,84.1,47.9,83.7,47.9z"/>
					<path class="st2" d="M89.3,48.4c0.1,0,0.5,0,0.5,0.5c0,0.4-0.3,1.2-0.9,1.8c-0.7,0.7-1.7,1-1.9,1c-0.3,0-0.4-0.3-0.4-0.5
						c0-0.2,0.1-0.3,0.7-0.5c1.1-0.4,1.6-1.3,1.6-1.5c0-0.1-0.1-0.1-0.1-0.1h-2.9c-0.1,0-0.4,0-0.4-0.4c0-0.3,0.1-0.4,0.4-0.4H89.3z
						 M89.1,47.2c0.1,0,0.4,0,0.4,0.4c0,0.3-0.2,0.4-0.4,0.4h-2.7c-0.1,0-0.4,0-0.4-0.4c0-0.3,0.2-0.4,0.4-0.4H89.1z"/>
					<path class="st2" d="M97.4,51.7c-0.2,0-0.3-0.1-0.4-0.3c-0.2-0.3-0.3-0.3-0.7-0.8c-0.1-0.1-0.1-0.1-0.1-0.3
						c0-0.2,0.2-0.4,0.4-0.4c0.1,0,0.2,0.1,0.6,0.4c0.3,0.3,0.6,0.6,0.6,0.7c0.1,0.1,0.1,0.1,0.1,0.2C97.9,51.5,97.6,51.7,97.4,51.7
						z"/>
					<g>
						<path class="st2" d="M95.3,46.9c-0.2,0-0.4,0.1-0.4,0.3c0,0.1,0,0.2,0.1,0.2l0,0c0.1,0.1,0.2,0.2,0.3,0.4
							c0,0.1,0.1,0.2,0.3,0.2c0.1,0,0.3-0.1,0.3-0.3C95.9,47.6,95.5,46.9,95.3,46.9z"/>
						<path class="st2" d="M96.3,46.8c-0.2-0.1-0.4,0.1-0.4,0.3c0,0.1,0,0.1,0.1,0.2l0,0c0.1,0.1,0.2,0.2,0.2,0.4l0,0
							c0.1,0.1,0.1,0.2,0.3,0.2c0.2,0,0.3-0.1,0.3-0.3C96.9,47.5,96.5,46.8,96.3,46.8z"/>
						<path class="st2" d="M94.1,47.3l-1.6,0c-0.4,0-0.5,0-0.7,0.3c-0.3,0.5-0.6,0.8-1,1.1c-0.1,0.1-0.1,0.1-0.1,0.3
							c0,0.2,0.2,0.4,0.5,0.4c0.3,0,0.5-0.3,0.8-0.7c0.1-0.1,0.2-0.3,0.5-0.6c0-0.1,0.1-0.1,0.3-0.1h1c0.1,0,0.2,0,0.2,0.1
							c0,0.2-0.2,0.8-0.5,1.1c-0.1-0.1-0.3-0.2-0.4-0.3c-0.4-0.2-0.5-0.2-0.6-0.2c-0.2,0.1-0.4,0.3-0.3,0.5c0,0.1,0.1,0.2,0.2,0.2
							c0.3,0.2,0.5,0.3,0.6,0.4c-0.3,0.3-0.6,0.5-1.2,0.8c-0.3,0.1-0.4,0.2-0.4,0.4c0,0.2,0.1,0.5,0.5,0.5c0.2,0,1-0.4,1.7-1
							c0.9-0.8,1.3-2,1.3-2.6C94.9,47.6,94.6,47.3,94.1,47.3z"/>
					</g>
					<g>
						<path class="st2" d="M102.7,47.2c0.1,0.1,0.2,0.2,0.3,0.4c0,0.1,0.1,0.2,0.3,0.2c0.1,0,0.3-0.1,0.3-0.3c0-0.2-0.4-0.8-0.6-0.8
							c-0.2,0-0.4,0.1-0.4,0.3C102.6,47.1,102.6,47.1,102.7,47.2L102.7,47.2z"/>
						<path class="st2" d="M103.9,46.6c-0.2,0-0.4,0.1-0.4,0.3c0,0.1,0,0.1,0.1,0.2l0,0c0.1,0.1,0.2,0.2,0.2,0.4l0,0
							c0.1,0.1,0.1,0.2,0.3,0.2c0.2,0,0.3-0.1,0.3-0.3C104.5,47.3,104.1,46.6,103.9,46.6z"/>
						<path class="st2" d="M103.7,48h-2.6c0.1-0.3,0.2-0.6,0.2-0.7c0-0.3-0.4-0.3-0.5-0.3c-0.2,0-0.3,0.1-0.3,0.3
							c-0.2,0.6-0.4,1.1-0.7,1.6c-0.3,0.5-0.3,0.5-0.3,0.6c0,0.3,0.3,0.4,0.5,0.4c0.2,0,0.3-0.2,0.4-0.3c0.1-0.2,0.3-0.5,0.4-0.7
							h1.3c0,0.9-0.3,1.5-1,2.1c-0.2,0.2-0.3,0.2-0.3,0.4c0,0.3,0.2,0.5,0.5,0.5c0.3,0,0.8-0.5,1.1-0.8c0.6-0.7,0.6-1.5,0.7-2.1h0.7
							c0.4,0,0.4-0.2,0.4-0.4C104.1,48.2,104.1,48,103.7,48z"/>
					</g>
					<path class="st2" d="M109.4,48.8c0,0.3-0.7,1.3-1.7,1.9c-0.9,0.7-1.9,0.9-2.2,0.9c-0.3,0-0.5-0.3-0.5-0.5
						c0-0.3,0.2-0.3,0.5-0.4c1.2-0.3,2.2-1,2.9-1.9c0.3-0.3,0.3-0.4,0.5-0.4C109.1,48.3,109.4,48.5,109.4,48.8z M106.3,47.6
						c0.6,0.3,0.7,0.4,0.7,0.6c0,0.2-0.2,0.5-0.4,0.5c-0.1,0-0.1,0-0.5-0.2c-0.1-0.1-0.7-0.3-0.8-0.4c-0.1,0-0.2-0.1-0.2-0.3
						c0-0.2,0.2-0.5,0.4-0.5C105.8,47.3,106.3,47.6,106.3,47.6z"/>
					<path class="st2" d="M114.4,49c0,0-0.1,0-0.1,0l-1.4,0.2l-0.1-0.6l1.1-0.2c0.2,0,0.4-0.1,0.4-0.4c0-0.2-0.1-0.4-0.4-0.4
						c0,0-0.1,0-0.1,0l-1.1,0.2l-0.1-0.5c0-0.1-0.1-0.4-0.4-0.4c-0.1,0-0.5,0-0.5,0.4c0,0,0,0.1,0,0.1l0.1,0.5l-1.2,0.2
						c-0.1,0-0.4,0.1-0.4,0.4c0,0.3,0.2,0.4,0.4,0.4c0,0,0.1,0,0.1,0l1.2-0.2l0.1,0.6l-1.6,0.3c-0.1,0-0.4,0.1-0.4,0.4
						c0,0.3,0.2,0.4,0.4,0.4c0,0,0.1,0,0.1,0l1.6-0.3l0.2,1.2c0,0.2,0.1,0.4,0.4,0.4c0.3,0,0.5-0.1,0.5-0.4c0,0,0-0.1,0-0.1
						l-0.2-1.2l1.4-0.2c0.1,0,0.4-0.1,0.4-0.4C114.8,49.2,114.7,49,114.4,49z"/>
				</g>
			</g>
		</g>
	</g>
	<g>
		<g>
			<line class="st0" x1="71.2" y1="10.9" x2="71.2" y2="19.8"/>
			<line class="st0" x1="71.2" y1="63.9" x2="71.2" y2="72.8"/>
		</g>
		<g>
			<line class="st0" x1="-12.6" y1="41.9" x2="-3.8" y2="41.9"/>
			<line class="st0" x1="146.2" y1="41.9" x2="155" y2="41.9"/>
		</g>
	</g>
</g>
</svg>
