<svg id="reception_Clients_logo18" xmlns="http://www.w3.org/2000/svg" width="143" height="83">
    <defs>
        <clipPath id="clip-path">
            <path id="長方形_4628" data-name="長方形 4628" transform="translate(0 20)" style="fill:#f1f5f9" d="M0 0h143v43H0z"/>
        </clipPath>
        <style>
            .cls-4{fill:#306cac}
        </style>
    </defs>
    <path id="長方形_860" data-name="長方形 860" style="fill:#fff" d="M0 0h143v83H0z"/>
    <g id="マスクグループ_11696" data-name="マスクグループ 11696" style="clip-path:url(#clip-path)">
        <g id="グループ_14277" data-name="グループ 14277" transform="translate(-2538.262 -1932.246)">
            <path id="パス_48685" data-name="パス 48685" class="cls-4" d="M2680.576 1966.741v4.291h6.543v16.1h4.633v-16.1h6.543v-4.291z" transform="translate(-120.631 -1.267)"/>
            <path id="パス_48686" data-name="パス 48686" class="cls-4" d="M3110.067 1966.741H3098.4v4.325h11.357c1.665 0 2.315.761 2.315 2.714v.72h-9.411c-3.579 0-5.36 1.79-5.36 5.836v.963c0 4.161 1.846 5.833 5.555 5.833h13.8v-13.405c.005-5.138-1.693-6.986-6.589-6.986zm-6.726 16.034c-.7 0-1.488-.358-1.488-2.108s.777-2.055 1.488-2.055h8.733v4.163z" transform="translate(-473.866 -1.267)"/>
            <path id="パス_48687" data-name="パス 48687" class="cls-4" d="M3362.537 1966.741h-11.664v4.325h11.357c1.667 0 2.315.761 2.315 2.714v.72h-9.412c-3.578 0-5.359 1.79-5.359 5.836v.963c0 4.161 1.846 5.833 5.555 5.833h13.8v-13.405c.003-5.138-1.695-6.986-6.592-6.986zm-6.725 16.034c-.7 0-1.488-.358-1.488-2.108s.778-2.055 1.488-2.055h8.733v4.163z" transform="translate(-687.87 -1.267)"/>
            <path id="パス_48688" data-name="パス 48688" class="cls-4" d="M2806.543 1966.741v4.291h6.542v16.1h4.635v-16.1h6.544v-4.291z" transform="translate(-227.405 -1.267)"/>
            <path id="パス_48689" data-name="パス 48689" class="cls-4" d="M3230.464 1966.741v4.291h6.542v16.1h4.635v-16.1h6.542v-4.291z" transform="translate(-586.737 -1.267)"/>
            <path id="パス_48690" data-name="パス 48690" class="cls-4" d="M2978.969 1979.988v-6.1c0-5.344-2.072-7.145-6.746-7.145h-12.405v20.391h12.622c4.96-.002 6.529-2.468 6.529-7.146zm-4.731.09c0 1.953-.659 2.714-2.324 2.714h-7.461v-11.709h7.461c1.665 0 2.324.761 2.324 2.714z" transform="translate(-357.327 -1.267)"/>
            <path id="パス_48691" data-name="パス 48691" class="cls-4" d="M2553.41 1981.009c-.1-.187-6.29-12.25-7.046-13.438a4.309 4.309 0 0 0-3.972-2.325c-1.891 0-4.13.84-4.13 5.38v15.249h4.569v-12.719c0-.912-.057-2.265-.069-2.537-.01-.224 0-.436.114-.5.133-.075.263.046.352.216s5.828 11.523 7.048 13.438a4.31 4.31 0 0 0 3.973 2.326c1.89 0 4.129-.84 4.129-5.381v-15.248h-4.567v12.718c0 .913.054 2.266.067 2.538.01.224 0 .436-.113.5-.134.074-.265-.048-.355-.217z"/>
        </g>
    </g>
</svg>
