<svg xmlns="http://www.w3.org/2000/svg" width="144" height="83">
    <defs>
        <clipPath id="a">
            <path data-name="長方形 4646" transform="translate(8 20)" style="fill:#f1f5f9" d="M0 0h143v43H0z"/>
        </clipPath>
    </defs>
    <path data-name="長方形 860" style="fill:#fff" d="M0 0h143v83H0z"/>
    <g data-name="グループ 11707" transform="translate(-7)" style="clip-path:url(#a)">
        <g data-name="グループ 14333">
            <path data-name="パス 48851" d="M-883.28 3888.875v-2.6h-5.167l-5 15.527-5.356-15.527h-5.167v31.028h5.167v-16.393l2.6 6.06h5.166l2.6-6.06v16.393h5.167v-28.431m-93.11 18.1v-20.695h-5.167v20.695a5.166 5.166 0 0 1-5.167 5.167 5.166 5.166 0 0 1-5.166-5.167v-20.695h-5.194v20.695a10.332 10.332 0 0 0 10.334 10.333 10.338 10.338 0 0 0 10.35-10.332zm31.028 0v-20.695h-5.167v20.695a5.166 5.166 0 0 1-5.167 5.167 5.166 5.166 0 0 1-5.166-5.167v-20.695h-5.167v20.695a10.332 10.332 0 0 0 10.334 10.333 10.315 10.315 0 0 0 10.323-10.332zm31.054 0v-20.695h-5.202v20.695a5.166 5.166 0 0 1-5.167 5.167 5.166 5.166 0 0 1-5.166-5.167v-20.695H-935v20.695a10.333 10.333 0 0 0 10.334 10.333 10.338 10.338 0 0 0 10.36-10.333z" transform="translate(1019.04 -3860.291)" style="fill:#0065a9"/>
        </g>
    </g>
</svg>
