<svg id="reception_Clients_logo6" xmlns="http://www.w3.org/2000/svg" width="143" height="83">
    <defs>
        <clipPath id="clip-path">
            <path id="長方形_4638" data-name="長方形 4638" transform="translate(0 20)" style="fill:#f1f5f9" d="M0 0h143v43H0z"/>
        </clipPath>
        <style>
            .cls-6{fill:#1a1311}
        </style>
    </defs>
    <path id="長方形_860" data-name="長方形 860" style="fill:#fff" d="M0 0h143v83H0z"/>
    <g id="マスクグループ_11701" data-name="マスクグループ 11701" style="clip-path:url(#clip-path)">
        <g id="グループ_14309" data-name="グループ 14309" transform="translate(-1121.004 -2833.461)">
            <g id="グループ_14314" data-name="グループ 14314" transform="translate(1125.004 2853.461)">
                <g id="グループ_14313" data-name="グループ 14313">
                    <g id="グループ_14312" data-name="グループ 14312">
                        <g id="グループ_14311" data-name="グループ 14311">
                            <g id="グループ_14310" data-name="グループ 14310">
                                <g id="グループ_14309-2" data-name="グループ 14309">
                                    <path id="パス_48786" data-name="パス 48786" d="M1131.887 2998.988a5.161 5.161 0 0 0-1.394 1.016 11.653 11.653 0 0 0-1 .958 19.884 19.884 0 0 0-2.564 3.974 19.67 19.67 0 0 0-1.021 2.163 9.481 9.481 0 0 0-.625 2.04 18.534 18.534 0 0 0-.273 1.959 15.812 15.812 0 0 0 .1 2.143 14.808 14.808 0 0 0 1.127 3.86c.122.314.225.618.373.915a6.59 6.59 0 0 0 .4.644c.213.32.426.649.67.949a1.611 1.611 0 0 0 .63.537c.478.165.966.292 1.457.425a22.355 22.355 0 0 0 4.451.747 24.915 24.915 0 0 0 2.773-.015 26.51 26.51 0 0 0 2.3-.2 14.323 14.323 0 0 0 4.5-1.381 13.3 13.3 0 0 0 2.181-1.324 8.378 8.378 0 0 0 1.645-1.73 14.792 14.792 0 0 0 1.794-3.207c.155-.377.315-.741.436-1.133a1.355 1.355 0 0 0 .036-.871 7.019 7.019 0 0 0-.872-1.3c-.738-.972-1.535-1.9-2.292-2.852a15.53 15.53 0 0 0-2.156-2.376 15.786 15.786 0 0 1-1.537-1.416c-.469-.5-.861-1.088-1.3-1.623a8.234 8.234 0 0 0-4.349-3.016 9.754 9.754 0 0 0-2.818-.327c-.449.028-.933.076-1.4.145a5.616 5.616 0 0 0-1.261.3" transform="translate(-1125.004 -2981.713)" style="fill:#003288"/>
                                    <path id="パス_48787" data-name="パス 48787" d="M1205.278 2853.464a3.367 3.367 0 0 0-2 .935 12.084 12.084 0 0 0-1.17 1.156 18.047 18.047 0 0 0-1.346 1.582 11.073 11.073 0 0 0-1.071 1.916 11.419 11.419 0 0 0-.739 1.808 6.887 6.887 0 0 0-.245 1.954 11.486 11.486 0 0 0 .268 2.082 1.493 1.493 0 0 0 1.23 1.352 4.146 4.146 0 0 0 2.265-.332 10.553 10.553 0 0 1 1.152-.324c.277-.055.549-.063.842-.1a7.748 7.748 0 0 0 2.426-.762 5.2 5.2 0 0 0 1.874-1.326 4.323 4.323 0 0 0 .709-1.32 4.859 4.859 0 0 0 .17-1.8 7.441 7.441 0 0 0-.449-2.125 11.719 11.719 0 0 0-1.456-2.656 8.6 8.6 0 0 0-1.057-1.169c-.38-.363-.948-.875-1.4-.875" transform="translate(-1190.158 -2853.461)" style="fill:#dc000c"/>
                                    <path id="パス_48788" data-name="パス 48788" class="cls-6" d="M1158.175 2917.062c-.236-.289-.5-.574-.742-.878-.222-.268-.468-.527-.709-.79a2.8 2.8 0 0 1-.418-.474 2.336 2.336 0 0 0-.5-.525c-.194-.179-.172-.345-.473-.684-.239-.268-.468-.563-.7-.844-.079-.091-.156-.227-.026-.32.224-.241.46-.494.67-.75.229-.28.423-.582.656-.858.209-.242.436-.47.64-.719s.347-.517.543-.762c.129-.16.263-.3.392-.466.085-.11.168-.242.251-.352.206-.281.678-.836.564-1.152a1.22 1.22 0 0 0-.187-.213c-.028-.023-.064-.109-.114-.111s-.163.053-.213.052c-.175-.011-.6.672-.834.857-.179.276-.387.49-.568.748-.132.194-.251.4-.38.6a9.987 9.987 0 0 1-1.017 1.171c-.255.282-.49.626-.731.923-.22.273-.327.313-.5.038a16.889 16.889 0 0 1-1.391-2.037 29.238 29.238 0 0 0-1.53-2.524c-.315-.4-.647-.812-.971-1.2-.236-.277-.462-.565-.69-.839a4.2 4.2 0 0 1-.417-.474c-.082-.135-.192-.26-.275-.392-.7-1.133-.766-1.132-1.147-1.7-.163-.244-.3-.507-.481-.736-.2-.277-.421-.546-.623-.827-.267-.373-.484-.74-.739-1.123-.358-.543-.746-1.105-1.079-1.667a6.33 6.33 0 0 1-.2-.354 25.42 25.42 0 0 0-.54-.928c-.172-.271-.361-.542-.53-.818-.1-.166-.18-.332-.267-.5a5.566 5.566 0 0 0-.568-.807c-.161-.219-.311-.48-.453-.712-.217-.3-.437-.6-.666-.9-.135-.173-.294-.317-.427-.482s-.251-.339-.379-.493c-.207-.252-.417-.512-.631-.76a.249.249 0 0 1-.088-.22c.043-.156.328-.322.45-.449.331-.354.651-.755.959-1.129.4-.493.793-1 1.154-1.521a7.505 7.505 0 0 0 .951-1.715 4.545 4.545 0 0 0 .436-1.647 2.844 2.844 0 0 0-.062-.874 2.684 2.684 0 0 0-2.57-1.893 4.9 4.9 0 0 0-1.677.347 6.327 6.327 0 0 0-1.08.8c.01-.006-.576.468-.568.462a3.544 3.544 0 0 0-.484.52 3.455 3.455 0 0 0-.448.937 5.129 5.129 0 0 0-.333 1.276 5.782 5.782 0 0 0 .822 2.766c.259.369.521.768.754 1.157.179.295.32.563.479.867.058.109-.041.234-.144.358-.141.169-.324.332-.424.442-.314.347-.634.722-.961 1.055-.229.232-.482.449-.717.677-.293.283-.571.578-.852.876-1.3 1.231-2.372 2.681-3.553 4.023-.32.406-.633.852-.93 1.279-.319.457-.639.919-.933 1.384s-.581.934-.853 1.415c-.358.807-.773 1.575-1.184 2.354-.11.352-.255.7-.38 1.051a15.532 15.532 0 0 0-.819 2.645 5.315 5.315 0 0 0-.134 1.184 5.851 5.851 0 0 1-.045.63c-.027.148-.069.152-.076.3a3.768 3.768 0 0 0 .023.468 6.522 6.522 0 0 0-.038 1.042c-.008.167-.053.278-.058.436a5.649 5.649 0 0 0 .054.569c.031.166.043.31.084.473a4.044 4.044 0 0 1 .047.647c.018.148.075.062.128.467a4.261 4.261 0 0 0 .179.717 10.411 10.411 0 0 0 .6 1.43 6.264 6.264 0 0 0 .5.86 8.525 8.525 0 0 0 2.129 2.042 10.507 10.507 0 0 0 1.531.761c.422.2.876.3 1.3.5.351.077.7.142 1.045.211l.692.142a5.122 5.122 0 0 0 .763.067c.211.017.421.047.63.06a16.716 16.716 0 0 0 3.02-.211c.217-.034.461-.105.676-.144.391-.069.687-.07 1.136-.179.64-.156 1.293-.308 1.935-.472.282-.072.563-.175.838-.26.229-.069.453-.114.675-.194a10.286 10.286 0 0 0 1.8-.826 5.888 5.888 0 0 0 .918-.539c.423-.292.892-.5 1.308-.8.786-.565 1.51-1.193 2.238-1.832 1.036-.912 2.148-1.71 3.149-2.667.084-.179.2.01.263.1.152.217.308.462.472.669.145.182.507.6.652.778a1.218 1.218 0 0 0 .346.323c.08.082.144.194.236.243a.691.691 0 0 1 .232.225c.179.248.42.516.64.782a4.9 4.9 0 0 1 .251.341c.107.163.217.211.3.323.122.169.06.227.266.521.107.154.258.133.5.044.079-.031.145-.018.2-.044a.517.517 0 0 0 .05-.648zm-19.714-27.857-.549-.826c-.21-.474-.377-.964-.541-1.455a3.5 3.5 0 0 1-.076-.955 3.549 3.549 0 0 1 .23-.878c.059-.156.085-.326.147-.467a1.694 1.694 0 0 1 .239-.35 7.407 7.407 0 0 1 .514-.541 6.361 6.361 0 0 1 1.378-.975 3.3 3.3 0 0 1 .568-.156 2.473 2.473 0 0 1 .428-.082 2.275 2.275 0 0 1 .582.069 1.456 1.456 0 0 1 .864.537 2.277 2.277 0 0 1 .37 2.515 8.62 8.62 0 0 1-1.554 2.639c-.408.511-.8.931-1.235 1.411-.047.053-.182.185-.258.277-.119.147-.229.32-.346.354-.093.027-.162-.034-.229-.18zm14.764 23.4a29.94 29.94 0 0 1-2.536 2.206c-.606.473-1.218.941-1.8 1.448-.3.268-.628.569-.949.82-.14.11-.281.186-.417.3a7.731 7.731 0 0 1-1.245.772c-.313.172-.633.356-.945.506-.377.179-.754.37-1.135.509-.422.154-.852.269-1.291.406-.643.144-1.275.323-1.915.481a10.738 10.738 0 0 1-1.265.25c-.518.057-1.032.129-1.547.205a10.791 10.791 0 0 1-1.694.164 6.452 6.452 0 0 1-1.554-.123c-.274-.046-.537-.137-.807-.2-.324-.077-.657-.117-.979-.208a7.791 7.791 0 0 1-1.5-.7 5.927 5.927 0 0 1-1.127-.689 6.85 6.85 0 0 1-.975-.729 7.643 7.643 0 0 1-.533-.647 3.953 3.953 0 0 1-.475-.623c-.134-.251-.259-.566-.385-.833-.084-.172-.177-.319-.244-.49a3.935 3.935 0 0 1-.145-.445c-.03-.114-.026-.179-.053-.292a1.649 1.649 0 0 0-.118-.276.635.635 0 0 1-.025-.293 10.9 10.9 0 0 1-.178-3c.025-.67.05-1.347.111-2.015a4.273 4.273 0 0 1 .164-.945c.129-.393.27-.786.411-1.174.164-.455.308-.929.472-1.376a7.357 7.357 0 0 1 .351-.777c.312-.621.659-1.227.951-1.855a14 14 0 0 1 .831-1.559c.389-.613.8-1.216 1.237-1.8.392-.526.731-.891.948-1.161.347-.43.693-.87 1.055-1.291a11.246 11.246 0 0 0 .91-1.029 8.852 8.852 0 0 1 .74-.781c.209-.207.43-.446.635-.662.5-.522.987-1.053 1.509-1.55a11.427 11.427 0 0 0 1.146-1.19c.129-.206.266-.179.394.013.717.878 1.4 1.775 2.065 2.7.37.516.75 1.039 1.086 1.574l.6 1c.2.333.378.685.576 1.029.358.616.747 1.228 1.151 1.82.244.359.487.725.712 1.1.146.239.289.487.453.715.438.6.91 1.174 1.339 1.783a7.2 7.2 0 0 0 .811 1.2c.288.365.583.732.866 1.083.4.487.823.941 1.189 1.453.293.406.531.845.819 1.256.293.546.594 1.088.917 1.619.16.267.324.543.5.8.107.146.217.28.332.418a4.176 4.176 0 0 1 .572.806.179.179 0 0 1-.013.277" transform="translate(-1126.227 -2878.538)"/>
                                </g>
                            </g>
                        </g>
                    </g>
                </g>
            </g>
            <g id="グループ_14319" data-name="グループ 14319" transform="translate(1162.838 2860.135)">
                <path id="パス_48789" data-name="パス 48789" class="cls-6" d="M1635.983 2925h-3.344v-6.459h2.99v-2.05h-2.99v-2.891h-2.491v2.891h-6.194v-2.848h-2.268v2.848h-3.607v2.05h3.607v4.144a10.093 10.093 0 0 1-.271 2.315h-3.562v2.094h2.942a11.283 11.283 0 0 1-3.073 3.961l1.692 1.653a13.817 13.817 0 0 0 3.877-5.614h6.857v5.386h2.491v-5.38h3.344zm-12.181 0a13.471 13.471 0 0 0 .152-2.806v-3.653h6.194V2925z" transform="translate(-1598.422 -2913.304)"/>
                <g id="グループ_14315" data-name="グループ 14315" transform="translate(0 1.145)">
                    <path id="長方形_4635" data-name="長方形 4635" class="cls-6" transform="translate(.628)" d="M0 0h15.817v2.3H0z"/>
                    <path id="長方形_4636" data-name="長方形 4636" class="cls-6" transform="translate(1.368 7.284)" d="M0 0h14.467v2.302H0z"/>
                    <path id="長方形_4637" data-name="長方形 4637" class="cls-6" transform="translate(0 15.067)" d="M0 0h17.294v2.339H0z"/>
                </g>
                <g id="グループ_14316" data-name="グループ 14316" transform="translate(38.649 .791)">
                    <path id="パス_48790" data-name="パス 48790" class="cls-6" d="m1888.073 2967.213-1.651 1.409a27.541 27.541 0 0 0 5.864 6.431l1.4-2.133a40.8 40.8 0 0 1-5.613-5.707z" transform="translate(-1874.614 -2961.488)"/>
                    <path id="パス_48791" data-name="パス 48791" class="cls-6" d="M1802.816 2919.978v-2.139h-17.6v2.139h8.459c-.512 1.24-2.775 5.877-9.089 9.173l1.463 2.1a29.944 29.944 0 0 0 6.843-5.759v10.928h2.48v-14.331a19.382 19.382 0 0 0 1.084-2.108z" transform="translate(-1784.59 -2917.839)"/>
                </g>
                <g id="グループ_14317" data-name="グループ 14317" transform="translate(59.713 .307)">
                    <path id="パス_48792" data-name="パス 48792" class="cls-6" d="M2056.206 2918.952h-1.706c-.174 11-2.389 13.925-2.389 13.925l-1.9-1.392s2.117-3.575 2.111-12.533h-1.653v-1.857h1.648v-3.295h2.185v3.3h3.849v13.571a1.978 1.978 0 0 1-2.154 2.042h-2.356v-2.065h1.806c.315 0 .561-.17.561-.619z" transform="translate(-2040.471 -2913.781)"/>
                    <path id="パス_48793" data-name="パス 48793" class="cls-6" d="m1975.994 2915.41-.717-1.742c-2.293.6-9.03.532-9.03.532v1.612s1.785.021 3.785-.017v1.186h-3.785v1.579h3.785v1.293h-3.41v7.043h3.41v1.245h-3.41v1.583h3.41v1.29h-3.785v1.58h9.35v-1.58h-3.573v-1.29h3.573v-1.583h-3.573v-1.241h3.573v-7.043h-3.573v-1.293h3.762v-1.579h-3.762v-1.234s3.376-.159 3.97-.341zm-5.962 5.84v1.473h-1.488v-1.473zm-1.488 4.253v-1.385h1.488v1.385zm5.123 0h-1.642v-1.385h1.642zm0-4.253v1.473h-1.642v-1.473z" transform="translate(-1966.247 -2913.668)"/>
                </g>
                <g id="グループ_14318" data-name="グループ 14318" transform="translate(79.685)">
                    <path id="パス_48794" data-name="パス 48794" class="cls-6" d="M2142.124 2918.626h14.551v-1.952h-3.987v-1.848h4.264v-1.95h-7.7v-1.861h-2.365v1.861h-7.441v1.95h4.062v1.848h-3.555c.454 9.278-1.473 12.379-1.473 12.379l1.876 1.32s2.263-3.818 1.768-11.747zm8.568-1.952h-5.186v-1.848h5.186z" transform="translate(-2138.486 -2911.016)"/>
                    <path id="パス_48795" data-name="パス 48795" class="cls-6" d="M2174.841 2983.97h3.692v1.566h-3.733v1.955h3.735v1.848h-6.561v1.946h14.584v-1.946h-6.025v-1.848h5.052v-1.955h-5.052v-1.566h5.286v-1.952h-5.286v-1.907h-2v1.905h-3.424v-1.631h-1.992a10.288 10.288 0 0 1-1.136 5.9l1.783.741a11.676 11.676 0 0 0 1.077-3.056z" transform="translate(-2168.089 -2972.099)"/>
                </g>
            </g>
            <g id="グループ_14322" data-name="グループ 14322" transform="translate(1163.466 2885.455)">
                <g id="グループ_14320" data-name="グループ 14320" transform="translate(44.888)">
                    <path id="パス_48796" data-name="パス 48796" class="cls-6" d="M1848.237 3130.967v1.411h-2.766v1.7h2.766v1.309h-2.766v2.957h-1.659v-7.381z" transform="translate(-1843.812 -3130.782)"/>
                    <path id="パス_48797" data-name="パス 48797" class="cls-6" d="M1980.761 3130.967a2.47 2.47 0 0 1 2.7 2.641v2.076a2.482 2.482 0 0 1-2.7 2.664h-2.675v-7.381zm0 1.388h-1.016v4.65h1.016c.711 0 1.027-.35 1.027-1.366v-1.939c.001-.995-.316-1.345-1.027-1.345z" transform="translate(-1962.516 -3130.782)"/>
                    <path id="パス_48798" data-name="パス 48798" class="cls-6" d="M2052.249 3132v2.48a2.687 2.687 0 0 1-5.373.011V3132a2.687 2.687 0 0 1 5.373 0zm-1.67 0c0-.9-.3-1.275-1.016-1.275s-1.027.361-1.027 1.275v2.491c0 .937.3 1.31 1.027 1.31.7 0 1.016-.373 1.016-1.321z" transform="translate(-2023.33 -3129.372)"/>
                    <path id="パス_48799" data-name="パス 48799" class="cls-6" d="m2247.818 3130.964 2.472 4.064h.023v-4.064h1.467v7.382h-1.151l-2.551-4.233h-.023v4.233h-1.467v-7.382z" transform="translate(-2199.884 -3130.779)"/>
                    <path id="パス_48800" data-name="パス 48800" class="cls-6" d="M2177.415 3130.967h-2.173l-2.046 7.381h1.671l.367-1.5h2.155l.367 1.5h1.7zm-1.883 4.662.768-3.138h.023l.768 3.138z" transform="translate(-2135.002 -3130.782)"/>
                    <path id="パス_48801" data-name="パス 48801" class="cls-6" d="M2118.162 3130.988a2.468 2.468 0 0 0-2.456-1.616 2.1 2.1 0 0 0-2.234 1.929 2.338 2.338 0 0 0 1.433 2.152c.208.128.9.593 1.082.7.464.282.633.459.633.8a.834.834 0 0 1-.9.736c-.525 0-.922-.323-1.185-1.012l-1.262.647a2.4 2.4 0 0 0 2.5 1.8 2.29 2.29 0 0 0 2.431-2.209 2.088 2.088 0 0 0-1.048-1.792c-.282-.176-.606-.365-.971-.6-.859-.548-1.155-.737-1.155-1.173s.334-.681.9-.654a1.44 1.44 0 0 1 1.079.875z" transform="translate(-2082.025 -3129.372)"/>
                    <path id="パス_48802" data-name="パス 48802" class="cls-6" d="M1911.723 3130.97v4.959a2.427 2.427 0 0 1-2.675 2.607 2.4 2.4 0 0 1-2.7-2.528v-5.038h1.671v5.038a.937.937 0 0 0 1.027 1.072c.654 0 1.016-.327 1.016-1.072v-5.038z" transform="translate(-1899.098 -3130.784)"/>
                </g>
                <g id="グループ_14321" data-name="グループ 14321">
                    <path id="パス_48803" data-name="パス 48803" class="cls-6" d="M1463.654 3130.964v7.382h-1.513v-4.233h-.023l-1.58 3.127h-.734l-1.569-3.127h-.022v4.233h-1.513v-7.382h1.569l1.9 3.946h.023l1.9-3.946z" transform="translate(-1456.701 -3130.779)"/>
                    <path id="パス_48804" data-name="パス 48804" class="cls-6" d="M1581.515 3130.967v1.422h-1.648v5.959h-1.667v-5.959h-1.648v-1.422z" transform="translate(-1562.652 -3130.782)"/>
                    <path id="パス_48805" data-name="パス 48805" class="cls-6" d="M1771.113 3130.967v7.381h-1.671v-7.381z" transform="translate(-1733.178 -3130.782)"/>
                    <path id="パス_48806" data-name="パス 48806" class="cls-6" d="M1638.977 3130.988a2.469 2.469 0 0 0-2.457-1.616 2.1 2.1 0 0 0-2.234 1.929 2.338 2.338 0 0 0 1.432 2.152c.208.128.9.593 1.082.7.464.282.633.459.633.8a.834.834 0 0 1-.9.736c-.525 0-.922-.323-1.185-1.012l-1.261.647a2.4 2.4 0 0 0 2.5 1.8 2.29 2.29 0 0 0 2.431-2.209 2.088 2.088 0 0 0-1.048-1.792c-.282-.176-.607-.365-.971-.6-.859-.548-1.156-.737-1.156-1.173s.335-.681.9-.654a1.44 1.44 0 0 1 1.079.875z" transform="translate(-1613.516 -3129.372)"/>
                    <path id="パス_48807" data-name="パス 48807" class="cls-6" d="M1702.981 3130.97v4.959a2.428 2.428 0 0 1-2.675 2.607 2.4 2.4 0 0 1-2.7-2.528v-5.038h1.671v5.038a.937.937 0 0 0 1.027 1.072c.655 0 1.016-.327 1.016-1.072v-5.038z" transform="translate(-1669.673 -3130.784)"/>
                    <path id="パス_48808" data-name="パス 48808" class="cls-6" d="M1544.346 3130.967v7.381h-1.67v-7.381z" transform="translate(-1532.707 -3130.782)"/>
                </g>
            </g>
        </g>
    </g>
</svg>
