<svg id="reception_Clients_logo7" xmlns="http://www.w3.org/2000/svg" width="143" height="83">
    <defs>
        <clipPath id="clip-path">
            <path id="長方形_4633" data-name="長方形 4633" transform="translate(0 20)" style="fill:#f1f5f9" d="M0 0h143v43H0z"/>
        </clipPath>
        <style>
            .cls-4{fill:#d02212}.cls-5{fill:#1a1311}
        </style>
    </defs>
    <path id="長方形_860" data-name="長方形 860" style="fill:#fff" d="M0 0h143v83H0z"/>
    <g id="マスクグループ_11699" data-name="マスクグループ 11699" style="clip-path:url(#clip-path)">
        <g id="グループ_14299" data-name="グループ 14299" transform="translate(172.324 -2246.644)">
            <g id="グループ_14296" data-name="グループ 14296" transform="translate(-172.324 2267.645)">
                <g id="グループ_14294" data-name="グループ 14294" transform="translate(0 8.327)">
                    <g id="グループ_14293" data-name="グループ 14293">
                        <path id="パス_48742" data-name="パス 48742" class="cls-4" d="M-99.977 2311.369c-8 0-14.478 5.273-14.478 11.777s6.483 11.777 14.478 11.777 14.48-5.272 14.48-11.777-6.483-11.777-14.48-11.777zm0 23.3a22.4 22.4 0 0 0-12.16-17.612 29.812 29.812 0 0 0 24.045.014 22.3 22.3 0 0 0-11.882 17.598z" transform="translate(125.476 -2311.369)"/>
                        <path id="パス_48743" data-name="パス 48743" class="cls-4" d="M-115.762 2388.438c-10.609 0-17.5-6.128-18.191-14.689h.241c.777 5.278 5.211 12.867 17.95 12.867s17.174-7.589 17.951-12.867h.241c-.697 8.56-7.582 14.689-18.192 14.689z" transform="translate(141.261 -2361.868)"/>
                        <path id="パス_48744" data-name="パス 48744" class="cls-4" d="M-131.221 2391.457c-10.3 0-20.12-5.626-21.828-17.692h.227c1.775 10.566 11.482 15.85 21.6 15.85s19.773-5.15 21.6-15.85h.24c-1.318 11.771-11.363 17.692-21.839 17.692z" transform="translate(156.72 -2361.881)"/>
                        <path id="パス_48745" data-name="パス 48745" class="cls-4" d="M-146.825 2394.468c-11.654 0-24.38-6.517-25.5-20.7h.215c2.485 14.378 15.827 18.85 25.284 18.85s22.8-4.472 25.285-18.85h.214c-1.118 14.182-13.843 20.7-25.498 20.7z" transform="translate(172.324 -2361.885)"/>
                    </g>
                </g>
                <g id="グループ_14295" data-name="グループ 14295" transform="translate(2.789)">
                    <path id="パス_48746" data-name="パス 48746" class="cls-4" d="m-156.58 2321.88.493-.914a.083.083 0 0 0-.034-.113l-.225-.121a.086.086 0 0 0-.064-.007.085.085 0 0 0-.049.041l-1.209 2.243a.084.084 0 0 0 .034.114l.225.121a.082.082 0 0 0 .064.006.082.082 0 0 0 .049-.039l.492-.914 2.47 1.332a.086.086 0 0 0 .063.006.083.083 0 0 0 .05-.039l.145-.27a.084.084 0 0 0-.034-.113z" transform="translate(157.678 -2310.614)"/>
                    <path id="パス_48747" data-name="パス 48747" class="cls-4" d="M-143.721 2309.328a1.58 1.58 0 0 0-2.347.062 1.532 1.532 0 0 0-.412 1.121 1.8 1.8 0 0 0 .65 1.218 1.582 1.582 0 0 0 2.35-.066 1.523 1.523 0 0 0 .409-1.116 1.8 1.8 0 0 0-.65-1.219zm.206 1.294a1.026 1.026 0 0 1-.282.762 1.156 1.156 0 0 1-1.721-.01 1.425 1.425 0 0 1-.517-.938 1.04 1.04 0 0 1 .284-.767 1.156 1.156 0 0 1 1.718.015 1.422 1.422 0 0 1 .518.938z" transform="translate(148.615 -2300.99)"/>
                    <path id="パス_48748" data-name="パス 48748" class="cls-4" d="m-131.064 2296.875-2.241-.526.331-1.828a.084.084 0 0 0-.039-.086.084.084 0 0 0-.094.005l-.328.252a.089.089 0 0 0-.032.052l-.414 2.3-.918-1.191a.083.083 0 0 0-.117-.015l-.242.187a.087.087 0 0 0-.031.055.085.085 0 0 0 .017.062l1.92 2.491a.083.083 0 0 0 .116.016l.243-.187a.084.084 0 0 0 .031-.055.088.088 0 0 0-.017-.062l-.636-.825.125-.7 1.975.462a.083.083 0 0 0 .07-.015l.313-.242a.083.083 0 0 0 .031-.084.083.083 0 0 0-.063-.066z" transform="translate(139.473 -2289.323)"/>
                    <path id="パス_48749" data-name="パス 48749" class="cls-4" d="m-120.634 2288.585.2-2.209a.084.084 0 0 0-.038-.077.083.083 0 0 0-.086 0l-.317.178a.08.08 0 0 0-.042.066l-.129 1.78-1.59-.814a.082.082 0 0 0-.079 0l-.318.178a.082.082 0 0 0-.042.074.083.083 0 0 0 .046.073l1.985.981.621 1.106a.085.085 0 0 0 .05.039.082.082 0 0 0 .063-.008l.267-.15a.083.083 0 0 0 .031-.113z" transform="translate(129.668 -2282.735)"/>
                    <path id="パス_48750" data-name="パス 48750" class="cls-4" d="M-104.992 2280.217a.084.084 0 0 0-.109-.045l-.284.115a.085.085 0 0 0-.046.045.079.079 0 0 0 0 .064l.733 1.8a.982.982 0 0 1 .066.746.866.866 0 0 1-.517.436.859.859 0 0 1-.669.046.979.979 0 0 1-.473-.581l-.733-1.8a.085.085 0 0 0-.109-.046l-.283.115a.085.085 0 0 0-.046.044.081.081 0 0 0 0 .064l.757 1.865a1.2 1.2 0 0 0 1.715.688 1.348 1.348 0 0 0 .787-.7 1.277 1.277 0 0 0-.033-.991z" transform="translate(117.03 -2277.781)"/>
                    <path id="パス_48751" data-name="パス 48751" class="cls-4" d="m-76.775 2274.057-.3.055a.085.085 0 0 0-.068.089.964.964 0 0 1-.761 1.093 1.157 1.157 0 0 1-1.347-1.072 1.421 1.421 0 0 1 .173-1.057 1.037 1.037 0 0 1 .7-.428.886.886 0 0 1 1.017.52.084.084 0 0 0 .092.049l.3-.056a.084.084 0 0 0 .056-.039.084.084 0 0 0 .007-.068 1.307 1.307 0 0 0-1.551-.82 1.536 1.536 0 0 0-1.016.628 1.8 1.8 0 0 0-.241 1.359 1.583 1.583 0 0 0 1.89 1.4 1.38 1.38 0 0 0 1.15-1.577.088.088 0 0 0-.032-.06.082.082 0 0 0-.069-.016z" transform="translate(94.594 -2271.409)"/>
                    <path id="パス_48752" data-name="パス 48752" class="cls-4" d="M-61.4 2269.01a1.536 1.536 0 0 0-1.078.515 1.8 1.8 0 0 0-.385 1.325 1.582 1.582 0 0 0 1.728 1.594 1.526 1.526 0 0 0 1.073-.513 1.8 1.8 0 0 0 .386-1.326 1.581 1.581 0 0 0-1.724-1.595zm1.253 1.631a1.425 1.425 0 0 1-.285 1.034 1.031 1.031 0 0 1-.735.349 1.157 1.157 0 0 1-1.224-1.209 1.424 1.424 0 0 1 .284-1.033 1.037 1.037 0 0 1 .74-.35c.828-.065 1.174.61 1.221 1.208z" transform="translate(80.925 -2268.745)"/>
                    <path id="パス_48753" data-name="パス 48753" class="cls-4" d="M-41.57 2270.22v-.1a.769.769 0 0 0-.374-.724.856.856 0 0 0 .473-.79.834.834 0 0 0-.221-.619 1.149 1.149 0 0 0-.818-.308l-1.472-.033a.083.083 0 0 0-.085.081l-.073 3.146a.081.081 0 0 0 .023.059.083.083 0 0 0 .058.026l.306.008a.083.083 0 0 0 .085-.082l.031-1.313 1.079.025c.474-.007.522.328.542.842v.063a1.067 1.067 0 0 0 .084.466.081.081 0 0 0 .07.041l.337.008a.084.084 0 0 0 .076-.047.082.082 0 0 0-.01-.089 1.464 1.464 0 0 1-.111-.66zm-2.036-2.145 1.06.025a.641.641 0 0 1 .469.167.522.522 0 0 1 .129.389.553.553 0 0 1-.622.515l-1.06-.024z" transform="translate(65.767 -2267.645)"/>
                    <path id="パス_48754" data-name="パス 48754" class="cls-4" d="m-26.879 2268.435-1.418-.167a.083.083 0 0 0-.062.017.081.081 0 0 0-.031.056l-.366 3.125a.084.084 0 0 0 .072.092l.3.035a.085.085 0 0 0 .062-.017.084.084 0 0 0 .031-.055l.147-1.257 1.031.121a1.065 1.065 0 0 0 .8-.19.968.968 0 0 0 .343-.665.939.939 0 0 0-.909-1.095zm-1.08.3.964.113c.235.027.62.146.564.631a.54.54 0 0 1-.187.375.678.678 0 0 1-.507.107l-.964-.114z" transform="translate(53.308 -2268.149)"/>
                    <path id="パス_48755" data-name="パス 48755" class="cls-4" d="M-11.629 2271.377a1.534 1.534 0 0 0-1.182.176 1.793 1.793 0 0 0-.757 1.153 1.581 1.581 0 0 0 1.183 2.031 1.525 1.525 0 0 0 1.177-.176 1.8 1.8 0 0 0 .758-1.153 1.58 1.58 0 0 0-1.179-2.031zm.718 1.927a1.423 1.423 0 0 1-.576.9 1.03 1.03 0 0 1-.8.118 1.157 1.157 0 0 1-.816-1.516 1.423 1.423 0 0 1 .576-.9 1.036 1.036 0 0 1 .81-.117 1.155 1.155 0 0 1 .806 1.511z" transform="translate(41.057 -2270.63)"/>
                    <path id="パス_48756" data-name="パス 48756" class="cls-4" d="m5.022 2278.05.029-.1a.77.77 0 0 0-.132-.8.855.855 0 0 0 .694-.6c.185-.526-.083-.986-.7-1.2l-1.388-.49a.089.089 0 0 0-.064 0 .086.086 0 0 0-.042.049l-1.045 2.967a.083.083 0 0 0 .051.106l.288.1a.083.083 0 0 0 .064 0 .084.084 0 0 0 .043-.047l.436-1.239 1.017.358c.453.14.394.474.254.968l-.018.062a1.062 1.062 0 0 0-.066.469.085.085 0 0 0 .054.06l.318.112a.083.083 0 0 0 .105-.108 1.455 1.455 0 0 1 .102-.667zm-1.27-2.67 1 .352c.377.132.513.379.4.714a.49.49 0 0 1-.251.287.658.658 0 0 1-.5.01l-1-.352z" transform="translate(28.111 -2273.475)"/>
                    <path id="パス_48757" data-name="パス 48757" class="cls-4" d="m19 2283.916-.306-.152a.084.084 0 0 0-.092.012l-2.556 2.244a.083.083 0 0 0 .017.137l.294.146a.085.085 0 0 0 .093-.014l.738-.667 1.21.6-.078.993a.084.084 0 0 0 .046.082l.294.145a.081.081 0 0 0 .078 0 .083.083 0 0 0 .041-.066l.265-3.377a.084.084 0 0 0-.044-.083zm-.437.465-.128 1.387-.915-.452z" transform="translate(17.061 -2280.687)"/>
                    <path id="パス_48758" data-name="パス 48758" class="cls-4" d="M35.172 2288.771a.083.083 0 0 0 .115-.023l.142-.213a.085.085 0 0 0 .012-.063.082.082 0 0 0-.035-.052l-2.124-1.408a.083.083 0 0 0-.115.023l-.142.213a.087.087 0 0 0-.012.063.083.083 0 0 0 .036.053l.864.573-1.552 2.339a.089.089 0 0 0-.011.063.083.083 0 0 0 .036.052l.255.169a.082.082 0 0 0 .115-.023l1.552-2.34z" transform="translate(3.843 -2283.311)"/>
                    <path id="パス_48759" data-name="パス 48759" class="cls-4" d="m44.045 2297.625-.237-.193a.085.085 0 0 0-.118.013l-1.977 2.446a.083.083 0 0 0 .013.117l.237.193a.087.087 0 0 0 .061.018.082.082 0 0 0 .056-.03l1.977-2.446a.083.083 0 0 0-.012-.118z" transform="translate(-3.724 -2291.745)"/>
                    <path id="パス_48760" data-name="パス 48760" class="cls-4" d="M50.742 2304.511a1.531 1.531 0 0 0-1.077-.515 1.8 1.8 0 0 0-1.272.532 1.582 1.582 0 0 0-.156 2.346 1.525 1.525 0 0 0 1.073.513 1.806 1.806 0 0 0 1.274-.533 1.58 1.58 0 0 0 .158-2.343zm-.483 2a1.426 1.426 0 0 1-.983.427 1.029 1.029 0 0 1-.732-.353 1.156 1.156 0 0 1 .172-1.712 1.424 1.424 0 0 1 .981-.427 1.039 1.039 0 0 1 .737.355 1.155 1.155 0 0 1-.175 1.709z" transform="translate(-8.653 -2297.073)"/>
                    <path id="パス_48761" data-name="パス 48761" class="cls-4" d="m60.7 2319.363-.149-.267a.084.084 0 0 0-.114-.032l-2.1 1.176 1.3-2.708a.083.083 0 0 0 0-.077l-.167-.3a.084.084 0 0 0-.114-.032l-2.745 1.534a.08.08 0 0 0-.04.05.084.084 0 0 0 .007.063l.15.267a.081.081 0 0 0 .112.033l2.1-1.175-1.3 2.708a.082.082 0 0 0 0 .077l.167.3a.082.082 0 0 0 .113.032l2.746-1.534a.082.082 0 0 0 .032-.113z" transform="translate(-15.762 -2307.691)"/>
                </g>
            </g>
            <g id="グループ_14298" data-name="グループ 14298" transform="translate(-114.029 2271.78)">
                <path id="パス_48762" data-name="パス 48762" class="cls-5" d="M162.192 2311.745h4.54c2.282 0 3.73-1.011 3.73-3.292v-8.553c0-2.281-1.448-3.291-3.73-3.291h-10.313v-2.2h16.457v-2.853h-16.457v-2.2h-5.266v2.2H134.7v2.853h16.456v2.2h-10.317c-2.282 0-3.729 1.01-3.729 3.291v8.558c0 2.281 1.448 3.292 3.729 3.292h4.542a81.843 81.843 0 0 1-11.616 9.223h8.043a72.412 72.412 0 0 0 9.345-8.387v9.691h5.266v-9.691a72.3 72.3 0 0 0 9.345 8.387h8.043a81.791 81.791 0 0 1-11.615-9.228zm3.224-3.84a1.267 1.267 0 0 1-1.313 1.207h-7.684v-3.621h9zm-1.313-8.668a1.267 1.267 0 0 1 1.313 1.207v2.414h-9v-3.621zm-21.947 1.207a1.267 1.267 0 0 1 1.313-1.207h7.685v3.621h-9zm0 7.461v-2.414h9v3.621h-7.685a1.267 1.267 0 0 1-1.315-1.207z" transform="translate(-133.765 -2289.359)"/>
                <g id="グループ_14297" data-name="グループ 14297" transform="translate(45.275 .657)">
                    <path id="パス_48763" data-name="パス 48763" class="cls-5" d="M531.144 2406.377H525.5a66.669 66.669 0 0 1 4.632 7.322h5.468c-1.107-2.137-2.684-4.54-4.456-7.322z" transform="translate(-496.167 -2384.748)"/>
                    <path id="パス_48764" data-name="パス 48764" class="cls-5" d="M397.807 2320.413V2313h1.8a62.769 62.769 0 0 1 3.868 6.947h5.451c-.905-1.888-2.747-5.015-3.966-6.947h7.017c2.517-.01 4.155-1.208 4.155-3.729v-7.241c0-2.522-1.638-3.721-4.155-3.729h-3.1s2.928-2.116 3.4-2.59a1.693 1.693 0 0 0-1.252-2.9h-17.453a4.353 4.353 0 0 0-2.42.56c-1.21.721-4.821 3.562-8.81 4.753v2.805h26.882a1.688 1.688 0 0 1 1.643 1.646v1.754h-28.523v2.634h28.525v1.755a1.688 1.688 0 0 1-1.643 1.646h-26.882V2313h9.935v8.794c0 2.178 1.8 3.164 4.61 3.164h17.1v-3.192h-14.34c-1.111-.004-1.842-.559-1.842-1.353zm7.389-24.638c-.231.234-2.754 1.932-3.762 2.512h-10c-.218 0-.211-.182-.09-.24a32.453 32.453 0 0 0 4.742-2.83h8.9c.398 0 .466.298.214.558z" transform="translate(-380.276 -2292.81)"/>
                    <path id="パス_48765" data-name="パス 48765" class="cls-5" d="M371.493 2415.7h5.892a87.154 87.154 0 0 0 4-9.323h-5.131a82.764 82.764 0 0 1-4.761 9.323z" transform="translate(-371.493 -2384.748)"/>
                </g>
            </g>
        </g>
    </g>
</svg>
