<svg id="reception_Clients_logo12" xmlns="http://www.w3.org/2000/svg" width="143.001" height="83">
    <defs>
        <clipPath id="clip-path">
            <path id="長方形_4647" data-name="長方形 4647" transform="translate(0 20)" style="fill:#f1f5f9" d="M0 0h143v43H0z"/>
        </clipPath>
        <style>
            .cls-4{fill:#cd470d}
        </style>
    </defs>
    <path id="長方形_860" data-name="長方形 860" transform="translate(.001)" style="fill:#fff" d="M0 0h143v83H0z"/>
    <g id="マスクグループ_11708" data-name="マスクグループ 11708" style="clip-path:url(#clip-path)">
        <g id="グループ_14334" data-name="グループ 14334" transform="translate(1309.693 -3380.951)">
            <path id="パス_48852" data-name="パス 48852" class="cls-4" d="M-1309.414 3425.031h3.086a.28.28 0 0 1 .281.28v11.083a.42.42 0 0 0 .421.421h7.435a.28.28 0 0 1 .281.28v3.086a.281.281 0 0 1-.281.281h-10.381a1.122 1.122 0 0 1-1.122-1.123v-14.029a.28.28 0 0 1 .28-.279z"/>
            <path id="パス_48853" data-name="パス 48853" class="cls-4" d="M-1290.615 3440.182v-3.082a.281.281 0 0 1 .281-.281h11.083a.42.42 0 0 0 .421-.421v-7.435a.281.281 0 0 1 .281-.281h3.086a.281.281 0 0 1 .281.281v10.382a1.122 1.122 0 0 1-1.122 1.122h-14.029a.281.281 0 0 1-.282-.285z"/>
            <path id="パス_48854" data-name="パス 48854" class="cls-4" d="M-1275.463 3421.383h-3.086a.281.281 0 0 1-.281-.281v-11.083a.421.421 0 0 0-.421-.421h-7.436a.28.28 0 0 1-.28-.281v-3.086a.28.28 0 0 1 .281-.28h10.381a1.122 1.122 0 0 1 1.122 1.122v14.027a.28.28 0 0 1-.28.283z"/>
            <path id="パス_48855" data-name="パス 48855" class="cls-4" d="M-1294.262 3406.231v3.087a.28.28 0 0 1-.281.28h-11.083a.421.421 0 0 0-.421.421v7.436a.28.28 0 0 1-.281.28h-3.086a.28.28 0 0 1-.28-.28v-10.382a1.122 1.122 0 0 1 1.122-1.122h14.029a.28.28 0 0 1 .281.28z"/>
            <path id="パス_48856" data-name="パス 48856" class="cls-4" d="M-1245.951 3415.491h3.086a.28.28 0 0 1 .281.28v14.871a.281.281 0 0 1-.281.281h-3.086a.28.28 0 0 1-.28-.28v-14.872a.28.28 0 0 1 .28-.28z"/>
            <path id="パス_48857" data-name="パス 48857" class="cls-4" d="M-1195.138 3415.491h3.087a.28.28 0 0 1 .28.28v11.084a.421.421 0 0 0 .421.42h7.436a.28.28 0 0 1 .28.28v3.087a.28.28 0 0 1-.28.28h-10.386a1.122 1.122 0 0 1-1.122-1.122v-14.03a.28.28 0 0 1 .284-.279z"/>
            <path id="パス_48858" data-name="パス 48858" class="cls-4" d="M-1178.2 3415.491h3.086a.28.28 0 0 1 .28.28v11.084a.421.421 0 0 0 .421.42h7.436a.28.28 0 0 1 .281.28v3.087a.281.281 0 0 1-.281.28h-10.382a1.122 1.122 0 0 1-1.122-1.122v-14.03a.28.28 0 0 1 .281-.279z"/>
            <path id="パス_48859" data-name="パス 48859" class="cls-4" d="M-1263.117 3415.491h3.086a.28.28 0 0 1 .281.28v11.084a.42.42 0 0 0 .42.42h7.436a.28.28 0 0 1 .281.28v3.087a.281.281 0 0 1-.281.28h-10.382a1.122 1.122 0 0 1-1.122-1.122v-14.03a.28.28 0 0 1 .281-.279z"/>
            <path id="パス_48860" data-name="パス 48860" class="cls-4" d="M-1201.5 3423.207v-7.436a.28.28 0 0 0-.28-.281h-3.086a.281.281 0 0 0-.281.281v7.436a4.142 4.142 0 0 1-4.49 4.489 4.142 4.142 0 0 1-4.489-4.489v-7.436a.281.281 0 0 0-.281-.281h-3.086a.281.281 0 0 0-.281.281v7.436a7.941 7.941 0 0 0 8.137 8.137 7.94 7.94 0 0 0 8.137-8.137z"/>
            <path id="パス_48861" data-name="パス 48861" class="cls-4" d="M-1223.58 3415.491a.28.28 0 0 1 .281.28v3.087a.281.281 0 0 1-.281.28h-7.436a.421.421 0 0 0-.42.421v1.684a.14.14 0 0 0 .14.14h7.716a.281.281 0 0 1 .281.281v3.086a.281.281 0 0 1-.281.281h-7.716a.139.139 0 0 0-.14.14v5.471a.281.281 0 0 1-.281.281h-3.086a.281.281 0 0 1-.281-.281v-14.029a1.122 1.122 0 0 1 1.122-1.122z"/>
        </g>
    </g>
</svg>
