<svg id="reception_Clients_logo13" xmlns="http://www.w3.org/2000/svg" width="143" height="83">
    <defs>
        <clipPath id="clip-path">
            <path id="長方形_4645" data-name="長方形 4645" transform="translate(0 20)" style="fill:#f1f5f9" d="M0 0h143v43H0z"/>
        </clipPath>
        <style>
            .cls-4{fill:#004b9e}.cls-5{fill:#2b2c2e}.cls-6{fill:#39648e}
        </style>
    </defs>
    <path id="長方形_860" data-name="長方形 860" style="fill:#fff" d="M0 0h143v83H0z"/>
    <g id="マスクグループ_11706" data-name="マスクグループ 11706" style="clip-path:url(#clip-path)">
        <g id="グループ_14332" data-name="グループ 14332" transform="translate(1272.492 -2804.57)">
            <path id="パス_48840" data-name="パス 48840" class="cls-4" d="M-1237.8 2852.637h.942a.166.166 0 0 0 .13-.075l3.894-6.374 2.117 7.293a.12.12 0 0 0 .11.083h4.088a.059.059 0 0 0 .061-.08l-4.311-13.646a.127.127 0 0 0-.113-.083h-1.534a.172.172 0 0 0-.134.074l-5.25 8.137-5.249-8.137a.176.176 0 0 0-.135-.074h-1.534a.127.127 0 0 0-.113.083l-4.31 13.646a.058.058 0 0 0 .061.08h4.08a.118.118 0 0 0 .111-.083l2.117-7.293 3.894 6.374a.165.165 0 0 0 .131.075z"/>
            <path id="パス_48841" data-name="パス 48841" class="cls-4" d="M-1248.957 2845.84a.089.089 0 0 0-.086-.068h-11.642a1.115 1.115 0 0 0-1.115 1.115 1.116 1.116 0 0 0 1.115 1.116h6.919c-.824 2.177-3.612 3.777-6.919 3.777-3.958 0-7.166-2.291-7.166-5.116s3.208-5.119 7.166-5.119a8.571 8.571 0 0 1 5.413 1.767.06.06 0 0 1 .014.012.084.084 0 0 0 .048.012h4.757a.088.088 0 0 0 .087-.086.08.08 0 0 0-.02-.054l-.007-.009c-2.026-2.16-5.875-3.613-10.292-3.613-6.521 0-11.807 3.174-11.807 7.09s5.286 7.091 11.807 7.091 11.806-3.174 11.806-7.091a4.4 4.4 0 0 0-.078-.821"/>
            <path id="パス_48842" data-name="パス 48842" class="cls-4" d="M-1214.919 2839.57c-6.52 0-11.805 3.174-11.805 7.091s5.285 7.09 11.805 7.09 11.808-3.173 11.808-7.09-5.287-7.091-11.808-7.091m0 12.207c-3.956 0-7.165-2.291-7.165-5.116s3.209-5.119 7.165-5.119 7.168 2.293 7.168 5.119-3.209 5.116-7.168 5.116"/>
            <path id="パス_48843" data-name="パス 48843" class="cls-5" d="M-1153.338 2853.344a.2.2 0 0 0 .2.22h2.466a.242.242 0 0 0 .237-.22l.424-5.646a.2.2 0 0 0-.205-.22h-2.465a.241.241 0 0 0-.237.22z"/>
            <path id="パス_48844" data-name="パス 48844" class="cls-5" d="M-1139.068 2847.478a.2.2 0 0 0-.2.22l.428 5.647a.242.242 0 0 0 .237.219h2.466c.121 0 .352-.1.343-.219l-.568-5.647a.242.242 0 0 0-.237-.22z"/>
            <path id="パス_48845" data-name="パス 48845" class="cls-5" d="M-1136.447 2844.682a.221.221 0 0 0 .22-.221v-2.373a.221.221 0 0 0-.22-.22h-6.593a.22.22 0 0 1-.22-.22v-1.673a.222.222 0 0 0-.221-.22h-2.373a.221.221 0 0 0-.22.22v1.673a.221.221 0 0 1-.221.22h-6.546a.221.221 0 0 0-.22.22v2.373a.221.221 0 0 0 .22.221h6.546a.221.221 0 0 1 .221.22v8.442a.221.221 0 0 0 .22.22h2.373a.221.221 0 0 0 .221-.22v-8.444a.22.22 0 0 1 .22-.22z"/>
            <rect id="長方形_4643" data-name="長方形 4643" class="cls-6" width="2.112" height="3.689" rx=".22" transform="translate(-1134.851 2839.57)"/>
            <rect id="長方形_4644" data-name="長方形 4644" class="cls-6" width="2.113" height="3.689" rx=".22" transform="translate(-1131.605 2839.57)"/>
            <path id="パス_48846" data-name="パス 48846" class="cls-5" d="M-1199.456 2849.406a.148.148 0 0 0 0 .21l1.779 1.779a.149.149 0 0 0 .21 0l6.451-6.45a.148.148 0 0 1 .21 0l8.425 8.44a.149.149 0 0 0 .21 0l1.779-1.78a.148.148 0 0 0 0-.21l-10.412-10.431a.15.15 0 0 0-.21 0z"/>
            <path id="パス_48847" data-name="パス 48847" class="cls-6" d="M-1182.18 2843.727a2.077 2.077 0 0 0 2.078-2.078 2.078 2.078 0 0 0-2.078-2.079 2.079 2.079 0 0 0-2.079 2.079 2.078 2.078 0 0 0 2.079 2.078"/>
            <path id="パス_48848" data-name="パス 48848" class="cls-5" d="M-1175.689 2853.417a.128.128 0 0 0 .13.147h2.734a.171.171 0 0 0 .166-.147l1.479-12.291a.129.129 0 0 0-.131-.147h-2.734a.172.172 0 0 0-.166.147z"/>
            <path id="パス_48849" data-name="パス 48849" class="cls-5" d="M-1164.616 2840.979a.128.128 0 0 0-.13.147l1.491 12.291a.172.172 0 0 0 .166.147h2.734a.129.129 0 0 0 .131-.147l-1.492-12.291a.173.173 0 0 0-.167-.147z"/>
            <path id="パス_48850" data-name="パス 48850" class="cls-6" d="M-1157.706 2839.57a2.079 2.079 0 0 0-2.079 2.079 2.079 2.079 0 0 0 2.079 2.079 2.079 2.079 0 0 0 2.079-2.079 2.079 2.079 0 0 0-2.079-2.079"/>
        </g>
    </g>
</svg>
